<mxfile host="app.diagrams.net" modified="2023-12-25T16:15:27.674Z" agent="Mozilla/5.0 (Windows NT 10.0; Win64; x64) AppleWebKit/537.36 (KHTML, like Gecko) Chrome/120.0.0.0 Safari/537.36" etag="yFZ1QLbjo8lQZm2rm2FY" version="22.1.11" type="github">
  <diagram id="C5RBs43oDa-KdzZeNtuy" name="Page-1">
    <mxGraphModel dx="5912" dy="5151" grid="1" gridSize="10" guides="1" tooltips="1" connect="1" arrows="1" fold="1" page="1" pageScale="1" pageWidth="827" pageHeight="1169" math="0" shadow="0">
      <root>
        <mxCell id="WIyWlLk6GJQsqaUBKTNV-0" />
        <mxCell id="WIyWlLk6GJQsqaUBKTNV-1" parent="WIyWlLk6GJQsqaUBKTNV-0" />
        <mxCell id="7sSd0tKmP4TyFzPP-oEi-8" value="&lt;div style=&quot;&quot;&gt;&lt;span style=&quot;background-color: initial;&quot;&gt;User&lt;/span&gt;&lt;/div&gt;" style="html=1;overflow=block;blockSpacing=1;swimlane;childLayout=stackLayout;horizontal=1;horizontalStack=0;resizeParent=1;resizeParentMax=0;resizeLast=0;collapsible=0;fontStyle=0;marginBottom=0;swimlaneFillColor=#ffffff;startSize=25;whiteSpace=wrap;fontSize=16.7;fontColor=#3a414a;align=center;spacing=0;strokeColor=#3a414a;strokeOpacity=100;rounded=1;absoluteArcSize=1;arcSize=9;strokeWidth=0.8;" parent="WIyWlLk6GJQsqaUBKTNV-1" vertex="1">
          <mxGeometry x="-4360" y="-4140" width="310" height="340" as="geometry" />
        </mxCell>
        <mxCell id="7sSd0tKmP4TyFzPP-oEi-9" value="- name : int&lt;br&gt;- emaildId : String&lt;br&gt;- mobileNumber : String&lt;br&gt;- password : String&lt;br&gt;- userId : int&lt;br&gt;- addresses : List&amp;lt;String&amp;gt;" style="part=1;html=1;resizeHeight=0;strokeColor=none;fillColor=none;align=left;verticalAlign=middle;spacingLeft=4;spacingRight=4;overflow=hidden;rotatable=0;points=[[0,0.5],[1,0.5]];portConstraint=eastwest;swimlaneFillColor=#ffffff;strokeOpacity=100;whiteSpace=wrap;fontSize=13.3;fontColor=#3a414a;" parent="7sSd0tKmP4TyFzPP-oEi-8" vertex="1">
          <mxGeometry y="25" width="310" height="95" as="geometry" />
        </mxCell>
        <mxCell id="7sSd0tKmP4TyFzPP-oEi-10" value="" style="line;strokeWidth=1;fillColor=none;align=left;verticalAlign=middle;spacingTop=-1;spacingLeft=3;spacingRight=3;rotatable=0;labelPosition=right;points=[];portConstraint=eastwest;" parent="7sSd0tKmP4TyFzPP-oEi-8" vertex="1">
          <mxGeometry y="120" width="310" height="8" as="geometry" />
        </mxCell>
        <mxCell id="7sSd0tKmP4TyFzPP-oEi-11" value="+ setName(name : String ) : void&#xa;+ setEmailId(emailId : String) : void&#xa;+ setMobileNumber(mobileNumber : String ) : void&#xa;+ setPassword(password : String ) : void&#xa;+ setUserId(userId : int ) : void&#xa;+ getUserId() : String&#xa;+ getName() : String&#xa;+ getEmailId() : String&#xa;+ getMobileNumber() : String&#xa;+ getPassword() : String&#xa;+ hashcode() : int&#xa;+ equals(object : Object) : boolean" style="part=1;html=1;resizeHeight=0;strokeColor=none;fillColor=none;align=left;verticalAlign=middle;spacingLeft=4;spacingRight=4;overflow=hidden;rotatable=0;points=[[0,0.5],[1,0.5]];portConstraint=eastwest;swimlaneFillColor=#ffffff;strokeOpacity=100;whiteSpace=wrap;fontSize=13.1;fontColor=#3a414a;" parent="7sSd0tKmP4TyFzPP-oEi-8" vertex="1">
          <mxGeometry y="128" width="310" height="212" as="geometry" />
        </mxCell>
        <mxCell id="7sSd0tKmP4TyFzPP-oEi-12" value="Cart" style="html=1;overflow=block;blockSpacing=1;swimlane;childLayout=stackLayout;horizontal=1;horizontalStack=0;resizeParent=1;resizeParentMax=0;resizeLast=0;collapsible=0;fontStyle=0;marginBottom=0;swimlaneFillColor=#ffffff;startSize=25;whiteSpace=wrap;fontSize=16.7;fontColor=#3a414a;align=center;spacing=0;strokeColor=#3a414a;strokeOpacity=100;rounded=1;absoluteArcSize=1;arcSize=9;strokeWidth=0.8;" parent="WIyWlLk6GJQsqaUBKTNV-1" vertex="1">
          <mxGeometry x="-4490" y="-3596.62" width="260" height="238.25" as="geometry" />
        </mxCell>
        <mxCell id="7sSd0tKmP4TyFzPP-oEi-13" value="- cartItems :  List&amp;lt;Product&amp;gt; &#xa;- totalAmountInCart : float &#xa;- id : int&#xa;- user : User" style="part=1;html=1;resizeHeight=0;strokeColor=none;fillColor=none;align=left;verticalAlign=middle;spacingLeft=4;spacingRight=4;overflow=hidden;rotatable=0;points=[[0,0.5],[1,0.5]];portConstraint=eastwest;swimlaneFillColor=#ffffff;strokeOpacity=100;whiteSpace=wrap;fontSize=13.1;fontColor=#3a414a;" parent="7sSd0tKmP4TyFzPP-oEi-12" vertex="1">
          <mxGeometry y="25" width="260" height="85" as="geometry" />
        </mxCell>
        <mxCell id="7sSd0tKmP4TyFzPP-oEi-14" value="" style="line;strokeWidth=1;fillColor=none;align=left;verticalAlign=middle;spacingTop=-1;spacingLeft=3;spacingRight=3;rotatable=0;labelPosition=right;points=[];portConstraint=eastwest;" parent="7sSd0tKmP4TyFzPP-oEi-12" vertex="1">
          <mxGeometry y="110" width="260" height="8" as="geometry" />
        </mxCell>
        <mxCell id="7sSd0tKmP4TyFzPP-oEi-15" value="&lt;div style=&quot;display: flex; justify-content: center; align-items: baseline; font-size: 0px; line-height: 1.25; margin-top: -2px;&quot;&gt;&lt;span&gt;&lt;span style=&quot;font-size:13.1px;color:#3a414a;&quot;&gt;+ addItemToCart(item : Product)&lt;br&gt;+ removeItemFromCart(item : Product)&lt;br&gt;+ getCartItems() : List&amp;lt;Product&amp;gt; &lt;/span&gt;&lt;span style=&quot;font-size:16.7px;color:#3a414a;&quot;&gt;&lt;br&gt;&lt;/span&gt;&lt;span style=&quot;font-size:13.1px;color:#3a414a;&quot;&gt;+ getTotalAmount() : float&lt;br&gt;+ setId(id : int) : void&lt;/span&gt;&lt;/span&gt;&lt;/div&gt;" style="part=1;html=1;resizeHeight=0;strokeColor=none;fillColor=none;align=left;verticalAlign=middle;spacingLeft=4;spacingRight=4;overflow=hidden;rotatable=0;points=[[0,0.5],[1,0.5]];portConstraint=eastwest;swimlaneFillColor=#ffffff;strokeOpacity=100;whiteSpace=wrap;fontSize=13.3;fontColor=#3a414a;" parent="7sSd0tKmP4TyFzPP-oEi-12" vertex="1">
          <mxGeometry y="118" width="260" height="120.25" as="geometry" />
        </mxCell>
        <mxCell id="7sSd0tKmP4TyFzPP-oEi-16" value="Wishlist" style="html=1;overflow=block;blockSpacing=1;swimlane;childLayout=stackLayout;horizontal=1;horizontalStack=0;resizeParent=1;resizeParentMax=0;resizeLast=0;collapsible=0;fontStyle=0;marginBottom=0;swimlaneFillColor=#ffffff;startSize=25;whiteSpace=wrap;fontSize=16.7;fontColor=#3a414a;align=center;spacing=0;strokeColor=#3a414a;strokeOpacity=100;rounded=1;absoluteArcSize=1;arcSize=9;strokeWidth=0.8;" parent="WIyWlLk6GJQsqaUBKTNV-1" vertex="1">
          <mxGeometry x="-4510" y="-3210" width="270" height="232.25" as="geometry" />
        </mxCell>
        <mxCell id="7sSd0tKmP4TyFzPP-oEi-17" value="- wishlistItems :  List&amp;lt;Product&amp;gt; &#xa;- id : int&#xa;- user : User" style="part=1;html=1;resizeHeight=0;strokeColor=none;fillColor=none;align=left;verticalAlign=middle;spacingLeft=4;spacingRight=4;overflow=hidden;rotatable=0;points=[[0,0.5],[1,0.5]];portConstraint=eastwest;swimlaneFillColor=#ffffff;strokeOpacity=100;whiteSpace=wrap;fontSize=13.1;fontColor=#3a414a;" parent="7sSd0tKmP4TyFzPP-oEi-16" vertex="1">
          <mxGeometry y="25" width="270" height="95" as="geometry" />
        </mxCell>
        <mxCell id="7sSd0tKmP4TyFzPP-oEi-18" value="" style="line;strokeWidth=1;fillColor=none;align=left;verticalAlign=middle;spacingTop=-1;spacingLeft=3;spacingRight=3;rotatable=0;labelPosition=right;points=[];portConstraint=eastwest;" parent="7sSd0tKmP4TyFzPP-oEi-16" vertex="1">
          <mxGeometry y="120" width="270" height="8" as="geometry" />
        </mxCell>
        <mxCell id="7sSd0tKmP4TyFzPP-oEi-19" value="&lt;div style=&quot;display: flex; justify-content: center; align-items: baseline; font-size: 0px; line-height: 1.25; margin-top: -2px;&quot;&gt;&lt;span&gt;&lt;span style=&quot;font-size:13.1px;color:#3a414a;&quot;&gt;+ addItemToWishlist(item : Product)&lt;br&gt;+ removeItemFromWishlist(item : Product)&lt;br&gt;+ getWishlistItems() : List&amp;lt;Product&amp;gt; &lt;br&gt;+ setId(id : int) : void&lt;/span&gt;&lt;/span&gt;&lt;/div&gt;" style="part=1;html=1;resizeHeight=0;strokeColor=none;fillColor=none;align=left;verticalAlign=middle;spacingLeft=4;spacingRight=4;overflow=hidden;rotatable=0;points=[[0,0.5],[1,0.5]];portConstraint=eastwest;swimlaneFillColor=#ffffff;strokeOpacity=100;whiteSpace=wrap;fontSize=13.3;fontColor=#3a414a;" parent="7sSd0tKmP4TyFzPP-oEi-16" vertex="1">
          <mxGeometry y="128" width="270" height="104.25" as="geometry" />
        </mxCell>
        <mxCell id="7sSd0tKmP4TyFzPP-oEi-20" value="Order" style="html=1;overflow=block;blockSpacing=1;swimlane;childLayout=stackLayout;horizontal=1;horizontalStack=0;resizeParent=1;resizeParentMax=0;resizeLast=0;collapsible=0;fontStyle=0;marginBottom=0;swimlaneFillColor=#ffffff;startSize=25;whiteSpace=wrap;fontSize=16.7;fontColor=#3a414a;align=center;spacing=0;strokeColor=#3a414a;strokeOpacity=100;rounded=1;absoluteArcSize=1;arcSize=9;strokeWidth=0.8;" parent="WIyWlLk6GJQsqaUBKTNV-1" vertex="1">
          <mxGeometry x="-3004.5" y="-2930" width="315" height="249.25" as="geometry" />
        </mxCell>
        <mxCell id="7sSd0tKmP4TyFzPP-oEi-21" value="&lt;div style=&quot;display: flex; justify-content: center; align-items: baseline; font-size: 0px; line-height: 1.25; margin-top: -2px;&quot;&gt;&lt;span&gt;&lt;span style=&quot;font-size:13.3px;&quot;&gt;- orderId : int&lt;br&gt;- address : String&lt;br&gt;- paymentMode : String&lt;/span&gt;&lt;span style=&quot;font-size:15px;&quot;&gt;&lt;br&gt;&lt;/span&gt;&lt;span style=&quot;font-size:13.1px;&quot;&gt;- orders :List&amp;lt;Product&amp;gt; &lt;/span&gt;&lt;/span&gt;&lt;/div&gt;" style="part=1;html=1;resizeHeight=0;strokeColor=none;fillColor=none;align=left;verticalAlign=middle;spacingLeft=4;spacingRight=4;overflow=hidden;rotatable=0;points=[[0,0.5],[1,0.5]];portConstraint=eastwest;swimlaneFillColor=#ffffff;strokeOpacity=100;whiteSpace=wrap;fontSize=13.3;" parent="7sSd0tKmP4TyFzPP-oEi-20" vertex="1">
          <mxGeometry y="25" width="315" height="103" as="geometry" />
        </mxCell>
        <mxCell id="7sSd0tKmP4TyFzPP-oEi-22" value="" style="line;strokeWidth=1;fillColor=none;align=left;verticalAlign=middle;spacingTop=-1;spacingLeft=3;spacingRight=3;rotatable=0;labelPosition=right;points=[];portConstraint=eastwest;" parent="7sSd0tKmP4TyFzPP-oEi-20" vertex="1">
          <mxGeometry y="128" width="315" height="8" as="geometry" />
        </mxCell>
        <mxCell id="7sSd0tKmP4TyFzPP-oEi-23" value="&lt;div style=&quot;display: flex; justify-content: center; align-items: baseline; font-size: 0px; line-height: 1.25; margin-top: -2px;&quot;&gt;&lt;span&gt;&lt;span style=&quot;font-size:13.1px;&quot;&gt;+ placeOrder( items :  List&amp;lt;Product&amp;gt;, address : String) : boolean&lt;br&gt;+ getPaymentMode() : String&lt;br&gt;+ getOrders() : List&amp;lt;Product&amp;gt; &lt;/span&gt;&lt;/span&gt;&lt;/div&gt;" style="part=1;resizeHeight=0;strokeColor=none;fillColor=none;align=left;verticalAlign=middle;spacingLeft=4;spacingRight=4;rotatable=0;points=[[0,0.5],[1,0.5]];portConstraint=eastwest;swimlaneFillColor=#ffffff;strokeOpacity=100;whiteSpace=wrap;overflow=block;blockSpacing=1;html=1;fontSize=13;" parent="7sSd0tKmP4TyFzPP-oEi-20" vertex="1">
          <mxGeometry y="136" width="315" height="113.25" as="geometry" />
        </mxCell>
        <mxCell id="7sSd0tKmP4TyFzPP-oEi-24" value="AuthenticationView" style="html=1;overflow=block;blockSpacing=1;swimlane;childLayout=stackLayout;horizontal=1;horizontalStack=0;resizeParent=1;resizeParentMax=0;resizeLast=0;collapsible=0;fontStyle=0;marginBottom=0;swimlaneFillColor=#ffffff;startSize=25;whiteSpace=wrap;fontSize=16.7;fontColor=#3a414a;align=center;spacing=0;strokeColor=#3a414a;strokeOpacity=100;rounded=1;absoluteArcSize=1;arcSize=9;strokeWidth=0.8;" parent="WIyWlLk6GJQsqaUBKTNV-1" vertex="1">
          <mxGeometry x="-3580" y="-4347" width="320" height="160" as="geometry" />
        </mxCell>
        <mxCell id="7sSd0tKmP4TyFzPP-oEi-25" value="&lt;br&gt;&lt;span data-lucid-content=&quot;{&amp;quot;t&amp;quot;:&amp;quot;- SCANNER : Scanner\n- USER_VIEW : UserView\n- authenticationViewInstance : AuthenticationView &amp;quot;,&amp;quot;m&amp;quot;:[{&amp;quot;s&amp;quot;:0,&amp;quot;n&amp;quot;:&amp;quot;s&amp;quot;,&amp;quot;v&amp;quot;:17.422266666666665,&amp;quot;e&amp;quot;:93},{&amp;quot;s&amp;quot;:2,&amp;quot;n&amp;quot;:&amp;quot;i&amp;quot;,&amp;quot;v&amp;quot;:true,&amp;quot;e&amp;quot;:20},{&amp;quot;s&amp;quot;:22,&amp;quot;n&amp;quot;:&amp;quot;i&amp;quot;,&amp;quot;v&amp;quot;:true,&amp;quot;e&amp;quot;:34},{&amp;quot;s&amp;quot;:42,&amp;quot;n&amp;quot;:&amp;quot;i&amp;quot;,&amp;quot;v&amp;quot;:true,&amp;quot;e&amp;quot;:43},{&amp;quot;s&amp;quot;:43,&amp;quot;n&amp;quot;:&amp;quot;i&amp;quot;,&amp;quot;v&amp;quot;:true,&amp;quot;e&amp;quot;:74},{&amp;quot;s&amp;quot;:0,&amp;quot;n&amp;quot;:&amp;quot;u&amp;quot;,&amp;quot;v&amp;quot;:true,&amp;quot;e&amp;quot;:93}]}&quot; data-lucid-type=&quot;application/vnd.lucid.text&quot;&gt;&lt;span style=&quot;text-decoration:underline;font-size:13.066699999999999px;&quot;&gt;- &lt;/span&gt;&lt;span style=&quot;font-style:italic;text-decoration:underline;font-size:13.066699999999999px;&quot;&gt;SCANNER : Scanner&lt;br&gt;&lt;/span&gt;&lt;span style=&quot;text-decoration:underline;font-size:13.066699999999999px;&quot;&gt;- &lt;/span&gt;&lt;span style=&quot;font-style:italic;text-decoration:underline;font-size:13.066699999999999px;&quot;&gt;USER_VIEW : &lt;/span&gt;&lt;span style=&quot;text-decoration:underline;font-size:13.066699999999999px;&quot;&gt;UserView&lt;/span&gt;&lt;span style=&quot;font-style:italic;text-decoration:underline;font-size:13.066699999999999px;&quot;&gt;&lt;br&gt;&lt;/span&gt;&lt;span style=&quot;font-style:italic;text-decoration:underline;font-size:13.066699999999999px;&quot;&gt;- authenticationViewInstance : &lt;/span&gt;&lt;span style=&quot;text-decoration:underline;font-size:13.066699999999999px;&quot;&gt;AuthenticationView&amp;nbsp;&lt;/span&gt;&lt;/span&gt;&lt;br&gt;" style="part=1;html=1;resizeHeight=0;strokeColor=none;fillColor=none;align=left;verticalAlign=middle;spacingLeft=4;spacingRight=4;overflow=hidden;rotatable=0;points=[[0,0.5],[1,0.5]];portConstraint=eastwest;swimlaneFillColor=#ffffff;strokeOpacity=100;whiteSpace=wrap;fontSize=13.1;fontStyle=6;" parent="7sSd0tKmP4TyFzPP-oEi-24" vertex="1">
          <mxGeometry y="25" width="320" height="75" as="geometry" />
        </mxCell>
        <mxCell id="7sSd0tKmP4TyFzPP-oEi-26" value="" style="line;strokeWidth=1;fillColor=none;align=left;verticalAlign=middle;spacingTop=-1;spacingLeft=3;spacingRight=3;rotatable=0;labelPosition=right;points=[];portConstraint=eastwest;" parent="7sSd0tKmP4TyFzPP-oEi-24" vertex="1">
          <mxGeometry y="100" width="320" height="8" as="geometry" />
        </mxCell>
        <mxCell id="7sSd0tKmP4TyFzPP-oEi-27" value="&lt;span data-lucid-content=&quot;{&amp;quot;t&amp;quot;:&amp;quot;- AuthenticationView()\n+ getInstance() : AuthenticationView \n+ showAuthenticationPage() : void&amp;quot;,&amp;quot;m&amp;quot;:[{&amp;quot;s&amp;quot;:0,&amp;quot;n&amp;quot;:&amp;quot;s&amp;quot;,&amp;quot;v&amp;quot;:17.422266666666665,&amp;quot;e&amp;quot;:94},{&amp;quot;s&amp;quot;:23,&amp;quot;n&amp;quot;:&amp;quot;u&amp;quot;,&amp;quot;v&amp;quot;:true,&amp;quot;e&amp;quot;:60}]}&quot; data-lucid-type=&quot;application/vnd.lucid.text&quot;&gt;&lt;span style=&quot;font-size:13.066699999999999px;&quot;&gt;&lt;br&gt;&lt;/span&gt;&lt;span style=&quot;font-size: 13.0667px;&quot;&gt;+&lt;/span&gt;&lt;span style=&quot;text-decoration:underline;font-size:13.066699999999999px;&quot;&gt; getInstance() : AuthenticationView &lt;/span&gt;&lt;span style=&quot;font-size:13.066699999999999px;&quot;&gt;&lt;br&gt;&lt;/span&gt;&lt;span style=&quot;font-size:13.066699999999999px;&quot;&gt;+ showAuthenticationPage() : void&lt;/span&gt;&lt;/span&gt;" style="part=1;resizeHeight=0;strokeColor=none;fillColor=none;align=left;verticalAlign=middle;spacingLeft=4;spacingRight=4;rotatable=0;points=[[0,0.5],[1,0.5]];portConstraint=eastwest;swimlaneFillColor=#ffffff;strokeOpacity=100;whiteSpace=wrap;overflow=block;blockSpacing=1;html=1;fontSize=13;" parent="7sSd0tKmP4TyFzPP-oEi-24" vertex="1">
          <mxGeometry y="108" width="320" height="52" as="geometry" />
        </mxCell>
        <mxCell id="7sSd0tKmP4TyFzPP-oEi-28" value="WishlistView" style="html=1;overflow=block;blockSpacing=1;swimlane;childLayout=stackLayout;horizontal=1;horizontalStack=0;resizeParent=1;resizeParentMax=0;resizeLast=0;collapsible=0;fontStyle=0;marginBottom=0;swimlaneFillColor=#ffffff;startSize=25;whiteSpace=wrap;fontSize=16.7;fontColor=#3a414a;align=center;spacing=0;strokeColor=#3a414a;strokeOpacity=100;rounded=1;absoluteArcSize=1;arcSize=9;strokeWidth=0.8;" parent="WIyWlLk6GJQsqaUBKTNV-1" vertex="1">
          <mxGeometry x="-3140" y="-3620" width="290" height="230" as="geometry" />
        </mxCell>
        <mxCell id="7sSd0tKmP4TyFzPP-oEi-29" value="&lt;br&gt;&lt;span data-lucid-content=&quot;{&amp;quot;t&amp;quot;:&amp;quot;- WISHLIST_CONTROLLER : WishlistController\n- CART_VIEW : CartView\n-wishlistViewInstance : WishlistView\n- scanner : Scanner  &amp;quot;,&amp;quot;m&amp;quot;:[{&amp;quot;s&amp;quot;:2,&amp;quot;n&amp;quot;:&amp;quot;i&amp;quot;,&amp;quot;v&amp;quot;:true,&amp;quot;e&amp;quot;:24},{&amp;quot;s&amp;quot;:45,&amp;quot;n&amp;quot;:&amp;quot;i&amp;quot;,&amp;quot;v&amp;quot;:true,&amp;quot;e&amp;quot;:57},{&amp;quot;s&amp;quot;:67,&amp;quot;n&amp;quot;:&amp;quot;i&amp;quot;,&amp;quot;v&amp;quot;:true,&amp;quot;e&amp;quot;:90},{&amp;quot;s&amp;quot;:42,&amp;quot;n&amp;quot;:&amp;quot;s&amp;quot;,&amp;quot;v&amp;quot;:17.422266666666662,&amp;quot;e&amp;quot;:124},{&amp;quot;s&amp;quot;:2,&amp;quot;n&amp;quot;:&amp;quot;u&amp;quot;,&amp;quot;v&amp;quot;:true,&amp;quot;e&amp;quot;:43},{&amp;quot;s&amp;quot;:45,&amp;quot;n&amp;quot;:&amp;quot;u&amp;quot;,&amp;quot;v&amp;quot;:true,&amp;quot;e&amp;quot;:66},{&amp;quot;s&amp;quot;:67,&amp;quot;n&amp;quot;:&amp;quot;u&amp;quot;,&amp;quot;v&amp;quot;:true,&amp;quot;e&amp;quot;:102},{&amp;quot;s&amp;quot;:0,&amp;quot;n&amp;quot;:&amp;quot;s&amp;quot;,&amp;quot;v&amp;quot;:15.200044444444439,&amp;quot;e&amp;quot;:42}]}&quot; data-lucid-type=&quot;application/vnd.lucid.text&quot;&gt;&lt;span style=&quot;font-size:11.40003333333333px;&quot;&gt;- &lt;/span&gt;&lt;span style=&quot;font-style:italic;text-decoration:underline;font-size:11.40003333333333px;&quot;&gt;WISHLIST_CONTROLLER : &lt;/span&gt;&lt;span style=&quot;text-decoration:underline;font-size:11.40003333333333px;&quot;&gt;WishlistController&lt;/span&gt;&lt;span style=&quot;text-decoration:underline;font-size:13.066699999999996px;&quot;&gt;&lt;br&gt;&lt;/span&gt;&lt;span style=&quot;font-size:13.066699999999996px;&quot;&gt;- &lt;/span&gt;&lt;span style=&quot;font-style:italic;text-decoration:underline;font-size:13.066699999999996px;&quot;&gt;CART_VIEW : &lt;/span&gt;&lt;span style=&quot;text-decoration:underline;font-size:13.066699999999996px;&quot;&gt;CartView&lt;br&gt;&lt;/span&gt;&lt;span style=&quot;font-size:13.066699999999996px;&quot;&gt;-&lt;/span&gt;&lt;span style=&quot;font-style:italic;text-decoration:underline;font-size:13.066699999999996px;&quot;&gt;wishlistViewInstance : &lt;/span&gt;&lt;span style=&quot;text-decoration:underline;font-size:13.066699999999996px;&quot;&gt;WishlistView&lt;/span&gt;&lt;span style=&quot;font-size:13.066699999999996px;&quot;&gt;&lt;br&gt;&lt;/span&gt;&lt;/span&gt;" style="part=1;html=1;resizeHeight=0;strokeColor=none;fillColor=none;align=left;verticalAlign=middle;spacingLeft=4;spacingRight=4;overflow=hidden;rotatable=0;points=[[0,0.5],[1,0.5]];portConstraint=eastwest;swimlaneFillColor=#ffffff;strokeOpacity=100;whiteSpace=wrap;fontSize=13.1;fontStyle=6;" parent="7sSd0tKmP4TyFzPP-oEi-28" vertex="1">
          <mxGeometry y="25" width="290" height="95" as="geometry" />
        </mxCell>
        <mxCell id="7sSd0tKmP4TyFzPP-oEi-30" value="" style="line;strokeWidth=1;fillColor=none;align=left;verticalAlign=middle;spacingTop=-1;spacingLeft=3;spacingRight=3;rotatable=0;labelPosition=right;points=[];portConstraint=eastwest;" parent="7sSd0tKmP4TyFzPP-oEi-28" vertex="1">
          <mxGeometry y="120" width="290" height="8" as="geometry" />
        </mxCell>
        <mxCell id="7sSd0tKmP4TyFzPP-oEi-31" value="&lt;div style=&quot;display: flex; justify-content: center; align-items: baseline; font-size: 0px; line-height: 1.25; margin-top: -2px;&quot;&gt;&lt;span&gt;&lt;div style=&quot;&quot;&gt;&lt;br&gt;&lt;/div&gt;&lt;span style=&quot;font-size:13.1px;&quot;&gt;&lt;div style=&quot;&quot;&gt;&lt;span style=&quot;font-size: 13.1px; background-color: initial;&quot;&gt;+&lt;/span&gt;&lt;span style=&quot;font-size: 13.1px; background-color: initial; text-decoration-line: underline;&quot;&gt;getInstance() : WishlistView&lt;/span&gt;&lt;/div&gt;&lt;span style=&quot;font-size:13.1px;&quot;&gt;&lt;div style=&quot;&quot;&gt;&lt;span style=&quot;font-size: 13.1px; background-color: initial;&quot;&gt;+ viewWishlist(user : User) : void&lt;/span&gt;&lt;/div&gt;&lt;/span&gt;&lt;span style=&quot;font-size:13.1px;&quot;&gt;&lt;div style=&quot;&quot;&gt;&lt;span style=&quot;font-size: 13.1px; background-color: initial;&quot;&gt;+ addToWishlist(item : Product, user : User) : void&lt;/span&gt;&lt;/div&gt;&lt;div style=&quot;&quot;&gt;&lt;br&gt;&lt;/div&gt;&lt;/span&gt;&lt;/span&gt;&lt;/span&gt;&lt;/div&gt;" style="part=1;resizeHeight=0;strokeColor=none;fillColor=none;align=left;verticalAlign=middle;spacingLeft=4;spacingRight=4;rotatable=0;points=[[0,0.5],[1,0.5]];portConstraint=eastwest;swimlaneFillColor=#ffffff;strokeOpacity=100;whiteSpace=wrap;overflow=block;blockSpacing=1;html=1;fontSize=13;" parent="7sSd0tKmP4TyFzPP-oEi-28" vertex="1">
          <mxGeometry y="128" width="290" height="102" as="geometry" />
        </mxCell>
        <mxCell id="7sSd0tKmP4TyFzPP-oEi-32" value="UserView" style="html=1;overflow=block;blockSpacing=1;swimlane;childLayout=stackLayout;horizontal=1;horizontalStack=0;resizeParent=1;resizeParentMax=0;resizeLast=0;collapsible=0;fontStyle=0;marginBottom=0;swimlaneFillColor=#ffffff;startSize=25;whiteSpace=wrap;fontSize=16.7;fontColor=#3a414a;align=center;spacing=0;strokeColor=#3a414a;strokeOpacity=100;rounded=1;absoluteArcSize=1;arcSize=9;strokeWidth=0.8;" parent="WIyWlLk6GJQsqaUBKTNV-1" vertex="1">
          <mxGeometry x="-3560" y="-4104.87" width="262.5" height="400" as="geometry" />
        </mxCell>
        <mxCell id="7sSd0tKmP4TyFzPP-oEi-33" value="&lt;font style=&quot;font-size: 10px;&quot;&gt;&lt;br&gt;&lt;span data-lucid-content=&quot;{&amp;quot;t&amp;quot;:&amp;quot;- SCANNER : Scanner  - USER_CONTROLLER :UserController \n- CART_CONTROLLER : CartController   - WISHLIST_CONTROLLER : WishlistController\n- ORDER_CONTROLLER : OrderController   - HOME_PAGE_VIEW  : HomePageView\n- AUTHENTICATION_VIEW:  AuthenticationView\n- USER_DATA_VALIDATOR : UserDataValidator \n- userViewInstance: UserView&amp;quot;,&amp;quot;m&amp;quot;:[{&amp;quot;s&amp;quot;:0,&amp;quot;n&amp;quot;:&amp;quot;s&amp;quot;,&amp;quot;v&amp;quot;:17.422266666666665,&amp;quot;e&amp;quot;:322},{&amp;quot;s&amp;quot;:2,&amp;quot;n&amp;quot;:&amp;quot;i&amp;quot;,&amp;quot;v&amp;quot;:true,&amp;quot;e&amp;quot;:12},{&amp;quot;s&amp;quot;:2,&amp;quot;n&amp;quot;:&amp;quot;u&amp;quot;,&amp;quot;v&amp;quot;:true,&amp;quot;e&amp;quot;:20},{&amp;quot;s&amp;quot;:23,&amp;quot;n&amp;quot;:&amp;quot;i&amp;quot;,&amp;quot;v&amp;quot;:true,&amp;quot;e&amp;quot;:39},{&amp;quot;s&amp;quot;:23,&amp;quot;n&amp;quot;:&amp;quot;u&amp;quot;,&amp;quot;v&amp;quot;:true,&amp;quot;e&amp;quot;:56},{&amp;quot;s&amp;quot;:55,&amp;quot;n&amp;quot;:&amp;quot;i&amp;quot;,&amp;quot;v&amp;quot;:true,&amp;quot;e&amp;quot;:76},{&amp;quot;s&amp;quot;:58,&amp;quot;n&amp;quot;:&amp;quot;u&amp;quot;,&amp;quot;v&amp;quot;:true,&amp;quot;e&amp;quot;:136},{&amp;quot;s&amp;quot;:136,&amp;quot;n&amp;quot;:&amp;quot;i&amp;quot;,&amp;quot;v&amp;quot;:true,&amp;quot;e&amp;quot;:157},{&amp;quot;s&amp;quot;:138,&amp;quot;n&amp;quot;:&amp;quot;u&amp;quot;,&amp;quot;v&amp;quot;:true,&amp;quot;e&amp;quot;:172},{&amp;quot;s&amp;quot;:177,&amp;quot;n&amp;quot;:&amp;quot;i&amp;quot;,&amp;quot;v&amp;quot;:true,&amp;quot;e&amp;quot;:195},{&amp;quot;s&amp;quot;:177,&amp;quot;n&amp;quot;:&amp;quot;u&amp;quot;,&amp;quot;v&amp;quot;:true,&amp;quot;e&amp;quot;:207},{&amp;quot;s&amp;quot;:210,&amp;quot;n&amp;quot;:&amp;quot;i&amp;quot;,&amp;quot;v&amp;quot;:true,&amp;quot;e&amp;quot;:232},{&amp;quot;s&amp;quot;:210,&amp;quot;n&amp;quot;:&amp;quot;u&amp;quot;,&amp;quot;v&amp;quot;:true,&amp;quot;e&amp;quot;:251},{&amp;quot;s&amp;quot;:251,&amp;quot;n&amp;quot;:&amp;quot;i&amp;quot;,&amp;quot;v&amp;quot;:true,&amp;quot;e&amp;quot;:273},{&amp;quot;s&amp;quot;:253,&amp;quot;n&amp;quot;:&amp;quot;u&amp;quot;,&amp;quot;v&amp;quot;:true,&amp;quot;e&amp;quot;:292},{&amp;quot;s&amp;quot;:296,&amp;quot;n&amp;quot;:&amp;quot;i&amp;quot;,&amp;quot;v&amp;quot;:true,&amp;quot;e&amp;quot;:312},{&amp;quot;s&amp;quot;:95,&amp;quot;n&amp;quot;:&amp;quot;i&amp;quot;,&amp;quot;v&amp;quot;:true,&amp;quot;e&amp;quot;:117}]}&quot; data-lucid-type=&quot;application/vnd.lucid.text&quot;&gt;- &lt;span style=&quot;font-style: italic; text-decoration: underline;&quot;&gt;SCANNER : &lt;/span&gt;&lt;span style=&quot;text-decoration: underline;&quot;&gt;Scanner &lt;br&gt;&lt;/span&gt; - &lt;span style=&quot;font-style: italic; text-decoration: underline;&quot;&gt;USER_CONTROLLER &lt;/span&gt;&lt;span style=&quot;text-decoration: underline;&quot;&gt;: UserController&lt;/span&gt;&lt;span style=&quot;text-decoration: underline;&quot;&gt;&lt;br&gt;&lt;/span&gt;&amp;nbsp;- &amp;nbsp;&lt;span style=&quot;font-style: italic; text-decoration: underline;&quot;&gt;HOME_PAGE_VIEW  : &lt;/span&gt;&lt;span style=&quot;text-decoration: underline;&quot;&gt;HomePageView&lt;/span&gt;&lt;br&gt;&lt;span style=&quot;font-style: italic;&quot;&gt;- &lt;/span&gt;&lt;span style=&quot;font-style: italic; text-decoration: underline;&quot;&gt;USER_DATA_VALIDATOR &lt;/span&gt;&lt;span style=&quot;text-decoration: underline;&quot;&gt;: UserDataValidator&lt;/span&gt; &lt;br&gt;- &lt;span style=&quot;font-style: italic;&quot;&gt;userViewInstance&lt;/span&gt;: UserView&lt;/span&gt;&lt;br&gt;&lt;/font&gt;" style="part=1;html=1;resizeHeight=0;strokeColor=none;fillColor=none;align=left;verticalAlign=middle;spacingLeft=4;spacingRight=4;overflow=hidden;rotatable=0;points=[[0,0.5],[1,0.5]];portConstraint=eastwest;swimlaneFillColor=#ffffff;strokeOpacity=100;whiteSpace=wrap;fontSize=13.1;fontStyle=6;" parent="7sSd0tKmP4TyFzPP-oEi-32" vertex="1">
          <mxGeometry y="25" width="262.5" height="155" as="geometry" />
        </mxCell>
        <mxCell id="7sSd0tKmP4TyFzPP-oEi-34" value="" style="line;strokeWidth=1;fillColor=none;align=left;verticalAlign=middle;spacingTop=-1;spacingLeft=3;spacingRight=3;rotatable=0;labelPosition=right;points=[];portConstraint=eastwest;" parent="7sSd0tKmP4TyFzPP-oEi-32" vertex="1">
          <mxGeometry y="180" width="262.5" height="8" as="geometry" />
        </mxCell>
        <mxCell id="7sSd0tKmP4TyFzPP-oEi-35" value="&lt;span data-lucid-content=&quot;{&amp;quot;t&amp;quot;:&amp;quot;- UserView()\n+ getInstance() : UserView\n+ createNewUser() : boolean \n+ validateUser(): boolean \n+ viewAndEditProfile(user : User) : void\n- updateUserDetails(user : User) : void\n- getName() : String\n- getPassword() : String\n- getEmailId() : String\n- getPassword() : String- \n- get.mobileNumber() : String&amp;quot;,&amp;quot;m&amp;quot;:[{&amp;quot;s&amp;quot;:13,&amp;quot;n&amp;quot;:&amp;quot;u&amp;quot;,&amp;quot;v&amp;quot;:true,&amp;quot;e&amp;quot;:40},{&amp;quot;s&amp;quot;:40,&amp;quot;n&amp;quot;:&amp;quot;s&amp;quot;,&amp;quot;v&amp;quot;:17.422266666666665,&amp;quot;e&amp;quot;:303},{&amp;quot;s&amp;quot;:198,&amp;quot;n&amp;quot;:&amp;quot;fc&amp;quot;,&amp;quot;v&amp;quot;:&amp;quot;Regular&amp;quot;,&amp;quot;e&amp;quot;:303},{&amp;quot;s&amp;quot;:198,&amp;quot;n&amp;quot;:&amp;quot;fid&amp;quot;,&amp;quot;v&amp;quot;:2,&amp;quot;e&amp;quot;:303},{&amp;quot;s&amp;quot;:0,&amp;quot;n&amp;quot;:&amp;quot;s&amp;quot;,&amp;quot;v&amp;quot;:19.999999999999996,&amp;quot;e&amp;quot;:1},{&amp;quot;s&amp;quot;:1,&amp;quot;n&amp;quot;:&amp;quot;s&amp;quot;,&amp;quot;v&amp;quot;:15.555555555555552,&amp;quot;e&amp;quot;:13},{&amp;quot;s&amp;quot;:13,&amp;quot;n&amp;quot;:&amp;quot;s&amp;quot;,&amp;quot;v&amp;quot;:17.77777777777777,&amp;quot;e&amp;quot;:40}]}&quot; data-lucid-type=&quot;application/vnd.lucid.text&quot;&gt;&lt;span style=&quot;text-decoration:underline;font-size:13.333333333333329px;&quot;&gt;+ getInstance() : UserView&lt;br&gt;&lt;/span&gt;&lt;span style=&quot;font-size:13.066699999999999px;&quot;&gt;+ createNewUser() : boolean &lt;br&gt;&lt;/span&gt;&lt;span style=&quot;font-size:13.066699999999999px;&quot;&gt;+ validateUser(): boolean &lt;br&gt;&lt;/span&gt;&lt;span style=&quot;font-size:13.066699999999999px;&quot;&gt;+ viewAndEditProfile(user : User) : void&lt;br&gt;&lt;/span&gt;&lt;span style=&quot;font-size:13.066699999999999px;&quot;&gt;- updateUserDetails(user : User) : void&lt;br&gt;&lt;/span&gt;&lt;span style=&quot;font-size:13.066699999999999px;&quot;&gt;- getName() : String&lt;br&gt;&lt;/span&gt;&lt;span style=&quot;font-size:13.066699999999999px;&quot;&gt;- getPassword() : String&lt;br&gt;&lt;/span&gt;&lt;span style=&quot;font-size:13.066699999999999px;&quot;&gt;- getEmailId() : String&lt;br&gt;&lt;/span&gt;&lt;span style=&quot;font-size:13.066699999999999px;&quot;&gt;- getPassword() : String- &lt;br&gt;&lt;/span&gt;&lt;span style=&quot;font-size:13.066699999999999px;&quot;&gt;- get.mobileNumber() : String&lt;/span&gt;&lt;/span&gt;&lt;br&gt;" style="part=1;resizeHeight=0;strokeColor=none;fillColor=none;align=left;verticalAlign=middle;spacingLeft=4;spacingRight=4;rotatable=0;points=[[0,0.5],[1,0.5]];portConstraint=eastwest;swimlaneFillColor=#ffffff;strokeOpacity=100;whiteSpace=wrap;overflow=block;blockSpacing=1;html=1;fontSize=13;" parent="7sSd0tKmP4TyFzPP-oEi-32" vertex="1">
          <mxGeometry y="188" width="262.5" height="212" as="geometry" />
        </mxCell>
        <mxCell id="7sSd0tKmP4TyFzPP-oEi-36" value="CartView" style="html=1;overflow=block;blockSpacing=1;swimlane;childLayout=stackLayout;horizontal=1;horizontalStack=0;resizeParent=1;resizeParentMax=0;resizeLast=0;collapsible=0;fontStyle=0;marginBottom=0;swimlaneFillColor=#ffffff;startSize=25;whiteSpace=wrap;fontSize=16.7;fontColor=#3a414a;align=center;spacing=0;strokeColor=#3a414a;strokeOpacity=100;rounded=1;absoluteArcSize=1;arcSize=9;strokeWidth=0.8;" parent="WIyWlLk6GJQsqaUBKTNV-1" vertex="1">
          <mxGeometry x="-3132.5" y="-3989.87" width="260" height="210" as="geometry" />
        </mxCell>
        <mxCell id="7sSd0tKmP4TyFzPP-oEi-37" value="- cartViewInstance : CartView &#xa;- CART_CONTROLLER : CartController &#xa;- ORDER_VIEW : OrderView" style="part=1;html=1;resizeHeight=0;strokeColor=none;fillColor=none;align=left;verticalAlign=middle;spacingLeft=4;spacingRight=4;overflow=hidden;rotatable=0;points=[[0,0.5],[1,0.5]];portConstraint=eastwest;swimlaneFillColor=#ffffff;strokeOpacity=100;whiteSpace=wrap;fontSize=13.1;fontStyle=6;" parent="7sSd0tKmP4TyFzPP-oEi-36" vertex="1">
          <mxGeometry y="25" width="260" height="85" as="geometry" />
        </mxCell>
        <mxCell id="7sSd0tKmP4TyFzPP-oEi-38" value="" style="line;strokeWidth=1;fillColor=none;align=left;verticalAlign=middle;spacingTop=-1;spacingLeft=3;spacingRight=3;rotatable=0;labelPosition=right;points=[];portConstraint=eastwest;" parent="7sSd0tKmP4TyFzPP-oEi-36" vertex="1">
          <mxGeometry y="110" width="260" height="8" as="geometry" />
        </mxCell>
        <mxCell id="7sSd0tKmP4TyFzPP-oEi-39" value="&lt;div style=&quot;display: flex; justify-content: center; align-items: baseline; font-size: 0px; line-height: 1.25; margin-top: -2px;&quot;&gt;&lt;span&gt;&lt;span style=&quot;font-size:13.3px;&quot;&gt;&lt;span style=&quot;font-size:13.3px;text-decoration: underline;&quot;&gt;+ getInstance() : CartView&lt;br&gt;&lt;/span&gt;&lt;span style=&quot;font-size:13.1px;&quot;&gt;+ viewCart(user : User) : void&lt;br&gt;+ addToCart(item : Product , user : User)&lt;br&gt;&lt;/span&gt;&lt;/span&gt;&lt;/span&gt;&lt;/div&gt;" style="part=1;resizeHeight=0;strokeColor=none;fillColor=none;align=left;verticalAlign=middle;spacingLeft=4;spacingRight=4;rotatable=0;points=[[0,0.5],[1,0.5]];portConstraint=eastwest;swimlaneFillColor=#ffffff;strokeOpacity=100;whiteSpace=wrap;overflow=block;blockSpacing=1;html=1;fontSize=13;" parent="7sSd0tKmP4TyFzPP-oEi-36" vertex="1">
          <mxGeometry y="118" width="260" height="92" as="geometry" />
        </mxCell>
        <mxCell id="7sSd0tKmP4TyFzPP-oEi-40" value="" style="html=1;jettySize=18;whiteSpace=wrap;overflow=block;blockSpacing=1;fontSize=13;strokeColor=#3a414a;strokeOpacity=100;strokeWidth=0.8;rounded=1;arcSize=12;edgeStyle=orthogonalEdgeStyle;startArrow=none;endArrow=diamond;endFill=0;endSize=16;exitX=0;exitY=0.711;exitPerimeter=0;entryX=-0.001;entryY=0.5;entryPerimeter=0;lucidId=HNFRmIGbVs-g;exitDx=0;exitDy=0;entryDx=0;entryDy=0;" parent="WIyWlLk6GJQsqaUBKTNV-1" source="7sSd0tKmP4TyFzPP-oEi-9" target="7sSd0tKmP4TyFzPP-oEi-12" edge="1">
          <mxGeometry width="100" height="100" relative="1" as="geometry">
            <Array as="points" />
          </mxGeometry>
        </mxCell>
        <mxCell id="7sSd0tKmP4TyFzPP-oEi-41" value="" style="html=1;jettySize=18;whiteSpace=wrap;overflow=block;blockSpacing=1;fontSize=13;strokeColor=#3a414a;strokeOpacity=100;strokeWidth=0.8;rounded=1;arcSize=12;edgeStyle=orthogonalEdgeStyle;startArrow=none;endArrow=diamond;endFill=0;endSize=16;exitX=0.355;exitY=1.047;entryX=-0.001;entryY=0.603;entryPerimeter=0;lucidId=fPFRTF55vg9Z;exitDx=0;exitDy=0;entryDx=0;entryDy=0;exitPerimeter=0;" parent="WIyWlLk6GJQsqaUBKTNV-1" source="7sSd0tKmP4TyFzPP-oEi-11" target="7sSd0tKmP4TyFzPP-oEi-16" edge="1">
          <mxGeometry width="100" height="100" relative="1" as="geometry">
            <Array as="points">
              <mxPoint x="-4250" y="-3713" />
              <mxPoint x="-4570" y="-3713" />
              <mxPoint x="-4570" y="-3070" />
            </Array>
          </mxGeometry>
        </mxCell>
        <mxCell id="7sSd0tKmP4TyFzPP-oEi-42" value="" style="html=1;jettySize=18;whiteSpace=wrap;overflow=block;blockSpacing=1;fontSize=13;strokeColor=#3a414a;strokeOpacity=100;strokeWidth=0.8;rounded=1;arcSize=12;edgeStyle=orthogonalEdgeStyle;startArrow=none;endArrow=diamond;endFill=1;endSize=16;exitX=1.001;exitY=0.177;exitPerimeter=0;entryX=0.481;entryY=1.042;entryPerimeter=0;lucidId=-VFRP1HDjDhr;exitDx=0;exitDy=0;entryDx=0;entryDy=0;" parent="WIyWlLk6GJQsqaUBKTNV-1" source="7sSd0tKmP4TyFzPP-oEi-12" target="7sSd0tKmP4TyFzPP-oEi-39" edge="1">
          <mxGeometry width="100" height="100" relative="1" as="geometry">
            <Array as="points">
              <mxPoint x="-3681" y="-3533" />
              <mxPoint x="-3681" y="-3640" />
              <mxPoint x="-3007" y="-3640" />
            </Array>
          </mxGeometry>
        </mxCell>
        <mxCell id="7sSd0tKmP4TyFzPP-oEi-45" value="" style="html=1;jettySize=18;whiteSpace=wrap;overflow=block;blockSpacing=1;fontSize=13;strokeColor=#3a414a;strokeOpacity=100;strokeWidth=0.8;rounded=1;arcSize=12;edgeStyle=orthogonalEdgeStyle;startArrow=open;endArrow=open;exitX=0.485;exitY=0.004;exitPerimeter=0;entryX=0.5;entryY=1.002;entryPerimeter=0;lucidId=LZFRwG_nJtKq;exitDx=0;exitDy=0;" parent="WIyWlLk6GJQsqaUBKTNV-1" source="7sSd0tKmP4TyFzPP-oEi-32" edge="1">
          <mxGeometry width="100" height="100" relative="1" as="geometry">
            <mxPoint x="-3441.75" y="-4105.589999999999" as="sourcePoint" />
            <mxPoint x="-3433" y="-4187" as="targetPoint" />
          </mxGeometry>
        </mxCell>
        <mxCell id="7sSd0tKmP4TyFzPP-oEi-46" value="UserController" style="html=1;overflow=block;blockSpacing=1;swimlane;childLayout=stackLayout;horizontal=1;horizontalStack=0;resizeParent=1;resizeParentMax=0;resizeLast=0;collapsible=0;fontStyle=0;marginBottom=0;swimlaneFillColor=#ffffff;startSize=25;whiteSpace=wrap;fontSize=16.7;fontColor=#3a414a;align=center;spacing=0;strokeColor=#3a414a;strokeOpacity=100;rounded=1;absoluteArcSize=1;arcSize=9;strokeWidth=0.8;" parent="WIyWlLk6GJQsqaUBKTNV-1" vertex="1">
          <mxGeometry x="-3132.5" y="-4290" width="330" height="220" as="geometry" />
        </mxCell>
        <mxCell id="7sSd0tKmP4TyFzPP-oEi-47" value="&lt;br&gt;&lt;span data-lucid-content=&quot;{&amp;quot;t&amp;quot;:&amp;quot;- userControllerInstance : UserController  - USER_SERVICE :  UserService &amp;quot;,&amp;quot;m&amp;quot;:[{&amp;quot;s&amp;quot;:0,&amp;quot;n&amp;quot;:&amp;quot;u&amp;quot;,&amp;quot;v&amp;quot;:true,&amp;quot;e&amp;quot;:73},{&amp;quot;s&amp;quot;:2,&amp;quot;n&amp;quot;:&amp;quot;i&amp;quot;,&amp;quot;v&amp;quot;:true,&amp;quot;e&amp;quot;:24},{&amp;quot;s&amp;quot;:45,&amp;quot;n&amp;quot;:&amp;quot;i&amp;quot;,&amp;quot;v&amp;quot;:true,&amp;quot;e&amp;quot;:60},{&amp;quot;s&amp;quot;:0,&amp;quot;n&amp;quot;:&amp;quot;s&amp;quot;,&amp;quot;v&amp;quot;:17.77777777777778,&amp;quot;e&amp;quot;:73}]}&quot; data-lucid-type=&quot;application/vnd.lucid.text&quot;&gt;&lt;span style=&quot;text-decoration:underline;font-size:13.333333333333336px;&quot;&gt;- &lt;/span&gt;&lt;span style=&quot;font-style:italic;text-decoration:underline;font-size:13.333333333333336px;&quot;&gt;userControllerInstance&lt;/span&gt;&lt;span style=&quot;text-decoration:underline;font-size:13.333333333333336px;&quot;&gt; : UserController  &lt;br&gt;- &lt;/span&gt;&lt;span style=&quot;font-style:italic;text-decoration:underline;font-size:13.333333333333336px;&quot;&gt;USER_SERVICE : &lt;/span&gt;&lt;span style=&quot;text-decoration:underline;font-size:13.333333333333336px;&quot;&gt; UserService &lt;/span&gt;&lt;/span&gt;&lt;br&gt;" style="part=1;html=1;resizeHeight=0;strokeColor=none;fillColor=none;align=left;verticalAlign=middle;spacingLeft=4;spacingRight=4;overflow=hidden;rotatable=0;points=[[0,0.5],[1,0.5]];portConstraint=eastwest;swimlaneFillColor=#ffffff;strokeOpacity=100;whiteSpace=wrap;fontSize=13.3;fontStyle=6;" parent="7sSd0tKmP4TyFzPP-oEi-46" vertex="1">
          <mxGeometry y="25" width="330" height="75" as="geometry" />
        </mxCell>
        <mxCell id="7sSd0tKmP4TyFzPP-oEi-48" value="" style="line;strokeWidth=1;fillColor=none;align=left;verticalAlign=middle;spacingTop=-1;spacingLeft=3;spacingRight=3;rotatable=0;labelPosition=right;points=[];portConstraint=eastwest;" parent="7sSd0tKmP4TyFzPP-oEi-46" vertex="1">
          <mxGeometry y="100" width="330" height="8" as="geometry" />
        </mxCell>
        <mxCell id="7sSd0tKmP4TyFzPP-oEi-49" value="&lt;span data-lucid-content=&quot;{&amp;quot;t&amp;quot;:&amp;quot;- UserController()\n+ getInstance() : UserController\n+ createUser(user : User ) : boolean \n+ getExistingUser(mobileNumber : String, password : String ) : User &amp;quot;,&amp;quot;m&amp;quot;:[{&amp;quot;s&amp;quot;:0,&amp;quot;n&amp;quot;:&amp;quot;c&amp;quot;,&amp;quot;v&amp;quot;:&amp;quot;3a414aff&amp;quot;,&amp;quot;e&amp;quot;:19},{&amp;quot;s&amp;quot;:0,&amp;quot;n&amp;quot;:&amp;quot;s&amp;quot;,&amp;quot;v&amp;quot;:17.77777777777778,&amp;quot;e&amp;quot;:51},{&amp;quot;s&amp;quot;:21,&amp;quot;n&amp;quot;:&amp;quot;u&amp;quot;,&amp;quot;v&amp;quot;:true,&amp;quot;e&amp;quot;:52},{&amp;quot;s&amp;quot;:51,&amp;quot;n&amp;quot;:&amp;quot;s&amp;quot;,&amp;quot;v&amp;quot;:12.977822222222219,&amp;quot;e&amp;quot;:52},{&amp;quot;s&amp;quot;:52,&amp;quot;n&amp;quot;:&amp;quot;s&amp;quot;,&amp;quot;v&amp;quot;:17.77777777777778,&amp;quot;e&amp;quot;:158},{&amp;quot;s&amp;quot;:89,&amp;quot;n&amp;quot;:&amp;quot;u&amp;quot;,&amp;quot;v&amp;quot;:true,&amp;quot;e&amp;quot;:90}]}&quot; data-lucid-type=&quot;application/vnd.lucid.text&quot;&gt;&lt;span style=&quot;font-size:13.333333333333336px;&quot;&gt;+ &lt;/span&gt;&lt;span style=&quot;text-decoration:underline;font-size:13.333333333333336px;&quot;&gt;getInstance() : UserController&lt;/span&gt;&lt;span style=&quot;text-decoration:underline;font-size:9.733366666666665px;&quot;&gt;&lt;br&gt;&lt;/span&gt;&lt;span style=&quot;font-size:13.333333333333336px;&quot;&gt;+ createUser(user : User ) : boolean &lt;/span&gt;&lt;span style=&quot;text-decoration:underline;font-size:13.333333333333336px;&quot;&gt;&lt;br&gt;&lt;/span&gt;&lt;span style=&quot;font-size:13.333333333333336px;&quot;&gt;+ getExistingUser(mobileNumber : String, password : String ) : User&lt;/span&gt;&lt;/span&gt;&lt;br&gt;&lt;div&gt;&amp;nbsp;+ addAddress(user : User, address : String) :&amp;nbsp; void&lt;/div&gt;&lt;div&gt;+ getAddresses(user : User) : List&amp;lt;String&amp;gt;&amp;nbsp;&lt;/div&gt;&lt;div&gt;+ updateUser(user : User ) : void&amp;nbsp;&lt;/div&gt;" style="part=1;resizeHeight=0;strokeColor=none;fillColor=none;align=left;verticalAlign=middle;spacingLeft=4;spacingRight=4;rotatable=0;points=[[0,0.5],[1,0.5]];portConstraint=eastwest;swimlaneFillColor=#ffffff;strokeOpacity=100;whiteSpace=wrap;overflow=block;blockSpacing=1;html=1;fontSize=13;" parent="7sSd0tKmP4TyFzPP-oEi-46" vertex="1">
          <mxGeometry y="108" width="330" height="112" as="geometry" />
        </mxCell>
        <mxCell id="7sSd0tKmP4TyFzPP-oEi-50" value="CartController" style="html=1;overflow=block;blockSpacing=1;swimlane;childLayout=stackLayout;horizontal=1;horizontalStack=0;resizeParent=1;resizeParentMax=0;resizeLast=0;collapsible=0;fontStyle=0;marginBottom=0;swimlaneFillColor=#ffffff;startSize=25;whiteSpace=wrap;fontSize=16.7;fontColor=#3a414a;align=center;spacing=0;strokeColor=#3a414a;strokeOpacity=100;rounded=1;absoluteArcSize=1;arcSize=9;strokeWidth=0.8;" parent="WIyWlLk6GJQsqaUBKTNV-1" vertex="1">
          <mxGeometry x="-2785" y="-3991.37" width="310" height="260" as="geometry" />
        </mxCell>
        <mxCell id="DSNB09O_sfzWhzwUKTrS-62" value="&lt;div style=&quot;display: flex; justify-content: center; align-items: baseline; line-height: 1.25; margin-top: -2px;&quot;&gt;- cartViewInstance : CartView&amp;nbsp;- CART_CONTROLLER : CartController&amp;nbsp;- ORDER_VIEW : OrderView&amp;nbsp;&lt;br&gt;&lt;/div&gt;" style="part=1;html=1;resizeHeight=0;strokeColor=none;fillColor=none;align=left;verticalAlign=middle;spacingLeft=4;spacingRight=4;overflow=hidden;rotatable=0;points=[[0,0.5],[1,0.5]];portConstraint=eastwest;swimlaneFillColor=#ffffff;strokeOpacity=100;whiteSpace=wrap;fontSize=13.1;fontStyle=6;" parent="7sSd0tKmP4TyFzPP-oEi-50" vertex="1">
          <mxGeometry y="25" width="310" height="105" as="geometry" />
        </mxCell>
        <mxCell id="7sSd0tKmP4TyFzPP-oEi-52" value="" style="line;strokeWidth=1;fillColor=none;align=left;verticalAlign=middle;spacingTop=-1;spacingLeft=3;spacingRight=3;rotatable=0;labelPosition=right;points=[];portConstraint=eastwest;" parent="7sSd0tKmP4TyFzPP-oEi-50" vertex="1">
          <mxGeometry y="130" width="310" height="8" as="geometry" />
        </mxCell>
        <mxCell id="DSNB09O_sfzWhzwUKTrS-64" value="&lt;div&gt;&lt;u&gt;+ getInstance() : CartController&lt;/u&gt;&lt;/div&gt;&lt;div&gt;&lt;span style=&quot;font-size: 13.3px;&quot;&gt;+ getUserCart(user : User) : Cart&lt;/span&gt;&lt;/div&gt;&lt;div&gt;&lt;span style=&quot;font-size: 13.3px;&quot;&gt;+ removeItemFromCart(product : Product , user : User ) : void&amp;nbsp;&lt;/span&gt;&lt;/div&gt;&lt;div&gt;&lt;span style=&quot;font-size: 13.3px;&quot;&gt;+ addToCart(product : Product , user : User ) : boolean&lt;/span&gt;&lt;/div&gt;" style="text;whiteSpace=wrap;html=1;" parent="7sSd0tKmP4TyFzPP-oEi-50" vertex="1">
          <mxGeometry y="138" width="310" height="122" as="geometry" />
        </mxCell>
        <mxCell id="7sSd0tKmP4TyFzPP-oEi-54" value="WishlistController" style="html=1;overflow=block;blockSpacing=1;swimlane;childLayout=stackLayout;horizontal=1;horizontalStack=0;resizeParent=1;resizeParentMax=0;resizeLast=0;collapsible=0;fontStyle=0;marginBottom=0;swimlaneFillColor=#ffffff;startSize=25;whiteSpace=wrap;fontSize=16.7;fontColor=#3a414a;align=center;spacing=0;strokeColor=#3a414a;strokeOpacity=100;rounded=1;absoluteArcSize=1;arcSize=9;strokeWidth=0.8;" parent="WIyWlLk6GJQsqaUBKTNV-1" vertex="1">
          <mxGeometry x="-2744.78" y="-3622.17" width="320" height="230" as="geometry" />
        </mxCell>
        <mxCell id="7sSd0tKmP4TyFzPP-oEi-55" value="&lt;div style=&quot;display: flex; justify-content: center; text-align: center; align-items: baseline; font-size: 0; line-height: 1.25;margin-top: -2px;&quot;&gt;&lt;span&gt;&lt;span style=&quot;font-size:13.1px;&quot;&gt;&lt;font color=&quot;#050505&quot;&gt;&lt;span style=&quot;font-size:13.1px;&quot;&gt;- &lt;/span&gt;&lt;span style=&quot;font-size:13.1px;font-style: italic;text-decoration: underline;&quot;&gt;wishlistControllerInstance&lt;/span&gt;&lt;span style=&quot;font-size:13.1px;text-decoration: underline;&quot;&gt; : WishlistController &lt;/span&gt;&lt;span style=&quot;font-size: 13.1px; text-decoration: underline;&quot;&gt;&lt;br&gt;&lt;/span&gt;&lt;span style=&quot;font-size:13.1px;text-decoration: underline;&quot;&gt;- &lt;/span&gt;&lt;span style=&quot;font-size:13.1px;font-style: italic;text-decoration: underline;&quot;&gt;WISHLIST_SERVICE : &lt;/span&gt;WishlistService&lt;/font&gt;&lt;/span&gt;&lt;/span&gt;&lt;/div&gt;" style="part=1;html=1;resizeHeight=0;strokeColor=none;fillColor=none;align=left;verticalAlign=middle;spacingLeft=4;spacingRight=4;overflow=hidden;rotatable=0;points=[[0,0.5],[1,0.5]];portConstraint=eastwest;swimlaneFillColor=#ffffff;strokeOpacity=100;whiteSpace=wrap;fontSize=13.1;fontColor=#bcbec4;fontStyle=6;" parent="7sSd0tKmP4TyFzPP-oEi-54" vertex="1">
          <mxGeometry y="25" width="320" height="65" as="geometry" />
        </mxCell>
        <mxCell id="7sSd0tKmP4TyFzPP-oEi-56" value="" style="line;strokeWidth=1;fillColor=none;align=left;verticalAlign=middle;spacingTop=-1;spacingLeft=3;spacingRight=3;rotatable=0;labelPosition=right;points=[];portConstraint=eastwest;" parent="7sSd0tKmP4TyFzPP-oEi-54" vertex="1">
          <mxGeometry y="90" width="320" height="10" as="geometry" />
        </mxCell>
        <mxCell id="7sSd0tKmP4TyFzPP-oEi-57" value="&lt;div style=&quot;display: flex; justify-content: center; align-items: baseline; line-height: 1.25; margin-top: -2px;&quot;&gt;&lt;span style=&quot;font-size: 13.1px;&quot;&gt;&lt;/span&gt;&lt;div style=&quot;border-color: var(--border-color);&quot;&gt;&lt;div style=&quot;border-color: var(--border-color);&quot;&gt;&lt;font style=&quot;font-size: 14px;&quot;&gt;+ getInstance() : WishlistController&amp;nbsp;&lt;/font&gt;&lt;/div&gt;&lt;div style=&quot;border-color: var(--border-color);&quot;&gt;&lt;font style=&quot;font-size: 14px;&quot;&gt;+ addToWishlist(item : Product) : void&lt;/font&gt;&lt;/div&gt;&lt;div style=&quot;border-color: var(--border-color);&quot;&gt;&lt;font style=&quot;font-size: 14px;&quot;&gt;+ removeItemFromWishlist(item : Product) : void&lt;/font&gt;&lt;/div&gt;&lt;div style=&quot;border-color: var(--border-color);&quot;&gt;&lt;font style=&quot;font-size: 14px;&quot;&gt;+ getUserWishlist() : List&amp;lt;Product&amp;gt;&amp;nbsp;&lt;/font&gt;&lt;/div&gt;&lt;/div&gt;&lt;/div&gt;" style="part=1;resizeHeight=0;strokeColor=none;fillColor=none;align=left;verticalAlign=middle;spacingLeft=4;spacingRight=4;rotatable=0;points=[[0,0.5],[1,0.5]];portConstraint=eastwest;swimlaneFillColor=#ffffff;strokeOpacity=100;whiteSpace=wrap;overflow=block;blockSpacing=1;html=1;fontSize=13;" parent="7sSd0tKmP4TyFzPP-oEi-54" vertex="1">
          <mxGeometry y="100" width="320" height="130" as="geometry" />
        </mxCell>
        <mxCell id="7sSd0tKmP4TyFzPP-oEi-58" value="OrderController" style="html=1;overflow=block;blockSpacing=1;swimlane;childLayout=stackLayout;horizontal=1;horizontalStack=0;resizeParent=1;resizeParentMax=0;resizeLast=0;collapsible=0;fontStyle=0;marginBottom=0;swimlaneFillColor=#ffffff;startSize=25;whiteSpace=wrap;fontSize=16.7;fontColor=#3a414a;align=center;spacing=0;strokeColor=#3a414a;strokeOpacity=100;rounded=1;absoluteArcSize=1;arcSize=9;strokeWidth=0.8;" parent="WIyWlLk6GJQsqaUBKTNV-1" vertex="1">
          <mxGeometry x="-2670" y="-3347.13" width="380" height="260" as="geometry" />
        </mxCell>
        <mxCell id="7sSd0tKmP4TyFzPP-oEi-59" value="&lt;div&gt;&lt;font style=&quot;font-size: 14px;&quot;&gt;&lt;u&gt;- ORDER_CONTROLLER : OrderController&amp;nbsp;&lt;/u&gt;&lt;/font&gt;&lt;/div&gt;&lt;div&gt;&lt;font size=&quot;3&quot;&gt;&lt;u&gt;- USER_CONTROLLER : UserController&amp;nbsp;&lt;/u&gt;&lt;/font&gt;&lt;/div&gt;&lt;div&gt;&lt;font size=&quot;3&quot;&gt;&lt;u&gt;- orderViewInstance : OrderView&amp;nbsp;&lt;/u&gt;&lt;/font&gt;&lt;/div&gt;&lt;div&gt;- scanner: Scanner&lt;font size=&quot;3&quot;&gt;&lt;br&gt;&lt;/font&gt;&lt;/div&gt;" style="part=1;html=1;resizeHeight=0;strokeColor=none;fillColor=none;align=left;verticalAlign=middle;spacingLeft=4;spacingRight=4;overflow=hidden;rotatable=0;points=[[0,0.5],[1,0.5]];portConstraint=eastwest;swimlaneFillColor=#ffffff;strokeOpacity=100;whiteSpace=wrap;fontSize=16.7;fontColor=#3a414a;" parent="7sSd0tKmP4TyFzPP-oEi-58" vertex="1">
          <mxGeometry y="25" width="380" height="92" as="geometry" />
        </mxCell>
        <mxCell id="7sSd0tKmP4TyFzPP-oEi-60" value="" style="line;strokeWidth=1;fillColor=none;align=left;verticalAlign=middle;spacingTop=-1;spacingLeft=3;spacingRight=3;rotatable=0;labelPosition=right;points=[];portConstraint=eastwest;" parent="7sSd0tKmP4TyFzPP-oEi-58" vertex="1">
          <mxGeometry y="117" width="380" height="8" as="geometry" />
        </mxCell>
        <mxCell id="7sSd0tKmP4TyFzPP-oEi-61" value="&lt;div style=&quot;border-color: var(--border-color);&quot;&gt;&lt;font style=&quot;border-color: var(--border-color); font-size: 14px;&quot;&gt;+ getInstance : OrderController&lt;/font&gt;&lt;/div&gt;&lt;div style=&quot;border-color: var(--border-color);&quot;&gt;+ cancelOrder(order: Order) : void&amp;nbsp;&lt;/div&gt;&lt;div style=&quot;border-color: var(--border-color);&quot;&gt;&lt;span style=&quot;border-color: var(--border-color); font-size: 14px;&quot;&gt;+ addOrder(userId : int, order: Order) : void&lt;/span&gt;&lt;/div&gt;&lt;div style=&quot;border-color: var(--border-color);&quot;&gt;&lt;span style=&quot;border-color: var(--border-color); font-size: 14px;&quot;&gt;+ getOrders(userId : int) : List&amp;lt;Order&amp;gt;&amp;nbsp;&lt;/span&gt;&lt;/div&gt;" style="part=1;html=1;resizeHeight=0;strokeColor=none;fillColor=none;align=left;verticalAlign=middle;spacingLeft=4;spacingRight=4;overflow=hidden;rotatable=0;points=[[0,0.5],[1,0.5]];portConstraint=eastwest;swimlaneFillColor=#ffffff;strokeOpacity=100;whiteSpace=wrap;fontSize=16.7;fontColor=#3a414a;" parent="7sSd0tKmP4TyFzPP-oEi-58" vertex="1">
          <mxGeometry y="125" width="380" height="135" as="geometry" />
        </mxCell>
        <mxCell id="7sSd0tKmP4TyFzPP-oEi-70" value="&amp;lt;&amp;lt;interface&amp;gt;&amp;gt;&lt;br&gt;UserService" style="html=1;overflow=block;blockSpacing=1;swimlane;childLayout=stackLayout;horizontal=1;horizontalStack=0;resizeParent=1;resizeParentMax=0;resizeLast=0;collapsible=0;fontStyle=0;marginBottom=0;swimlaneFillColor=#ffffff;startSize=40;whiteSpace=wrap;fontSize=16.7;align=center;spacing=0;strokeColor=#3a414a;strokeOpacity=100;rounded=1;absoluteArcSize=1;arcSize=9;strokeWidth=0.8;" parent="WIyWlLk6GJQsqaUBKTNV-1" vertex="1">
          <mxGeometry x="-2689.5" y="-4290" width="282.5" height="240" as="geometry" />
        </mxCell>
        <mxCell id="7sSd0tKmP4TyFzPP-oEi-72" value="" style="line;strokeWidth=1;fillColor=none;align=left;verticalAlign=middle;spacingTop=-1;spacingLeft=3;spacingRight=3;rotatable=0;labelPosition=right;points=[];portConstraint=eastwest;" parent="7sSd0tKmP4TyFzPP-oEi-70" vertex="1">
          <mxGeometry y="40" width="282.5" height="8" as="geometry" />
        </mxCell>
        <mxCell id="7sSd0tKmP4TyFzPP-oEi-73" value="&lt;div&gt;+ createNewUser(user : User) : boolean&lt;/div&gt;&lt;div&gt;+ getExistingUser(mobileNumber : String, password : String) :&amp;nbsp; User&lt;/div&gt;&lt;div&gt;&amp;nbsp;+ addAddress(user : User, address : String) :&amp;nbsp; void&lt;/div&gt;&lt;div&gt;+ getAddresses(user : User) : List&amp;lt;String&amp;gt;&amp;nbsp;&lt;/div&gt;&lt;div&gt;&lt;span style=&quot;background-color: initial;&quot;&gt;+ updateUser(user : User ) : void&amp;nbsp;&amp;nbsp;&lt;/span&gt;&lt;br&gt;&lt;/div&gt;" style="part=1;html=1;resizeHeight=0;strokeColor=none;fillColor=none;align=left;verticalAlign=middle;spacingLeft=4;spacingRight=4;overflow=hidden;rotatable=0;points=[[0,0.5],[1,0.5]];portConstraint=eastwest;swimlaneFillColor=#ffffff;strokeOpacity=100;whiteSpace=wrap;fontSize=16.7;" parent="7sSd0tKmP4TyFzPP-oEi-70" vertex="1">
          <mxGeometry y="48" width="282.5" height="192" as="geometry" />
        </mxCell>
        <mxCell id="7sSd0tKmP4TyFzPP-oEi-74" value="&amp;lt;&amp;lt;interface&amp;gt;&amp;gt;&lt;br&gt;CartService" style="html=1;overflow=block;blockSpacing=1;swimlane;childLayout=stackLayout;horizontal=1;horizontalStack=0;resizeParent=1;resizeParentMax=0;resizeLast=0;collapsible=0;fontStyle=0;marginBottom=0;swimlaneFillColor=#ffffff;startSize=44;whiteSpace=wrap;fontSize=16.7;align=center;spacing=0;strokeColor=#3a414a;strokeOpacity=100;rounded=1;absoluteArcSize=1;arcSize=9;strokeWidth=0.8;" parent="WIyWlLk6GJQsqaUBKTNV-1" vertex="1">
          <mxGeometry x="-2386.75" y="-3969.87" width="293.75" height="190" as="geometry" />
        </mxCell>
        <mxCell id="7sSd0tKmP4TyFzPP-oEi-76" value="" style="line;strokeWidth=1;fillColor=none;align=left;verticalAlign=middle;spacingTop=-1;spacingLeft=3;spacingRight=3;rotatable=0;labelPosition=right;points=[];portConstraint=eastwest;" parent="7sSd0tKmP4TyFzPP-oEi-74" vertex="1">
          <mxGeometry y="44" width="293.75" height="8" as="geometry" />
        </mxCell>
        <mxCell id="7sSd0tKmP4TyFzPP-oEi-77" value="&lt;div&gt;&lt;br&gt;&lt;/div&gt;&lt;div&gt;+ getUserCart(user : User) : Cart&lt;/div&gt;&lt;div&gt;+ removeItemFromCart(product : Product , user : User ) : void&amp;nbsp;&lt;/div&gt;&lt;div&gt;+ addToCart(product : Product , user : User ) : boolean&amp;nbsp;&lt;/div&gt;" style="part=1;html=1;resizeHeight=0;strokeColor=none;fillColor=none;align=left;verticalAlign=middle;spacingLeft=4;spacingRight=4;overflow=hidden;rotatable=0;points=[[0,0.5],[1,0.5]];portConstraint=eastwest;swimlaneFillColor=#ffffff;strokeOpacity=100;whiteSpace=wrap;fontSize=16.7;" parent="7sSd0tKmP4TyFzPP-oEi-74" vertex="1">
          <mxGeometry y="52" width="293.75" height="138" as="geometry" />
        </mxCell>
        <mxCell id="7sSd0tKmP4TyFzPP-oEi-78" value="&amp;lt;&amp;lt;interface&amp;gt;&amp;gt;&lt;br&gt;WishlistService" style="html=1;overflow=block;blockSpacing=1;swimlane;childLayout=stackLayout;horizontal=1;horizontalStack=0;resizeParent=1;resizeParentMax=0;resizeLast=0;collapsible=0;fontStyle=0;marginBottom=0;swimlaneFillColor=#ffffff;startSize=50;whiteSpace=wrap;fontSize=16.7;align=center;spacing=0;strokeColor=#3a414a;strokeOpacity=100;rounded=1;absoluteArcSize=1;arcSize=9;strokeWidth=0.8;" parent="WIyWlLk6GJQsqaUBKTNV-1" vertex="1">
          <mxGeometry x="-2260" y="-3630" width="277.5" height="160.25" as="geometry" />
        </mxCell>
        <mxCell id="7sSd0tKmP4TyFzPP-oEi-80" value="" style="line;strokeWidth=1;fillColor=none;align=left;verticalAlign=middle;spacingTop=-1;spacingLeft=3;spacingRight=3;rotatable=0;labelPosition=right;points=[];portConstraint=eastwest;" parent="7sSd0tKmP4TyFzPP-oEi-78" vertex="1">
          <mxGeometry y="50" width="277.5" height="8" as="geometry" />
        </mxCell>
        <mxCell id="7sSd0tKmP4TyFzPP-oEi-81" value="&lt;div style=&quot;border-color: var(--border-color);&quot;&gt;&lt;font style=&quot;border-color: var(--border-color); font-size: 14px;&quot;&gt;+ addToWishlist(item : Product) : void&lt;/font&gt;&lt;/div&gt;&lt;div style=&quot;border-color: var(--border-color);&quot;&gt;&lt;font style=&quot;border-color: var(--border-color); font-size: 14px;&quot;&gt;+ removeItemFromWishlist(item : Product) : void&lt;/font&gt;&lt;/div&gt;&lt;div style=&quot;border-color: var(--border-color);&quot;&gt;&lt;font style=&quot;border-color: var(--border-color); font-size: 14px;&quot;&gt;+ getUserWishlist() : List&amp;lt;Product&amp;gt;&amp;nbsp;&lt;/font&gt;&lt;/div&gt;" style="part=1;html=1;resizeHeight=0;strokeColor=none;fillColor=none;align=left;verticalAlign=middle;spacingLeft=4;spacingRight=4;overflow=hidden;rotatable=0;points=[[0,0.5],[1,0.5]];portConstraint=eastwest;swimlaneFillColor=#ffffff;strokeOpacity=100;whiteSpace=wrap;fontSize=16.7;" parent="7sSd0tKmP4TyFzPP-oEi-78" vertex="1">
          <mxGeometry y="58" width="277.5" height="102.25" as="geometry" />
        </mxCell>
        <mxCell id="7sSd0tKmP4TyFzPP-oEi-82" value="&amp;lt;&amp;lt;interface&amp;gt;&amp;gt;&lt;br&gt;OrderService" style="html=1;overflow=block;blockSpacing=1;swimlane;childLayout=stackLayout;horizontal=1;horizontalStack=0;resizeParent=1;resizeParentMax=0;resizeLast=0;collapsible=0;fontStyle=0;marginBottom=0;swimlaneFillColor=#ffffff;startSize=50;whiteSpace=wrap;fontSize=16.7;align=center;spacing=0;strokeColor=#3a414a;strokeOpacity=100;rounded=1;absoluteArcSize=1;arcSize=9;strokeWidth=0.8;" parent="WIyWlLk6GJQsqaUBKTNV-1" vertex="1">
          <mxGeometry x="-2202" y="-3360" width="270" height="170" as="geometry" />
        </mxCell>
        <mxCell id="7sSd0tKmP4TyFzPP-oEi-84" value="" style="line;strokeWidth=1;fillColor=none;align=left;verticalAlign=middle;spacingTop=-1;spacingLeft=3;spacingRight=3;rotatable=0;labelPosition=right;points=[];portConstraint=eastwest;" parent="7sSd0tKmP4TyFzPP-oEi-82" vertex="1">
          <mxGeometry y="50" width="270" height="8" as="geometry" />
        </mxCell>
        <mxCell id="DSNB09O_sfzWhzwUKTrS-80" value="&lt;div&gt;&lt;br&gt;&lt;/div&gt;&lt;div&gt;&lt;span style=&quot;font-size: 14px;&quot;&gt;+ cancelOrder(order: Order) : void&amp;nbsp;&lt;/span&gt;&lt;/div&gt;&lt;div&gt;&lt;span style=&quot;font-size: 14px;&quot;&gt;+ addOrder(userId : int, order: Order) : void&lt;/span&gt;&lt;/div&gt;&lt;div&gt;&lt;span style=&quot;font-size: 14px;&quot;&gt;+ getOrders(userId : int) : List&amp;lt;Order&amp;gt;&amp;nbsp;&lt;/span&gt;&lt;/div&gt;" style="part=1;html=1;resizeHeight=0;strokeColor=none;fillColor=none;align=left;verticalAlign=middle;spacingLeft=4;spacingRight=4;overflow=hidden;rotatable=0;points=[[0,0.5],[1,0.5]];portConstraint=eastwest;swimlaneFillColor=#ffffff;strokeOpacity=100;whiteSpace=wrap;fontSize=16.7;fontColor=#3a414a;" parent="7sSd0tKmP4TyFzPP-oEi-82" vertex="1">
          <mxGeometry y="58" width="270" height="112" as="geometry" />
        </mxCell>
        <mxCell id="7sSd0tKmP4TyFzPP-oEi-90" value="UserServiceImpl" style="html=1;overflow=block;blockSpacing=1;swimlane;childLayout=stackLayout;horizontal=1;horizontalStack=0;resizeParent=1;resizeParentMax=0;resizeLast=0;collapsible=0;fontStyle=0;marginBottom=0;swimlaneFillColor=#ffffff;startSize=25;whiteSpace=wrap;fontSize=16.7;align=center;spacing=0;strokeColor=#3a414a;strokeOpacity=100;rounded=1;absoluteArcSize=1;arcSize=9;strokeWidth=0.8;" parent="WIyWlLk6GJQsqaUBKTNV-1" vertex="1">
          <mxGeometry x="-2270" y="-4290" width="330" height="270" as="geometry" />
        </mxCell>
        <mxCell id="7sSd0tKmP4TyFzPP-oEi-91" value="&lt;div style=&quot;display: flex; justify-content: center; align-items: baseline; font-size: 0px; line-height: 1.25; margin-top: -2px;&quot;&gt;&lt;span&gt;&lt;span style=&quot;font-size:16.7px;&quot;&gt;- &lt;/span&gt;&lt;span style=&quot;font-size:13.1px;font-style: italic;text-decoration: underline;&quot;&gt;userServiceInstance :&lt;/span&gt;&lt;span style=&quot;font-size:13.1px;text-decoration: underline;&quot;&gt; UserServiceImpl &lt;br&gt;&lt;/span&gt;&lt;span style=&quot;font-size:13.1px;&quot;&gt;- &lt;/span&gt;&lt;span style=&quot;font-size:13.1px;text-decoration: underline;&quot;&gt;USERS : &lt;/span&gt;&lt;span style=&quot;font-size:13.1px;text-decoration: underline;&quot;&gt;Map&amp;lt;String, User&amp;gt;&lt;/span&gt;&lt;/span&gt;&lt;/div&gt;" style="part=1;html=1;resizeHeight=0;strokeColor=none;fillColor=none;align=left;verticalAlign=middle;spacingLeft=4;spacingRight=4;overflow=hidden;rotatable=0;points=[[0,0.5],[1,0.5]];portConstraint=eastwest;swimlaneFillColor=#ffffff;strokeOpacity=100;whiteSpace=wrap;fontSize=16.7;fontStyle=6;" parent="7sSd0tKmP4TyFzPP-oEi-90" vertex="1">
          <mxGeometry y="25" width="330" height="75" as="geometry" />
        </mxCell>
        <mxCell id="7sSd0tKmP4TyFzPP-oEi-92" value="" style="line;strokeWidth=1;fillColor=none;align=left;verticalAlign=middle;spacingTop=-1;spacingLeft=3;spacingRight=3;rotatable=0;labelPosition=right;points=[];portConstraint=eastwest;" parent="7sSd0tKmP4TyFzPP-oEi-90" vertex="1">
          <mxGeometry y="100" width="330" height="8" as="geometry" />
        </mxCell>
        <mxCell id="DSNB09O_sfzWhzwUKTrS-58" value="&lt;div&gt;+ createNewUser(user : User) : boolean&lt;/div&gt;&lt;div&gt;+ getExistingUser(mobileNumber : String, password : String) :&amp;nbsp; User&lt;/div&gt;&lt;div&gt;&amp;nbsp;+ addAddress(user : User, address : String) :&amp;nbsp; void&lt;/div&gt;&lt;div&gt;+ getAddresses(user : User) : List&amp;lt;String&amp;gt;&amp;nbsp;&lt;/div&gt;&lt;div&gt;&lt;span style=&quot;background-color: initial;&quot;&gt;+ updateUser(user : User ) : void&amp;nbsp;&amp;nbsp;&lt;/span&gt;&lt;br&gt;&lt;/div&gt;" style="part=1;html=1;resizeHeight=0;strokeColor=none;fillColor=none;align=left;verticalAlign=middle;spacingLeft=4;spacingRight=4;overflow=hidden;rotatable=0;points=[[0,0.5],[1,0.5]];portConstraint=eastwest;swimlaneFillColor=#ffffff;strokeOpacity=100;whiteSpace=wrap;fontSize=16.7;" parent="7sSd0tKmP4TyFzPP-oEi-90" vertex="1">
          <mxGeometry y="108" width="330" height="162" as="geometry" />
        </mxCell>
        <mxCell id="7sSd0tKmP4TyFzPP-oEi-94" value="CartServiceImpl" style="html=1;overflow=block;blockSpacing=1;swimlane;childLayout=stackLayout;horizontal=1;horizontalStack=0;resizeParent=1;resizeParentMax=0;resizeLast=0;collapsible=0;fontStyle=0;marginBottom=0;swimlaneFillColor=#ffffff;startSize=25;whiteSpace=wrap;fontSize=16.7;align=center;spacing=0;strokeColor=#3a414a;strokeOpacity=100;rounded=1;absoluteArcSize=1;arcSize=9;strokeWidth=0.8;" parent="WIyWlLk6GJQsqaUBKTNV-1" vertex="1">
          <mxGeometry x="-2010" y="-3962.62" width="285" height="240" as="geometry" />
        </mxCell>
        <mxCell id="7sSd0tKmP4TyFzPP-oEi-95" value="&lt;div style=&quot;display: flex; justify-content: center; align-items: baseline; font-size: 0px; line-height: 1.25; margin-top: -2px;&quot;&gt;&lt;span&gt;&lt;span style=&quot;font-size:16.7px;&quot;&gt;- &lt;/span&gt;&lt;span style=&quot;font-size:13.1px;font-style: italic;text-decoration: underline;&quot;&gt;cartServiceInstance :&lt;/span&gt;&lt;span style=&quot;font-size:13.1px;text-decoration: underline;&quot;&gt; CartServiceImpl &lt;br&gt;&lt;/span&gt;&lt;span style=&quot;font-size:13.1px;&quot;&gt;- &lt;/span&gt;&lt;span style=&quot;font-size:13.1px;text-decoration: underline;&quot;&gt;CARTS : &lt;/span&gt;&lt;span style=&quot;font-size:13.1px;text-decoration: underline;&quot;&gt;Map&amp;lt;Integer, Cart&amp;gt;&lt;/span&gt;&lt;/span&gt;&lt;/div&gt;" style="part=1;html=1;resizeHeight=0;strokeColor=none;fillColor=none;align=left;verticalAlign=middle;spacingLeft=4;spacingRight=4;overflow=hidden;rotatable=0;points=[[0,0.5],[1,0.5]];portConstraint=eastwest;swimlaneFillColor=#ffffff;strokeOpacity=100;whiteSpace=wrap;fontSize=16.7;fontStyle=6;" parent="7sSd0tKmP4TyFzPP-oEi-94" vertex="1">
          <mxGeometry y="25" width="285" height="65" as="geometry" />
        </mxCell>
        <mxCell id="7sSd0tKmP4TyFzPP-oEi-96" value="" style="line;strokeWidth=1;fillColor=none;align=left;verticalAlign=middle;spacingTop=-1;spacingLeft=3;spacingRight=3;rotatable=0;labelPosition=right;points=[];portConstraint=eastwest;" parent="7sSd0tKmP4TyFzPP-oEi-94" vertex="1">
          <mxGeometry y="90" width="285" height="8" as="geometry" />
        </mxCell>
        <mxCell id="DSNB09O_sfzWhzwUKTrS-65" value="&lt;div style=&quot;border-color: var(--border-color); color: rgb(0, 0, 0); font-family: Helvetica; font-size: 17px; font-style: normal; font-variant-ligatures: normal; font-variant-caps: normal; font-weight: 400; letter-spacing: normal; orphans: 2; text-align: left; text-indent: 0px; text-transform: none; widows: 2; word-spacing: 0px; -webkit-text-stroke-width: 0px; background-color: rgb(251, 251, 251); text-decoration-thickness: initial; text-decoration-style: initial; text-decoration-color: initial;&quot;&gt;&lt;br class=&quot;Apple-interchange-newline&quot;&gt;+ getUserCart(user : User) : Cart&lt;/div&gt;&lt;div style=&quot;border-color: var(--border-color); color: rgb(0, 0, 0); font-family: Helvetica; font-size: 17px; font-style: normal; font-variant-ligatures: normal; font-variant-caps: normal; font-weight: 400; letter-spacing: normal; orphans: 2; text-align: left; text-indent: 0px; text-transform: none; widows: 2; word-spacing: 0px; -webkit-text-stroke-width: 0px; background-color: rgb(251, 251, 251); text-decoration-thickness: initial; text-decoration-style: initial; text-decoration-color: initial;&quot;&gt;+ removeItemFromCart(product : Product , user : User ) : void&amp;nbsp;&lt;/div&gt;&lt;div style=&quot;border-color: var(--border-color); color: rgb(0, 0, 0); font-family: Helvetica; font-size: 17px; font-style: normal; font-variant-ligatures: normal; font-variant-caps: normal; font-weight: 400; letter-spacing: normal; orphans: 2; text-align: left; text-indent: 0px; text-transform: none; widows: 2; word-spacing: 0px; -webkit-text-stroke-width: 0px; background-color: rgb(251, 251, 251); text-decoration-thickness: initial; text-decoration-style: initial; text-decoration-color: initial;&quot;&gt;+ addToCart(product : Product , user : User ) : boolean&amp;nbsp;&lt;/div&gt;" style="text;whiteSpace=wrap;html=1;shadow=1;" parent="7sSd0tKmP4TyFzPP-oEi-94" vertex="1">
          <mxGeometry y="98" width="285" height="142" as="geometry" />
        </mxCell>
        <mxCell id="7sSd0tKmP4TyFzPP-oEi-98" value="WishlistServiceImpl" style="html=1;overflow=block;blockSpacing=1;swimlane;childLayout=stackLayout;horizontal=1;horizontalStack=0;resizeParent=1;resizeParentMax=0;resizeLast=0;collapsible=0;fontStyle=0;marginBottom=0;swimlaneFillColor=#ffffff;startSize=25;whiteSpace=wrap;fontSize=16.7;align=center;spacing=0;strokeColor=#3a414a;strokeOpacity=100;rounded=1;absoluteArcSize=1;arcSize=9;strokeWidth=0.8;" parent="WIyWlLk6GJQsqaUBKTNV-1" vertex="1">
          <mxGeometry x="-1880.83" y="-3659.35" width="345" height="212.25" as="geometry" />
        </mxCell>
        <mxCell id="7sSd0tKmP4TyFzPP-oEi-99" value="&lt;div style=&quot;display: flex; justify-content: center; align-items: baseline; font-size: 0px; line-height: 1.25; margin-top: -2px;&quot;&gt;&lt;span&gt;&lt;span style=&quot;font-size:16.7px;&quot;&gt;- &lt;/span&gt;&lt;span style=&quot;font-size:13.1px;font-style: italic;text-decoration: underline;&quot;&gt;wishlistServiceInstance :&lt;/span&gt;&lt;span style=&quot;font-size:13.1px;text-decoration: underline;&quot;&gt; WishlistServiceImpl &lt;br&gt;&lt;/span&gt;&lt;span style=&quot;font-size:13.1px;&quot;&gt;- &lt;/span&gt;&lt;span style=&quot;font-size:13.1px;text-decoration: underline;&quot;&gt;WISHLISTS : &lt;/span&gt;&lt;span style=&quot;font-size:13.1px;text-decoration: underline;&quot;&gt;Map&amp;lt;Integer, Wishlist&amp;gt;&lt;/span&gt;&lt;/span&gt;&lt;/div&gt;" style="part=1;html=1;resizeHeight=0;strokeColor=none;fillColor=none;align=left;verticalAlign=middle;spacingLeft=4;spacingRight=4;overflow=hidden;rotatable=0;points=[[0,0.5],[1,0.5]];portConstraint=eastwest;swimlaneFillColor=#ffffff;strokeOpacity=100;whiteSpace=wrap;fontSize=16.7;fontStyle=6;" parent="7sSd0tKmP4TyFzPP-oEi-98" vertex="1">
          <mxGeometry y="25" width="345" height="77" as="geometry" />
        </mxCell>
        <mxCell id="7sSd0tKmP4TyFzPP-oEi-100" value="" style="line;strokeWidth=1;fillColor=none;align=left;verticalAlign=middle;spacingTop=-1;spacingLeft=3;spacingRight=3;rotatable=0;labelPosition=right;points=[];portConstraint=eastwest;" parent="7sSd0tKmP4TyFzPP-oEi-98" vertex="1">
          <mxGeometry y="102" width="345" height="8" as="geometry" />
        </mxCell>
        <mxCell id="DSNB09O_sfzWhzwUKTrS-72" value="&lt;div style=&quot;border-color: var(--border-color);&quot;&gt;&lt;div style=&quot;border-color: var(--border-color);&quot;&gt;&lt;font style=&quot;font-size: 14px;&quot;&gt;&lt;u&gt;+ getInstance() : WishlistServiceImpl&lt;/u&gt;&lt;/font&gt;&lt;/div&gt;&lt;div style=&quot;border-color: var(--border-color);&quot;&gt;&lt;font style=&quot;font-size: 14px;&quot;&gt;+ addToWishlist(item : Product) : void&lt;/font&gt;&lt;/div&gt;&lt;div style=&quot;border-color: var(--border-color);&quot;&gt;&lt;font style=&quot;font-size: 14px;&quot;&gt;+ removeItemFromWishlist(item : Product) : void&lt;/font&gt;&lt;/div&gt;&lt;div style=&quot;border-color: var(--border-color);&quot;&gt;&lt;font style=&quot;font-size: 14px;&quot;&gt;+ getUserWishlist() : List&amp;lt;Product&amp;gt;&amp;nbsp;&lt;/font&gt;&lt;/div&gt;&lt;/div&gt;" style="part=1;html=1;resizeHeight=0;strokeColor=none;fillColor=none;align=left;verticalAlign=middle;spacingLeft=4;spacingRight=4;overflow=hidden;rotatable=0;points=[[0,0.5],[1,0.5]];portConstraint=eastwest;swimlaneFillColor=#ffffff;strokeOpacity=100;whiteSpace=wrap;fontSize=16.7;" parent="7sSd0tKmP4TyFzPP-oEi-98" vertex="1">
          <mxGeometry y="110" width="345" height="102.25" as="geometry" />
        </mxCell>
        <mxCell id="7sSd0tKmP4TyFzPP-oEi-102" value="OrderServiceImpl" style="html=1;overflow=block;blockSpacing=1;swimlane;childLayout=stackLayout;horizontal=1;horizontalStack=0;resizeParent=1;resizeParentMax=0;resizeLast=0;collapsible=0;fontStyle=0;marginBottom=0;swimlaneFillColor=#ffffff;startSize=25;whiteSpace=wrap;fontSize=16.7;align=center;spacing=0;strokeColor=#3a414a;strokeOpacity=100;rounded=1;absoluteArcSize=1;arcSize=9;strokeWidth=0.8;" parent="WIyWlLk6GJQsqaUBKTNV-1" vertex="1">
          <mxGeometry x="-1820" y="-3380" width="290" height="250" as="geometry" />
        </mxCell>
        <mxCell id="7sSd0tKmP4TyFzPP-oEi-103" value="&lt;div style=&quot;display: flex; justify-content: center; align-items: baseline; font-size: 0px; line-height: 1.25; margin-top: -2px;&quot;&gt;&lt;span&gt;&lt;span style=&quot;font-size:16.7px;&quot;&gt;- &lt;/span&gt;&lt;span style=&quot;font-size:13.1px;font-style: italic;text-decoration: underline;&quot;&gt;orderServiceInstance :&lt;/span&gt;&lt;span style=&quot;font-size:13.1px;text-decoration: underline;&quot;&gt; &lt;/span&gt;&lt;span style=&quot;font-size:13.1px;font-style: italic;text-decoration: underline;&quot;&gt;Order&lt;/span&gt;&lt;span style=&quot;font-size:13.1px;text-decoration: underline;&quot;&gt;ServiceImpl &lt;br&gt;&lt;/span&gt;&lt;span style=&quot;font-size:13.1px;&quot;&gt;- &lt;/span&gt;&lt;span style=&quot;font-size:13.1px;text-decoration: underline;&quot;&gt;ORDERS : &lt;/span&gt;&lt;span style=&quot;font-size:13.1px;text-decoration: underline;&quot;&gt;Map&amp;lt;Integer, Order&amp;gt;&lt;/span&gt;&lt;/span&gt;&lt;/div&gt;" style="part=1;html=1;resizeHeight=0;strokeColor=none;fillColor=none;align=left;verticalAlign=middle;spacingLeft=4;spacingRight=4;overflow=hidden;rotatable=0;points=[[0,0.5],[1,0.5]];portConstraint=eastwest;swimlaneFillColor=#ffffff;strokeOpacity=100;whiteSpace=wrap;fontSize=16.7;fontStyle=6;" parent="7sSd0tKmP4TyFzPP-oEi-102" vertex="1">
          <mxGeometry y="25" width="290" height="82" as="geometry" />
        </mxCell>
        <mxCell id="7sSd0tKmP4TyFzPP-oEi-104" value="" style="line;strokeWidth=1;fillColor=none;align=left;verticalAlign=middle;spacingTop=-1;spacingLeft=3;spacingRight=3;rotatable=0;labelPosition=right;points=[];portConstraint=eastwest;" parent="7sSd0tKmP4TyFzPP-oEi-102" vertex="1">
          <mxGeometry y="107" width="290" height="8" as="geometry" />
        </mxCell>
        <mxCell id="DSNB09O_sfzWhzwUKTrS-81" value="&lt;div style=&quot;border-color: var(--border-color);&quot;&gt;&lt;font style=&quot;border-color: var(--border-color); font-size: 14px;&quot;&gt;+ getInstance : OrderServiceImpl&lt;/font&gt;&lt;/div&gt;&lt;div style=&quot;border-color: var(--border-color);&quot;&gt;+ cancelOrder(order: Order) : void&amp;nbsp;&lt;/div&gt;&lt;div style=&quot;border-color: var(--border-color);&quot;&gt;&lt;span style=&quot;border-color: var(--border-color); font-size: 14px;&quot;&gt;+ addOrder(userId : int, order: Order) : void&lt;/span&gt;&lt;/div&gt;&lt;div style=&quot;border-color: var(--border-color);&quot;&gt;&lt;span style=&quot;border-color: var(--border-color); font-size: 14px;&quot;&gt;+ getOrders(userId : int) : List&amp;lt;Order&amp;gt;&amp;nbsp;&lt;/span&gt;&lt;/div&gt;" style="part=1;html=1;resizeHeight=0;strokeColor=none;fillColor=none;align=left;verticalAlign=middle;spacingLeft=4;spacingRight=4;overflow=hidden;rotatable=0;points=[[0,0.5],[1,0.5]];portConstraint=eastwest;swimlaneFillColor=#ffffff;strokeOpacity=100;whiteSpace=wrap;fontSize=16.7;fontColor=#3a414a;" parent="7sSd0tKmP4TyFzPP-oEi-102" vertex="1">
          <mxGeometry y="115" width="290" height="135" as="geometry" />
        </mxCell>
        <mxCell id="7sSd0tKmP4TyFzPP-oEi-110" value="UserDataValidator" style="html=1;overflow=block;blockSpacing=1;swimlane;childLayout=stackLayout;horizontal=1;horizontalStack=0;resizeParent=1;resizeParentMax=0;resizeLast=0;collapsible=0;fontStyle=0;marginBottom=0;swimlaneFillColor=#ffffff;startSize=25;whiteSpace=wrap;fontSize=16.7;align=center;spacing=0;strokeColor=#3a414a;strokeOpacity=100;rounded=1;absoluteArcSize=1;arcSize=9;strokeWidth=0.8;" parent="WIyWlLk6GJQsqaUBKTNV-1" vertex="1">
          <mxGeometry x="-4210" y="-4500" width="413" height="243.25" as="geometry" />
        </mxCell>
        <mxCell id="7sSd0tKmP4TyFzPP-oEi-111" value="&lt;div style=&quot;display: flex; justify-content: center; align-items: baseline; font-size: 0px; line-height: 1.25; margin-top: -2px;&quot;&gt;&lt;span&gt;&lt;span style=&quot;font-size:13.1px;&quot;&gt;&lt;span style=&quot;font-size:13.1px;&quot;&gt;- &lt;/span&gt;&lt;span style=&quot;font-size:13.1px;font-style: italic;text-decoration: underline;&quot;&gt;userDataValidatorInstance&lt;/span&gt; : UserDataValidator&lt;/span&gt;&lt;/span&gt;&lt;/div&gt;" style="part=1;html=1;resizeHeight=0;strokeColor=none;fillColor=none;align=left;verticalAlign=middle;spacingLeft=4;spacingRight=4;overflow=hidden;rotatable=0;points=[[0,0.5],[1,0.5]];portConstraint=eastwest;swimlaneFillColor=#ffffff;strokeOpacity=100;whiteSpace=wrap;fontSize=13.1;fontStyle=6;" parent="7sSd0tKmP4TyFzPP-oEi-110" vertex="1">
          <mxGeometry y="25" width="413" height="55" as="geometry" />
        </mxCell>
        <mxCell id="7sSd0tKmP4TyFzPP-oEi-112" value="" style="line;strokeWidth=1;fillColor=none;align=left;verticalAlign=middle;spacingTop=-1;spacingLeft=3;spacingRight=3;rotatable=0;labelPosition=right;points=[];portConstraint=eastwest;" parent="7sSd0tKmP4TyFzPP-oEi-110" vertex="1">
          <mxGeometry y="80" width="413" height="8" as="geometry" />
        </mxCell>
        <mxCell id="7sSd0tKmP4TyFzPP-oEi-113" value="&lt;div style=&quot;display: flex; justify-content: center; align-items: baseline; font-size: 0px; line-height: 1.25; margin-top: -2px;&quot;&gt;&lt;span&gt;&lt;span style=&quot;font-size:13.1px;&quot;&gt;&lt;span style=&quot;font-size:13.1px;&quot;&gt;+ &lt;/span&gt;&lt;span style=&quot;font-size:13.1px;text-decoration: underline;&quot;&gt;getInstance() : UserDataValidator &lt;br&gt;&lt;/span&gt;+ isValidName(name : String ) : boolean &lt;br&gt;+ isValidMobileNumber(mobileNumber : String , choice : String ) : boolean &lt;br&gt;+ isValidPassword(password : String ) : boolean &lt;br&gt;+ isValidEmail(emailId : String ) : boolean &lt;br&gt;+ isValidMobileNumber(mobileNumber : String , choice : String ) : boolean &lt;/span&gt;&lt;/span&gt;&lt;/div&gt;" style="part=1;resizeHeight=0;strokeColor=none;fillColor=none;align=left;verticalAlign=middle;spacingLeft=4;spacingRight=4;rotatable=0;points=[[0,0.5],[1,0.5]];portConstraint=eastwest;swimlaneFillColor=#ffffff;strokeOpacity=100;whiteSpace=wrap;overflow=block;blockSpacing=1;html=1;fontSize=13;" parent="7sSd0tKmP4TyFzPP-oEi-110" vertex="1">
          <mxGeometry y="88" width="413" height="155.25" as="geometry" />
        </mxCell>
        <mxCell id="7sSd0tKmP4TyFzPP-oEi-114" value="FilterMenuView" style="html=1;overflow=block;blockSpacing=1;swimlane;childLayout=stackLayout;horizontal=1;horizontalStack=0;resizeParent=1;resizeParentMax=0;resizeLast=0;collapsible=0;fontStyle=0;marginBottom=0;swimlaneFillColor=#ffffff;startSize=25;whiteSpace=wrap;fontSize=16.7;align=center;spacing=0;strokeColor=#3a414a;strokeOpacity=100;rounded=1;absoluteArcSize=1;arcSize=9;strokeWidth=0.8;" parent="WIyWlLk6GJQsqaUBKTNV-1" vertex="1">
          <mxGeometry x="-3457.5" y="-2862" width="420" height="282" as="geometry" />
        </mxCell>
        <mxCell id="7sSd0tKmP4TyFzPP-oEi-115" value="&#xa;&lt;span data-lucid-content=&quot;{&amp;quot;t&amp;quot;:&amp;quot;- SCANNER : Scanner \n- CART_VIEW : CartView \n- WISHLIST_VIEW : WishlistView \n- filterMenuViewInstance : FilterMenuView&amp;quot;,&amp;quot;m&amp;quot;:[{&amp;quot;s&amp;quot;:0,&amp;quot;n&amp;quot;:&amp;quot;s&amp;quot;,&amp;quot;v&amp;quot;:17.422266666666665,&amp;quot;e&amp;quot;:118},{&amp;quot;s&amp;quot;:2,&amp;quot;n&amp;quot;:&amp;quot;i&amp;quot;,&amp;quot;v&amp;quot;:true,&amp;quot;e&amp;quot;:12},{&amp;quot;s&amp;quot;:20,&amp;quot;n&amp;quot;:&amp;quot;i&amp;quot;,&amp;quot;v&amp;quot;:true,&amp;quot;e&amp;quot;:21},{&amp;quot;s&amp;quot;:23,&amp;quot;n&amp;quot;:&amp;quot;i&amp;quot;,&amp;quot;v&amp;quot;:true,&amp;quot;e&amp;quot;:35},{&amp;quot;s&amp;quot;:44,&amp;quot;n&amp;quot;:&amp;quot;i&amp;quot;,&amp;quot;v&amp;quot;:true,&amp;quot;e&amp;quot;:45},{&amp;quot;s&amp;quot;:47,&amp;quot;n&amp;quot;:&amp;quot;i&amp;quot;,&amp;quot;v&amp;quot;:true,&amp;quot;e&amp;quot;:63},{&amp;quot;s&amp;quot;:76,&amp;quot;n&amp;quot;:&amp;quot;i&amp;quot;,&amp;quot;v&amp;quot;:true,&amp;quot;e&amp;quot;:77},{&amp;quot;s&amp;quot;:79,&amp;quot;n&amp;quot;:&amp;quot;i&amp;quot;,&amp;quot;v&amp;quot;:true,&amp;quot;e&amp;quot;:104},{&amp;quot;s&amp;quot;:2,&amp;quot;n&amp;quot;:&amp;quot;u&amp;quot;,&amp;quot;v&amp;quot;:true,&amp;quot;e&amp;quot;:19},{&amp;quot;s&amp;quot;:23,&amp;quot;n&amp;quot;:&amp;quot;u&amp;quot;,&amp;quot;v&amp;quot;:true,&amp;quot;e&amp;quot;:43},{&amp;quot;s&amp;quot;:47,&amp;quot;n&amp;quot;:&amp;quot;u&amp;quot;,&amp;quot;v&amp;quot;:true,&amp;quot;e&amp;quot;:76},{&amp;quot;s&amp;quot;:79,&amp;quot;n&amp;quot;:&amp;quot;u&amp;quot;,&amp;quot;v&amp;quot;:true,&amp;quot;e&amp;quot;:118}]}&quot; data-lucid-type=&quot;application/vnd.lucid.text&quot;&gt;&lt;span style=&quot;font-size:13.066699999999999px;&quot;&gt;- &lt;/span&gt;&lt;span style=&quot;font-style:italic;text-decoration:underline;font-size:13.066699999999999px;&quot;&gt;SCANNER : &lt;/span&gt;&lt;span style=&quot;text-decoration:underline;font-size:13.066699999999999px;&quot;&gt;Scanner&lt;/span&gt;&lt;span style=&quot;font-size:13.066699999999999px;&quot;&gt; &lt;/span&gt;&lt;span style=&quot;font-style:italic;font-size:13.066699999999999px;&quot;&gt;&lt;br&gt;&lt;/span&gt;&lt;span style=&quot;font-size:13.066699999999999px;&quot;&gt;- &lt;/span&gt;&lt;span style=&quot;font-style:italic;text-decoration:underline;font-size:13.066699999999999px;&quot;&gt;CART_VIEW : &lt;/span&gt;&lt;span style=&quot;text-decoration:underline;font-size:13.066699999999999px;&quot;&gt;CartView&lt;/span&gt;&lt;span style=&quot;font-size:13.066699999999999px;&quot;&gt; &lt;/span&gt;&lt;span style=&quot;font-style:italic;font-size:13.066699999999999px;&quot;&gt;&lt;br&gt;&lt;/span&gt;&lt;span style=&quot;font-size:13.066699999999999px;&quot;&gt;- &lt;/span&gt;&lt;span style=&quot;font-style:italic;text-decoration:underline;font-size:13.066699999999999px;&quot;&gt;WISHLIST_VIEW : &lt;/span&gt;&lt;span style=&quot;text-decoration:underline;font-size:13.066699999999999px;&quot;&gt;WishlistView &lt;/span&gt;&lt;span style=&quot;font-style:italic;font-size:13.066699999999999px;&quot;&gt;&lt;br&gt;&lt;/span&gt;&lt;span style=&quot;font-size:13.066699999999999px;&quot;&gt;- &lt;/span&gt;&lt;span style=&quot;font-style:italic;text-decoration:underline;font-size:13.066699999999999px;&quot;&gt;filterMenuViewInstance : &lt;/span&gt;&lt;span style=&quot;text-decoration:underline;font-size:13.066699999999999px;&quot;&gt;FilterMenuView&lt;/span&gt;&lt;/span&gt;&#xa;&#xa;" style="part=1;html=1;resizeHeight=0;strokeColor=none;fillColor=none;align=left;verticalAlign=middle;spacingLeft=4;spacingRight=4;overflow=hidden;rotatable=0;points=[[0,0.5],[1,0.5]];portConstraint=eastwest;swimlaneFillColor=#ffffff;strokeOpacity=100;whiteSpace=wrap;fontSize=13.1;fontStyle=6;" parent="7sSd0tKmP4TyFzPP-oEi-114" vertex="1">
          <mxGeometry y="25" width="420" height="115" as="geometry" />
        </mxCell>
        <mxCell id="7sSd0tKmP4TyFzPP-oEi-116" value="" style="line;strokeWidth=1;fillColor=none;align=left;verticalAlign=middle;spacingTop=-1;spacingLeft=3;spacingRight=3;rotatable=0;labelPosition=right;points=[];portConstraint=eastwest;" parent="7sSd0tKmP4TyFzPP-oEi-114" vertex="1">
          <mxGeometry y="140" width="420" height="8" as="geometry" />
        </mxCell>
        <mxCell id="7sSd0tKmP4TyFzPP-oEi-117" value="&lt;div style=&quot;display: flex; justify-content: center; align-items: baseline; font-size: 0px; line-height: 1.25; margin-top: -2px;&quot;&gt;&lt;span&gt;&lt;span style=&quot;font-size:13.1px;&quot;&gt;&lt;span style=&quot;font-size:13.1px;&quot;&gt;- FilterMenuView()&lt;br&gt;+ &lt;/span&gt;&lt;span style=&quot;font-size:13.1px;text-decoration: underline;&quot;&gt;getInstance() : FilterMenuView &lt;br&gt;&lt;/span&gt;+ showFilterMenu(user : User , inventoryItems : List&amp;lt;Product&amp;gt; ) : void&lt;br&gt;+ addItemToCartOrWishlist(item : Product , user : User ) : void&lt;br&gt;+ getSelectedItem(items : List&amp;lt;Product&amp;gt;) : Product &lt;br&gt;+ showItems(items : List&amp;lt;Product&amp;gt;) : void&lt;/span&gt;&lt;/span&gt;&lt;/div&gt;" style="part=1;resizeHeight=0;strokeColor=none;fillColor=none;align=left;verticalAlign=middle;spacingLeft=4;spacingRight=4;rotatable=0;points=[[0,0.5],[1,0.5]];portConstraint=eastwest;swimlaneFillColor=#ffffff;strokeOpacity=100;whiteSpace=wrap;overflow=block;blockSpacing=1;html=1;fontSize=13;" parent="7sSd0tKmP4TyFzPP-oEi-114" vertex="1">
          <mxGeometry y="148" width="420" height="134" as="geometry" />
        </mxCell>
        <mxCell id="7sSd0tKmP4TyFzPP-oEi-118" value="HomePageView" style="html=1;overflow=block;blockSpacing=1;swimlane;childLayout=stackLayout;horizontal=1;horizontalStack=0;resizeParent=1;resizeParentMax=0;resizeLast=0;collapsible=0;fontStyle=0;marginBottom=0;swimlaneFillColor=#ffffff;startSize=25;whiteSpace=wrap;fontSize=16.7;align=center;spacing=0;strokeColor=#3a414a;strokeOpacity=100;rounded=1;absoluteArcSize=1;arcSize=9;strokeWidth=0.8;" parent="WIyWlLk6GJQsqaUBKTNV-1" vertex="1">
          <mxGeometry x="-3620" y="-3575.95" width="400" height="340" as="geometry" />
        </mxCell>
        <mxCell id="7sSd0tKmP4TyFzPP-oEi-119" value="&lt;br&gt;&lt;span data-lucid-content=&quot;{&amp;quot;t&amp;quot;:&amp;quot;- SCANNER : Scanner\n- CART_VIEW : CartView \n- WISHLIST_VIEW : WishlistView \n- ORDER_VIEW : OrderView - FILTER_MENU_VIEW : FilterMenuView \n- USER_VIEW : UserView \n- homePageViewInstance : HomePageView\n- INVENTORY_MANAGER : InventoryManager\n- INVENTORY_CONTROLLER InventoryController - mobiles : List&lt;Product&gt;\n- laptops : List&lt;Product&gt;\n- clothes : List&lt;Product&gt; &amp;quot;,&amp;quot;m&amp;quot;:[{&amp;quot;s&amp;quot;:0,&amp;quot;n&amp;quot;:&amp;quot;s&amp;quot;,&amp;quot;v&amp;quot;:17.422266666666665,&amp;quot;e&amp;quot;:360},{&amp;quot;s&amp;quot;:2,&amp;quot;n&amp;quot;:&amp;quot;i&amp;quot;,&amp;quot;v&amp;quot;:true,&amp;quot;e&amp;quot;:12},{&amp;quot;s&amp;quot;:19,&amp;quot;n&amp;quot;:&amp;quot;i&amp;quot;,&amp;quot;v&amp;quot;:true,&amp;quot;e&amp;quot;:20},{&amp;quot;s&amp;quot;:22,&amp;quot;n&amp;quot;:&amp;quot;i&amp;quot;,&amp;quot;v&amp;quot;:true,&amp;quot;e&amp;quot;:34},{&amp;quot;s&amp;quot;:46,&amp;quot;n&amp;quot;:&amp;quot;i&amp;quot;,&amp;quot;v&amp;quot;:true,&amp;quot;e&amp;quot;:62},{&amp;quot;s&amp;quot;:78,&amp;quot;n&amp;quot;:&amp;quot;i&amp;quot;,&amp;quot;v&amp;quot;:true,&amp;quot;e&amp;quot;:91},{&amp;quot;s&amp;quot;:103,&amp;quot;n&amp;quot;:&amp;quot;i&amp;quot;,&amp;quot;v&amp;quot;:true,&amp;quot;e&amp;quot;:122},{&amp;quot;s&amp;quot;:140,&amp;quot;n&amp;quot;:&amp;quot;i&amp;quot;,&amp;quot;v&amp;quot;:true,&amp;quot;e&amp;quot;:152},{&amp;quot;s&amp;quot;:164,&amp;quot;n&amp;quot;:&amp;quot;i&amp;quot;,&amp;quot;v&amp;quot;:true,&amp;quot;e&amp;quot;:187},{&amp;quot;s&amp;quot;:202,&amp;quot;n&amp;quot;:&amp;quot;i&amp;quot;,&amp;quot;v&amp;quot;:true,&amp;quot;e&amp;quot;:222},{&amp;quot;s&amp;quot;:241,&amp;quot;n&amp;quot;:&amp;quot;i&amp;quot;,&amp;quot;v&amp;quot;:true,&amp;quot;e&amp;quot;:262},{&amp;quot;s&amp;quot;:2,&amp;quot;n&amp;quot;:&amp;quot;u&amp;quot;,&amp;quot;v&amp;quot;:true,&amp;quot;e&amp;quot;:20},{&amp;quot;s&amp;quot;:22,&amp;quot;n&amp;quot;:&amp;quot;u&amp;quot;,&amp;quot;v&amp;quot;:true,&amp;quot;e&amp;quot;:44},{&amp;quot;s&amp;quot;:46,&amp;quot;n&amp;quot;:&amp;quot;u&amp;quot;,&amp;quot;v&amp;quot;:true,&amp;quot;e&amp;quot;:76},{&amp;quot;s&amp;quot;:78,&amp;quot;n&amp;quot;:&amp;quot;u&amp;quot;,&amp;quot;v&amp;quot;:true,&amp;quot;e&amp;quot;:101},{&amp;quot;s&amp;quot;:103,&amp;quot;n&amp;quot;:&amp;quot;u&amp;quot;,&amp;quot;v&amp;quot;:true,&amp;quot;e&amp;quot;:138},{&amp;quot;s&amp;quot;:140,&amp;quot;n&amp;quot;:&amp;quot;u&amp;quot;,&amp;quot;v&amp;quot;:true,&amp;quot;e&amp;quot;:162},{&amp;quot;s&amp;quot;:164,&amp;quot;n&amp;quot;:&amp;quot;u&amp;quot;,&amp;quot;v&amp;quot;:true,&amp;quot;e&amp;quot;:200},{&amp;quot;s&amp;quot;:241,&amp;quot;n&amp;quot;:&amp;quot;u&amp;quot;,&amp;quot;v&amp;quot;:true,&amp;quot;e&amp;quot;:281},{&amp;quot;s&amp;quot;:202,&amp;quot;n&amp;quot;:&amp;quot;u&amp;quot;,&amp;quot;v&amp;quot;:true,&amp;quot;e&amp;quot;:239}]}&quot; data-lucid-type=&quot;application/vnd.lucid.text&quot;&gt;&lt;span style=&quot;font-size:13.066699999999999px;&quot;&gt;- &lt;/span&gt;&lt;span style=&quot;font-style:italic;text-decoration:underline;font-size:13.066699999999999px;&quot;&gt;SCANNER : &lt;/span&gt;&lt;span style=&quot;text-decoration:underline;font-size:13.066699999999999px;&quot;&gt;Scanner&lt;/span&gt;&lt;span style=&quot;font-style:italic;text-decoration:underline;font-size:13.066699999999999px;&quot;&gt;&lt;br&gt;&lt;/span&gt;&lt;span style=&quot;font-size:13.066699999999999px;&quot;&gt;- &lt;/span&gt;&lt;span style=&quot;font-style:italic;text-decoration:underline;font-size:13.066699999999999px;&quot;&gt;CART_VIEW : &lt;/span&gt;&lt;span style=&quot;text-decoration:underline;font-size:13.066699999999999px;&quot;&gt;CartView &lt;br&gt;&lt;/span&gt;&lt;span style=&quot;font-size:13.066699999999999px;&quot;&gt;- &lt;/span&gt;&lt;span style=&quot;font-style:italic;text-decoration:underline;font-size:13.066699999999999px;&quot;&gt;WISHLIST_VIEW : &lt;/span&gt;&lt;span style=&quot;text-decoration:underline;font-size:13.066699999999999px;&quot;&gt;WishlistView &lt;br&gt;&lt;/span&gt;&lt;span style=&quot;font-size:13.066699999999999px;&quot;&gt;- &lt;/span&gt;&lt;span style=&quot;font-style:italic;text-decoration:underline;font-size:13.066699999999999px;&quot;&gt;ORDER_VIEW : &lt;/span&gt;&lt;span style=&quot;text-decoration:underline;font-size:13.066699999999999px;&quot;&gt;OrderView &lt;br&gt;&lt;/span&gt;&lt;span style=&quot;font-size:13.066699999999999px;&quot;&gt;- &lt;/span&gt;&lt;span style=&quot;font-style:italic;text-decoration:underline;font-size:13.066699999999999px;&quot;&gt;FILTER_MENU_VIEW : &lt;/span&gt;&lt;span style=&quot;text-decoration:underline;font-size:13.066699999999999px;&quot;&gt;FilterMenuView &lt;br&gt;&lt;/span&gt;&lt;span style=&quot;font-size:13.066699999999999px;&quot;&gt;- &lt;/span&gt;&lt;span style=&quot;font-style:italic;text-decoration:underline;font-size:13.066699999999999px;&quot;&gt;USER_VIEW : &lt;/span&gt;&lt;span style=&quot;text-decoration:underline;font-size:13.066699999999999px;&quot;&gt;UserView &lt;br&gt;&lt;/span&gt;&lt;span style=&quot;font-size:13.066699999999999px;&quot;&gt;- &lt;/span&gt;&lt;span style=&quot;font-style:italic;text-decoration:underline;font-size:13.066699999999999px;&quot;&gt;homePageViewInstance : &lt;/span&gt;&lt;span style=&quot;text-decoration:underline;font-size:13.066699999999999px;&quot;&gt;HomePageView&lt;br&gt;&lt;/span&gt;&lt;span style=&quot;font-size:13.066699999999999px;&quot;&gt;- &lt;/span&gt;&lt;span style=&quot;font-style:italic;text-decoration:underline;font-size:13.066699999999999px;&quot;&gt;INVENTORY_MANAGER : &lt;/span&gt;&lt;span style=&quot;text-decoration:underline;font-size:13.066699999999999px;&quot;&gt;InventoryManager&lt;br&gt;&lt;/span&gt;&lt;span style=&quot;font-size:13.066699999999999px;&quot;&gt;- &lt;/span&gt;&lt;span style=&quot;font-style:italic;text-decoration:underline;font-size:13.066699999999999px;&quot;&gt;INVENTORY_CONTROLLER :&amp;nbsp;&lt;/span&gt;&lt;span style=&quot;text-decoration:underline;font-size:13.066699999999999px;&quot;&gt;InventoryController&lt;/span&gt;&lt;span style=&quot;font-size:13.066699999999999px;&quot;&gt; &lt;br&gt;- mobiles : List&amp;lt;Product&amp;gt;&lt;br&gt;&lt;/span&gt;&lt;span style=&quot;font-size:13.066699999999999px;&quot;&gt;- laptops : List&amp;lt;Product&amp;gt;&lt;br&gt;&lt;/span&gt;&lt;span style=&quot;font-size:13.066699999999999px;&quot;&gt;- clothes : List&amp;lt;Product&amp;gt; &lt;/span&gt;&lt;/span&gt;" style="part=1;html=1;resizeHeight=0;strokeColor=none;fillColor=none;align=left;verticalAlign=middle;spacingLeft=4;spacingRight=4;overflow=hidden;rotatable=0;points=[[0,0.5],[1,0.5]];portConstraint=eastwest;swimlaneFillColor=#ffffff;strokeOpacity=100;whiteSpace=wrap;fontSize=13.1;fontStyle=6;" parent="7sSd0tKmP4TyFzPP-oEi-118" vertex="1">
          <mxGeometry y="25" width="400" height="225" as="geometry" />
        </mxCell>
        <mxCell id="7sSd0tKmP4TyFzPP-oEi-120" value="" style="line;strokeWidth=1;fillColor=none;align=left;verticalAlign=middle;spacingTop=-1;spacingLeft=3;spacingRight=3;rotatable=0;labelPosition=right;points=[];portConstraint=eastwest;" parent="7sSd0tKmP4TyFzPP-oEi-118" vertex="1">
          <mxGeometry y="250" width="400" height="8" as="geometry" />
        </mxCell>
        <mxCell id="7sSd0tKmP4TyFzPP-oEi-121" value="&lt;div style=&quot;display: flex; justify-content: center; align-items: baseline; font-size: 0px; line-height: 1.25; margin-top: -2px;&quot;&gt;&lt;span&gt;&lt;span style=&quot;font-size:13.1px;&quot;&gt;&lt;span style=&quot;font-size:13.1px;&quot;&gt;+ &lt;/span&gt;&lt;span style=&quot;font-size:13.1px;text-decoration: underline;&quot;&gt;getInstance() : HomePageView &lt;br&gt;&lt;/span&gt;+ showHomePage(user : User ) : void&lt;br&gt;- addToCartOrWishlist(user : User , items : List&amp;lt;Product&amp;gt;) : void&lt;br&gt;&lt;br&gt;&lt;/span&gt;&lt;/span&gt;&lt;/div&gt;" style="part=1;resizeHeight=0;strokeColor=none;fillColor=none;align=left;verticalAlign=middle;spacingLeft=4;spacingRight=4;rotatable=0;points=[[0,0.5],[1,0.5]];portConstraint=eastwest;swimlaneFillColor=#ffffff;strokeOpacity=100;whiteSpace=wrap;overflow=block;blockSpacing=1;html=1;fontSize=13;" parent="7sSd0tKmP4TyFzPP-oEi-118" vertex="1">
          <mxGeometry y="258" width="400" height="82" as="geometry" />
        </mxCell>
        <mxCell id="7sSd0tKmP4TyFzPP-oEi-122" value="Product" style="html=1;overflow=block;blockSpacing=1;swimlane;childLayout=stackLayout;horizontal=1;horizontalStack=0;resizeParent=1;resizeParentMax=0;resizeLast=0;collapsible=0;fontStyle=0;marginBottom=0;swimlaneFillColor=#ffffff;startSize=25;whiteSpace=wrap;fontSize=16.7;align=center;spacing=0;strokeColor=#3a414a;strokeOpacity=100;rounded=1;absoluteArcSize=1;arcSize=9;strokeWidth=0.8;" parent="WIyWlLk6GJQsqaUBKTNV-1" vertex="1">
          <mxGeometry x="-3687" y="-2430" width="345" height="245" as="geometry" />
        </mxCell>
        <mxCell id="7sSd0tKmP4TyFzPP-oEi-123" value="- productId : int&#xa;- productType : String&#xa;- price :  float&#xa;- brandName : String" style="part=1;html=1;resizeHeight=0;strokeColor=none;fillColor=none;align=left;verticalAlign=middle;spacingLeft=4;spacingRight=4;overflow=hidden;rotatable=0;points=[[0,0.5],[1,0.5]];portConstraint=eastwest;swimlaneFillColor=#ffffff;strokeOpacity=100;whiteSpace=wrap;fontSize=13.1;" parent="7sSd0tKmP4TyFzPP-oEi-122" vertex="1">
          <mxGeometry y="25" width="345" height="102" as="geometry" />
        </mxCell>
        <mxCell id="7sSd0tKmP4TyFzPP-oEi-124" value="" style="line;strokeWidth=1;fillColor=none;align=left;verticalAlign=middle;spacingTop=-1;spacingLeft=3;spacingRight=3;rotatable=0;labelPosition=right;points=[];portConstraint=eastwest;" parent="7sSd0tKmP4TyFzPP-oEi-122" vertex="1">
          <mxGeometry y="127" width="345" height="8" as="geometry" />
        </mxCell>
        <mxCell id="7sSd0tKmP4TyFzPP-oEi-125" value="&lt;br&gt;+ getProductType() : String &lt;br&gt;+ getPrice() : float   &lt;br&gt;+ getBrandName() : String &lt;br&gt;+ changePrice(price : float ) : void&lt;br&gt;+ getProductId() : int" style="part=1;html=1;resizeHeight=0;strokeColor=none;fillColor=none;align=left;verticalAlign=middle;spacingLeft=4;spacingRight=4;overflow=hidden;rotatable=0;points=[[0,0.5],[1,0.5]];portConstraint=eastwest;swimlaneFillColor=#ffffff;strokeOpacity=100;whiteSpace=wrap;fontSize=13.1;" parent="7sSd0tKmP4TyFzPP-oEi-122" vertex="1">
          <mxGeometry y="135" width="345" height="110" as="geometry" />
        </mxCell>
        <mxCell id="7sSd0tKmP4TyFzPP-oEi-126" value="Mobile" style="html=1;overflow=block;blockSpacing=1;swimlane;childLayout=stackLayout;horizontal=1;horizontalStack=0;resizeParent=1;resizeParentMax=0;resizeLast=0;collapsible=0;fontStyle=0;marginBottom=0;swimlaneFillColor=#ffffff;startSize=25;whiteSpace=wrap;fontSize=16.7;align=center;spacing=0;strokeColor=#3a414a;strokeOpacity=100;rounded=1;absoluteArcSize=1;arcSize=9;strokeWidth=0.8;" parent="WIyWlLk6GJQsqaUBKTNV-1" vertex="1">
          <mxGeometry x="-4030" y="-2120" width="290" height="170.25" as="geometry" />
        </mxCell>
        <mxCell id="uFOn80kzknuWrSmANAgQ-0" value="Extends" style="endArrow=block;endSize=16;endFill=0;html=1;rounded=0;entryX=-0.006;entryY=0.663;entryDx=0;entryDy=0;entryPerimeter=0;edgeStyle=orthogonalEdgeStyle;" parent="7sSd0tKmP4TyFzPP-oEi-126" target="7sSd0tKmP4TyFzPP-oEi-125" edge="1">
          <mxGeometry width="160" relative="1" as="geometry">
            <mxPoint x="150" as="sourcePoint" />
            <mxPoint x="150" y="-90" as="targetPoint" />
          </mxGeometry>
        </mxCell>
        <mxCell id="7sSd0tKmP4TyFzPP-oEi-127" value="- model : String " style="part=1;html=1;resizeHeight=0;strokeColor=none;fillColor=none;align=left;verticalAlign=middle;spacingLeft=4;spacingRight=4;overflow=hidden;rotatable=0;points=[[0,0.5],[1,0.5]];portConstraint=eastwest;swimlaneFillColor=#ffffff;strokeOpacity=100;whiteSpace=wrap;fontSize=13.1;" parent="7sSd0tKmP4TyFzPP-oEi-126" vertex="1">
          <mxGeometry y="25" width="290" height="63" as="geometry" />
        </mxCell>
        <mxCell id="7sSd0tKmP4TyFzPP-oEi-128" value="" style="line;strokeWidth=1;fillColor=none;align=left;verticalAlign=middle;spacingTop=-1;spacingLeft=3;spacingRight=3;rotatable=0;labelPosition=right;points=[];portConstraint=eastwest;" parent="7sSd0tKmP4TyFzPP-oEi-126" vertex="1">
          <mxGeometry y="88" width="290" height="8" as="geometry" />
        </mxCell>
        <mxCell id="7sSd0tKmP4TyFzPP-oEi-129" value="+ getModel() : String &lt;br&gt;+ toString() : String" style="part=1;html=1;resizeHeight=0;strokeColor=none;fillColor=none;align=left;verticalAlign=middle;spacingLeft=4;spacingRight=4;overflow=hidden;rotatable=0;points=[[0,0.5],[1,0.5]];portConstraint=eastwest;swimlaneFillColor=#ffffff;strokeOpacity=100;whiteSpace=wrap;fontSize=13.1;" parent="7sSd0tKmP4TyFzPP-oEi-126" vertex="1">
          <mxGeometry y="96" width="290" height="74.25" as="geometry" />
        </mxCell>
        <mxCell id="7sSd0tKmP4TyFzPP-oEi-130" value="Laptop" style="html=1;overflow=block;blockSpacing=1;swimlane;childLayout=stackLayout;horizontal=1;horizontalStack=0;resizeParent=1;resizeParentMax=0;resizeLast=0;collapsible=0;fontStyle=0;marginBottom=0;swimlaneFillColor=#ffffff;startSize=25;whiteSpace=wrap;fontSize=16.7;align=center;spacing=0;strokeColor=#3a414a;strokeOpacity=100;rounded=1;absoluteArcSize=1;arcSize=9;strokeWidth=0.8;" parent="WIyWlLk6GJQsqaUBKTNV-1" vertex="1">
          <mxGeometry x="-3693" y="-2120" width="285" height="169.5" as="geometry" />
        </mxCell>
        <mxCell id="fET3OLGJuTfwf84HqTq4-213" value="Extends" style="endArrow=block;endSize=16;endFill=0;html=1;rounded=0;entryX=0.407;entryY=1.007;entryDx=0;entryDy=0;entryPerimeter=0;" parent="7sSd0tKmP4TyFzPP-oEi-130" target="7sSd0tKmP4TyFzPP-oEi-125" edge="1">
          <mxGeometry width="160" relative="1" as="geometry">
            <mxPoint x="147" as="sourcePoint" />
            <mxPoint x="307" as="targetPoint" />
          </mxGeometry>
        </mxCell>
        <mxCell id="7sSd0tKmP4TyFzPP-oEi-131" value="- model : String " style="part=1;html=1;resizeHeight=0;strokeColor=none;fillColor=none;align=left;verticalAlign=middle;spacingLeft=4;spacingRight=4;overflow=hidden;rotatable=0;points=[[0,0.5],[1,0.5]];portConstraint=eastwest;swimlaneFillColor=#ffffff;strokeOpacity=100;whiteSpace=wrap;fontSize=13.1;" parent="7sSd0tKmP4TyFzPP-oEi-130" vertex="1">
          <mxGeometry y="25" width="285" height="63" as="geometry" />
        </mxCell>
        <mxCell id="7sSd0tKmP4TyFzPP-oEi-132" value="" style="line;strokeWidth=1;fillColor=none;align=left;verticalAlign=middle;spacingTop=-1;spacingLeft=3;spacingRight=3;rotatable=0;labelPosition=right;points=[];portConstraint=eastwest;" parent="7sSd0tKmP4TyFzPP-oEi-130" vertex="1">
          <mxGeometry y="88" width="285" height="8" as="geometry" />
        </mxCell>
        <mxCell id="7sSd0tKmP4TyFzPP-oEi-133" value="+ getModel() : String &lt;br&gt;+ toString() : String" style="part=1;html=1;resizeHeight=0;strokeColor=none;fillColor=none;align=left;verticalAlign=middle;spacingLeft=4;spacingRight=4;overflow=hidden;rotatable=0;points=[[0,0.5],[1,0.5]];portConstraint=eastwest;swimlaneFillColor=#ffffff;strokeOpacity=100;whiteSpace=wrap;fontSize=13.1;" parent="7sSd0tKmP4TyFzPP-oEi-130" vertex="1">
          <mxGeometry y="96" width="285" height="73.5" as="geometry" />
        </mxCell>
        <mxCell id="7sSd0tKmP4TyFzPP-oEi-134" value="Clothes" style="html=1;overflow=block;blockSpacing=1;swimlane;childLayout=stackLayout;horizontal=1;horizontalStack=0;resizeParent=1;resizeParentMax=0;resizeLast=0;collapsible=0;fontStyle=0;marginBottom=0;swimlaneFillColor=#ffffff;startSize=25;whiteSpace=wrap;fontSize=16.7;align=center;spacing=0;strokeColor=#3a414a;strokeOpacity=100;rounded=1;absoluteArcSize=1;arcSize=9;strokeWidth=0.8;" parent="WIyWlLk6GJQsqaUBKTNV-1" vertex="1">
          <mxGeometry x="-3350" y="-2120" width="255" height="210" as="geometry" />
        </mxCell>
        <mxCell id="7sSd0tKmP4TyFzPP-oEi-135" value="- gender : String&#xa;-  size : String&#xa;- clothesType : String" style="part=1;html=1;resizeHeight=0;strokeColor=none;fillColor=none;align=left;verticalAlign=middle;spacingLeft=4;spacingRight=4;overflow=hidden;rotatable=0;points=[[0,0.5],[1,0.5]];portConstraint=eastwest;swimlaneFillColor=#ffffff;strokeOpacity=100;whiteSpace=wrap;fontSize=13.1;" parent="7sSd0tKmP4TyFzPP-oEi-134" vertex="1">
          <mxGeometry y="25" width="255" height="75" as="geometry" />
        </mxCell>
        <mxCell id="7sSd0tKmP4TyFzPP-oEi-136" value="" style="line;strokeWidth=1;fillColor=none;align=left;verticalAlign=middle;spacingTop=-1;spacingLeft=3;spacingRight=3;rotatable=0;labelPosition=right;points=[];portConstraint=eastwest;" parent="7sSd0tKmP4TyFzPP-oEi-134" vertex="1">
          <mxGeometry y="100" width="255" height="8" as="geometry" />
        </mxCell>
        <mxCell id="7sSd0tKmP4TyFzPP-oEi-137" value="+ getClothesType() : String&lt;br&gt;+  getGender() : String&lt;br&gt;+ getSize() : String &lt;br&gt;+ toString() : String" style="part=1;html=1;resizeHeight=0;strokeColor=none;fillColor=none;align=left;verticalAlign=middle;spacingLeft=4;spacingRight=4;overflow=hidden;rotatable=0;points=[[0,0.5],[1,0.5]];portConstraint=eastwest;swimlaneFillColor=#ffffff;strokeOpacity=100;whiteSpace=wrap;fontSize=13.1;" parent="7sSd0tKmP4TyFzPP-oEi-134" vertex="1">
          <mxGeometry y="108" width="255" height="102" as="geometry" />
        </mxCell>
        <mxCell id="72njBxylXS5DjuqRFmT2-22" value="&amp;lt;&amp;lt;interface&amp;gt;&amp;gt;&lt;br&gt;ProductFilter" style="html=1;overflow=block;blockSpacing=1;swimlane;childLayout=stackLayout;horizontal=1;horizontalStack=0;resizeParent=1;resizeParentMax=0;resizeLast=0;collapsible=0;fontStyle=0;marginBottom=0;swimlaneFillColor=#ffffff;startSize=40;whiteSpace=wrap;fontSize=16.7;align=center;spacing=0;strokeColor=#3a414a;strokeOpacity=100;rounded=1;absoluteArcSize=1;arcSize=9;strokeWidth=0.8;" parent="WIyWlLk6GJQsqaUBKTNV-1" vertex="1">
          <mxGeometry x="-2438" y="-2780" width="345" height="148" as="geometry" />
        </mxCell>
        <mxCell id="72njBxylXS5DjuqRFmT2-23" value="+ getFilteredItems(inventoryItems : List&amp;lt;Product&amp;gt;) : List&amp;lt;Product&amp;gt;" style="part=1;html=1;resizeHeight=0;strokeColor=none;fillColor=none;align=left;verticalAlign=middle;spacingLeft=4;spacingRight=4;overflow=hidden;rotatable=0;points=[[0,0.5],[1,0.5]];portConstraint=eastwest;swimlaneFillColor=#ffffff;strokeOpacity=100;whiteSpace=wrap;fontSize=13.1;" parent="72njBxylXS5DjuqRFmT2-22" vertex="1">
          <mxGeometry y="40" width="345" height="100" as="geometry" />
        </mxCell>
        <mxCell id="72njBxylXS5DjuqRFmT2-24" value="" style="line;strokeWidth=1;fillColor=none;align=left;verticalAlign=middle;spacingTop=-1;spacingLeft=3;spacingRight=3;rotatable=0;labelPosition=right;points=[];portConstraint=eastwest;" parent="72njBxylXS5DjuqRFmT2-22" vertex="1">
          <mxGeometry y="140" width="345" height="8" as="geometry" />
        </mxCell>
        <mxCell id="72njBxylXS5DjuqRFmT2-26" value="RateLowToHighFilter" style="html=1;overflow=block;blockSpacing=1;swimlane;childLayout=stackLayout;horizontal=1;horizontalStack=0;resizeParent=1;resizeParentMax=0;resizeLast=0;collapsible=0;fontStyle=0;marginBottom=0;swimlaneFillColor=#ffffff;startSize=25;whiteSpace=wrap;fontSize=16.7;align=center;spacing=0;strokeColor=#3a414a;strokeOpacity=100;rounded=1;absoluteArcSize=1;arcSize=9;strokeWidth=0.8;" parent="WIyWlLk6GJQsqaUBKTNV-1" vertex="1">
          <mxGeometry x="-2840" y="-2330" width="330" height="170.25" as="geometry" />
        </mxCell>
        <mxCell id="72njBxylXS5DjuqRFmT2-28" value="-&amp;nbsp;&lt;span style=&quot;border-color: var(--border-color);&quot;&gt;&lt;u&gt;FILTERED_ITEMS : List&amp;lt;Product&amp;gt;&lt;/u&gt;&lt;br&gt;- &lt;/span&gt;&lt;u style=&quot;border-color: var(--border-color);&quot;&gt;rateLowToHighFilterInstance : RateLowToHighFilter&amp;nbsp;&lt;br&gt;&lt;/u&gt;" style="part=1;html=1;resizeHeight=0;strokeColor=none;fillColor=none;align=left;verticalAlign=middle;spacingLeft=4;spacingRight=4;overflow=hidden;rotatable=0;points=[[0,0.5],[1,0.5]];portConstraint=eastwest;swimlaneFillColor=#ffffff;strokeOpacity=100;whiteSpace=wrap;fontSize=13.1;" parent="72njBxylXS5DjuqRFmT2-26" vertex="1">
          <mxGeometry y="25" width="330" height="63" as="geometry" />
        </mxCell>
        <mxCell id="72njBxylXS5DjuqRFmT2-29" value="" style="line;strokeWidth=1;fillColor=none;align=left;verticalAlign=middle;spacingTop=-1;spacingLeft=3;spacingRight=3;rotatable=0;labelPosition=right;points=[];portConstraint=eastwest;" parent="72njBxylXS5DjuqRFmT2-26" vertex="1">
          <mxGeometry y="88" width="330" height="8" as="geometry" />
        </mxCell>
        <mxCell id="72njBxylXS5DjuqRFmT2-30" value="&lt;div&gt;&lt;span style=&quot;background-color: initial;&quot;&gt;+ &lt;/span&gt;&lt;u style=&quot;background-color: initial;&quot;&gt;getInstance() : RateLowToHighFilter&amp;nbsp;&lt;/u&gt;&lt;br&gt;&lt;/div&gt;&lt;div&gt;+ getFilteredItems(inventoryItems : List&amp;lt;Product&amp;gt;) : List&amp;lt;Product&amp;gt;&amp;nbsp;&lt;/div&gt;" style="part=1;html=1;resizeHeight=0;strokeColor=none;fillColor=none;align=left;verticalAlign=middle;spacingLeft=4;spacingRight=4;overflow=hidden;rotatable=0;points=[[0,0.5],[1,0.5]];portConstraint=eastwest;swimlaneFillColor=#ffffff;strokeOpacity=100;whiteSpace=wrap;fontSize=13.1;" parent="72njBxylXS5DjuqRFmT2-26" vertex="1">
          <mxGeometry y="96" width="330" height="74.25" as="geometry" />
        </mxCell>
        <mxCell id="72njBxylXS5DjuqRFmT2-31" value="RateHighToLowFilter" style="html=1;overflow=block;blockSpacing=1;swimlane;childLayout=stackLayout;horizontal=1;horizontalStack=0;resizeParent=1;resizeParentMax=0;resizeLast=0;collapsible=0;fontStyle=0;marginBottom=0;swimlaneFillColor=#ffffff;startSize=25;whiteSpace=wrap;fontSize=16.7;align=center;spacing=0;strokeColor=#3a414a;strokeOpacity=100;rounded=1;absoluteArcSize=1;arcSize=9;strokeWidth=0.8;" parent="WIyWlLk6GJQsqaUBKTNV-1" vertex="1">
          <mxGeometry x="-2407" y="-2330" width="340" height="169.5" as="geometry" />
        </mxCell>
        <mxCell id="72njBxylXS5DjuqRFmT2-46" value="" style="endArrow=block;dashed=1;endFill=0;endSize=12;html=1;rounded=0;entryX=0.534;entryY=0.954;entryDx=0;entryDy=0;entryPerimeter=0;" parent="72njBxylXS5DjuqRFmT2-31" target="72njBxylXS5DjuqRFmT2-24" edge="1">
          <mxGeometry width="160" relative="1" as="geometry">
            <mxPoint x="154" as="sourcePoint" />
            <mxPoint x="153.92000000000007" y="-214.96000000000004" as="targetPoint" />
          </mxGeometry>
        </mxCell>
        <mxCell id="72njBxylXS5DjuqRFmT2-33" value="-&amp;nbsp;&lt;u style=&quot;border-color: var(--border-color);&quot;&gt;FILTERED_ITEMS : List&amp;lt;Product&amp;gt;&lt;br&gt;- rateHighToLowFilterInstance : RateHighToLowFilter&lt;br&gt;&lt;/u&gt;" style="part=1;html=1;resizeHeight=0;strokeColor=none;fillColor=none;align=left;verticalAlign=middle;spacingLeft=4;spacingRight=4;overflow=hidden;rotatable=0;points=[[0,0.5],[1,0.5]];portConstraint=eastwest;swimlaneFillColor=#ffffff;strokeOpacity=100;whiteSpace=wrap;fontSize=13.1;" parent="72njBxylXS5DjuqRFmT2-31" vertex="1">
          <mxGeometry y="25" width="340" height="63" as="geometry" />
        </mxCell>
        <mxCell id="72njBxylXS5DjuqRFmT2-34" value="" style="line;strokeWidth=1;fillColor=none;align=left;verticalAlign=middle;spacingTop=-1;spacingLeft=3;spacingRight=3;rotatable=0;labelPosition=right;points=[];portConstraint=eastwest;" parent="72njBxylXS5DjuqRFmT2-31" vertex="1">
          <mxGeometry y="88" width="340" height="8" as="geometry" />
        </mxCell>
        <mxCell id="72njBxylXS5DjuqRFmT2-35" value="&lt;div&gt;&lt;u style=&quot;background-color: initial;&quot;&gt;+ getInstance() : RateHighToLowFilter&lt;/u&gt;&lt;span style=&quot;background-color: initial;&quot;&gt;&amp;nbsp;&lt;/span&gt;&lt;br&gt;&lt;/div&gt;&lt;div&gt;+ getFilteredItems(inventoryItems : List&amp;lt;Product&amp;gt;) : List&amp;lt;Product&amp;gt;&amp;nbsp;&lt;/div&gt;" style="part=1;html=1;resizeHeight=0;strokeColor=none;fillColor=none;align=left;verticalAlign=middle;spacingLeft=4;spacingRight=4;overflow=hidden;rotatable=0;points=[[0,0.5],[1,0.5]];portConstraint=eastwest;swimlaneFillColor=#ffffff;strokeOpacity=100;whiteSpace=wrap;fontSize=13.1;" parent="72njBxylXS5DjuqRFmT2-31" vertex="1">
          <mxGeometry y="96" width="340" height="73.5" as="geometry" />
        </mxCell>
        <mxCell id="72njBxylXS5DjuqRFmT2-36" value="PriceFilter" style="html=1;overflow=block;blockSpacing=1;swimlane;childLayout=stackLayout;horizontal=1;horizontalStack=0;resizeParent=1;resizeParentMax=0;resizeLast=0;collapsible=0;fontStyle=0;marginBottom=0;swimlaneFillColor=#ffffff;startSize=25;whiteSpace=wrap;fontSize=16.7;align=center;spacing=0;strokeColor=#3a414a;strokeOpacity=100;rounded=1;absoluteArcSize=1;arcSize=9;strokeWidth=0.8;" parent="WIyWlLk6GJQsqaUBKTNV-1" vertex="1">
          <mxGeometry x="-1963" y="-2330" width="320" height="250" as="geometry" />
        </mxCell>
        <mxCell id="72njBxylXS5DjuqRFmT2-37" value="- &lt;u&gt;FILTERED_ITEMS : List&amp;lt;Product&amp;gt;&amp;nbsp;&lt;/u&gt;&lt;br&gt;-&amp;nbsp;&lt;u&gt;priceFilterInstance :&amp;nbsp;PriceFilter&lt;/u&gt;" style="part=1;html=1;resizeHeight=0;strokeColor=none;fillColor=none;align=left;verticalAlign=middle;spacingLeft=4;spacingRight=4;overflow=hidden;rotatable=0;points=[[0,0.5],[1,0.5]];portConstraint=eastwest;swimlaneFillColor=#ffffff;strokeOpacity=100;whiteSpace=wrap;fontSize=13.1;" parent="72njBxylXS5DjuqRFmT2-36" vertex="1">
          <mxGeometry y="25" width="320" height="86" as="geometry" />
        </mxCell>
        <mxCell id="72njBxylXS5DjuqRFmT2-38" value="" style="line;strokeWidth=1;fillColor=none;align=left;verticalAlign=middle;spacingTop=-1;spacingLeft=3;spacingRight=3;rotatable=0;labelPosition=right;points=[];portConstraint=eastwest;" parent="72njBxylXS5DjuqRFmT2-36" vertex="1">
          <mxGeometry y="111" width="320" height="8" as="geometry" />
        </mxCell>
        <mxCell id="72njBxylXS5DjuqRFmT2-39" value="&lt;div&gt;&lt;u style=&quot;background-color: initial;&quot;&gt;+ getInstance() : PriceFilter&lt;/u&gt;&lt;span style=&quot;background-color: initial;&quot;&gt;&amp;nbsp;&lt;/span&gt;&lt;br&gt;&lt;/div&gt;&lt;div&gt;+ getFilteredItems(inventoryItems : List&amp;lt;Product&amp;gt;) : List&amp;lt;Product&amp;gt;&amp;nbsp;&lt;/div&gt;&lt;div&gt;- validateAmount(input : String ) : boolean&amp;nbsp;&lt;/div&gt;" style="part=1;html=1;resizeHeight=0;strokeColor=none;fillColor=none;align=left;verticalAlign=middle;spacingLeft=4;spacingRight=4;overflow=hidden;rotatable=0;points=[[0,0.5],[1,0.5]];portConstraint=eastwest;swimlaneFillColor=#ffffff;strokeOpacity=100;whiteSpace=wrap;fontSize=13.1;" parent="72njBxylXS5DjuqRFmT2-36" vertex="1">
          <mxGeometry y="119" width="320" height="131" as="geometry" />
        </mxCell>
        <mxCell id="72njBxylXS5DjuqRFmT2-47" value="" style="endArrow=block;dashed=1;endFill=0;endSize=12;html=1;rounded=0;entryX=0.713;entryY=1.25;entryDx=0;entryDy=0;entryPerimeter=0;exitX=0.4;exitY=0.004;exitDx=0;exitDy=0;exitPerimeter=0;edgeStyle=orthogonalEdgeStyle;" parent="WIyWlLk6GJQsqaUBKTNV-1" source="72njBxylXS5DjuqRFmT2-36" target="72njBxylXS5DjuqRFmT2-24" edge="1">
          <mxGeometry width="160" relative="1" as="geometry">
            <mxPoint x="-1903" y="-2380" as="sourcePoint" />
            <mxPoint x="-2192.015" y="-2545.9999999999995" as="targetPoint" />
            <Array as="points">
              <mxPoint x="-1835" y="-2420" />
              <mxPoint x="-2192" y="-2420" />
            </Array>
          </mxGeometry>
        </mxCell>
        <mxCell id="72njBxylXS5DjuqRFmT2-49" value="" style="endArrow=block;dashed=1;endFill=0;endSize=12;html=1;rounded=0;exitX=0.439;exitY=0;exitDx=0;exitDy=0;exitPerimeter=0;entryX=0.313;entryY=1.25;entryDx=0;entryDy=0;entryPerimeter=0;edgeStyle=orthogonalEdgeStyle;" parent="WIyWlLk6GJQsqaUBKTNV-1" source="72njBxylXS5DjuqRFmT2-26" target="72njBxylXS5DjuqRFmT2-24" edge="1">
          <mxGeometry width="160" relative="1" as="geometry">
            <mxPoint x="-2693" y="-2360" as="sourcePoint" />
            <mxPoint x="-2324.15" y="-2550.9599999999996" as="targetPoint" />
            <Array as="points">
              <mxPoint x="-2695" y="-2480" />
              <mxPoint x="-2330" y="-2480" />
            </Array>
          </mxGeometry>
        </mxCell>
        <mxCell id="72njBxylXS5DjuqRFmT2-50" value="RateHighToLowComparator" style="html=1;overflow=block;blockSpacing=1;swimlane;childLayout=stackLayout;horizontal=1;horizontalStack=0;resizeParent=1;resizeParentMax=0;resizeLast=0;collapsible=0;fontStyle=0;marginBottom=0;swimlaneFillColor=#ffffff;startSize=25;whiteSpace=wrap;fontSize=16.7;align=center;spacing=0;strokeColor=#3a414a;strokeOpacity=100;rounded=1;absoluteArcSize=1;arcSize=9;strokeWidth=0.8;" parent="WIyWlLk6GJQsqaUBKTNV-1" vertex="1">
          <mxGeometry x="-2425" y="-2090" width="340" height="106.5" as="geometry" />
        </mxCell>
        <mxCell id="72njBxylXS5DjuqRFmT2-53" value="" style="line;strokeWidth=1;fillColor=none;align=left;verticalAlign=middle;spacingTop=-1;spacingLeft=3;spacingRight=3;rotatable=0;labelPosition=right;points=[];portConstraint=eastwest;" parent="72njBxylXS5DjuqRFmT2-50" vertex="1">
          <mxGeometry y="25" width="340" height="8" as="geometry" />
        </mxCell>
        <mxCell id="72njBxylXS5DjuqRFmT2-54" value="+ compare(product1 : Product , product2 : Product) : int&amp;nbsp;" style="part=1;html=1;resizeHeight=0;strokeColor=none;fillColor=none;align=left;verticalAlign=middle;spacingLeft=4;spacingRight=4;overflow=hidden;rotatable=0;points=[[0,0.5],[1,0.5]];portConstraint=eastwest;swimlaneFillColor=#ffffff;strokeOpacity=100;whiteSpace=wrap;fontSize=13.1;" parent="72njBxylXS5DjuqRFmT2-50" vertex="1">
          <mxGeometry y="33" width="340" height="73.5" as="geometry" />
        </mxCell>
        <mxCell id="72njBxylXS5DjuqRFmT2-55" value="RateLowToHighComparator" style="html=1;overflow=block;blockSpacing=1;swimlane;childLayout=stackLayout;horizontal=1;horizontalStack=0;resizeParent=1;resizeParentMax=0;resizeLast=0;collapsible=0;fontStyle=0;marginBottom=0;swimlaneFillColor=#ffffff;startSize=25;whiteSpace=wrap;fontSize=16.7;align=center;spacing=0;strokeColor=#3a414a;strokeOpacity=100;rounded=1;absoluteArcSize=1;arcSize=9;strokeWidth=0.8;" parent="WIyWlLk6GJQsqaUBKTNV-1" vertex="1">
          <mxGeometry x="-2840" y="-2090" width="340" height="106.5" as="geometry" />
        </mxCell>
        <mxCell id="72njBxylXS5DjuqRFmT2-58" value="" style="line;strokeWidth=1;fillColor=none;align=left;verticalAlign=middle;spacingTop=-1;spacingLeft=3;spacingRight=3;rotatable=0;labelPosition=right;points=[];portConstraint=eastwest;" parent="72njBxylXS5DjuqRFmT2-55" vertex="1">
          <mxGeometry y="25" width="340" height="8" as="geometry" />
        </mxCell>
        <mxCell id="72njBxylXS5DjuqRFmT2-59" value="+ compare(product1 : Product , product2 : Product) : int&amp;nbsp;" style="part=1;html=1;resizeHeight=0;strokeColor=none;fillColor=none;align=left;verticalAlign=middle;spacingLeft=4;spacingRight=4;overflow=hidden;rotatable=0;points=[[0,0.5],[1,0.5]];portConstraint=eastwest;swimlaneFillColor=#ffffff;strokeOpacity=100;whiteSpace=wrap;fontSize=13.1;" parent="72njBxylXS5DjuqRFmT2-55" vertex="1">
          <mxGeometry y="33" width="340" height="73.5" as="geometry" />
        </mxCell>
        <mxCell id="72njBxylXS5DjuqRFmT2-60" value="" style="endArrow=diamondThin;endFill=1;endSize=24;html=1;rounded=0;exitX=0.471;exitY=-0.018;exitDx=0;exitDy=0;exitPerimeter=0;entryX=0.491;entryY=1.01;entryDx=0;entryDy=0;entryPerimeter=0;" parent="WIyWlLk6GJQsqaUBKTNV-1" source="72njBxylXS5DjuqRFmT2-55" target="72njBxylXS5DjuqRFmT2-30" edge="1">
          <mxGeometry width="160" relative="1" as="geometry">
            <mxPoint x="-2682.9999999999995" y="-2104.068" as="sourcePoint" />
            <mxPoint x="-2519.14" y="-2120" as="targetPoint" />
          </mxGeometry>
        </mxCell>
        <mxCell id="72njBxylXS5DjuqRFmT2-61" value="" style="endArrow=diamondThin;endFill=1;endSize=24;html=1;rounded=0;exitX=0.5;exitY=0;exitDx=0;exitDy=0;entryX=0.447;entryY=1.02;entryDx=0;entryDy=0;entryPerimeter=0;" parent="WIyWlLk6GJQsqaUBKTNV-1" source="72njBxylXS5DjuqRFmT2-50" target="72njBxylXS5DjuqRFmT2-35" edge="1">
          <mxGeometry width="160" relative="1" as="geometry">
            <mxPoint x="-2256" y="-2074" as="sourcePoint" />
            <mxPoint x="-2254" y="-2140" as="targetPoint" />
          </mxGeometry>
        </mxCell>
        <mxCell id="72njBxylXS5DjuqRFmT2-62" value="&lt;div style=&quot;&quot;&gt;&lt;span style=&quot;background-color: initial;&quot;&gt;InventoryManager&lt;/span&gt;&lt;/div&gt;" style="html=1;overflow=block;blockSpacing=1;swimlane;childLayout=stackLayout;horizontal=1;horizontalStack=0;resizeParent=1;resizeParentMax=0;resizeLast=0;collapsible=0;fontStyle=0;marginBottom=0;swimlaneFillColor=#ffffff;startSize=25;whiteSpace=wrap;fontSize=16.7;fontColor=#3a414a;align=center;spacing=0;strokeColor=#3a414a;strokeOpacity=100;rounded=1;absoluteArcSize=1;arcSize=9;strokeWidth=0.8;" parent="WIyWlLk6GJQsqaUBKTNV-1" vertex="1">
          <mxGeometry x="-3980" y="-3070" width="350" height="200" as="geometry" />
        </mxCell>
        <mxCell id="72njBxylXS5DjuqRFmT2-63" value="&lt;div&gt;- &lt;u&gt;INVENTORY_CONTROLLER : InventoryController&amp;nbsp;&lt;/u&gt;&lt;/div&gt;&lt;div&gt;- &lt;u&gt;inventoryManagerInstance : InventoryManager&lt;/u&gt;&lt;/div&gt;" style="part=1;html=1;resizeHeight=0;strokeColor=none;fillColor=none;align=left;verticalAlign=middle;spacingLeft=4;spacingRight=4;overflow=hidden;rotatable=0;points=[[0,0.5],[1,0.5]];portConstraint=eastwest;swimlaneFillColor=#ffffff;strokeOpacity=100;whiteSpace=wrap;fontSize=13.3;fontColor=#3a414a;" parent="72njBxylXS5DjuqRFmT2-62" vertex="1">
          <mxGeometry y="25" width="350" height="85" as="geometry" />
        </mxCell>
        <mxCell id="72njBxylXS5DjuqRFmT2-64" value="" style="line;strokeWidth=1;fillColor=none;align=left;verticalAlign=middle;spacingTop=-1;spacingLeft=3;spacingRight=3;rotatable=0;labelPosition=right;points=[];portConstraint=eastwest;" parent="72njBxylXS5DjuqRFmT2-62" vertex="1">
          <mxGeometry y="110" width="350" height="8" as="geometry" />
        </mxCell>
        <mxCell id="72njBxylXS5DjuqRFmT2-65" value="&lt;div&gt;- InventoryManager()&lt;/div&gt;&lt;div&gt;&amp;nbsp;&lt;u&gt;+ getInstance(): InventoryManager&lt;/u&gt;&lt;/div&gt;&lt;div&gt;&amp;nbsp;+ allAllItemsToInventory() : void&lt;/div&gt;&lt;div&gt;&lt;br&gt;&lt;/div&gt;" style="part=1;html=1;resizeHeight=0;strokeColor=none;fillColor=none;align=left;verticalAlign=middle;spacingLeft=4;spacingRight=4;overflow=hidden;rotatable=0;points=[[0,0.5],[1,0.5]];portConstraint=eastwest;swimlaneFillColor=#ffffff;strokeOpacity=100;whiteSpace=wrap;fontSize=13.1;fontColor=#3a414a;" parent="72njBxylXS5DjuqRFmT2-62" vertex="1">
          <mxGeometry y="118" width="350" height="82" as="geometry" />
        </mxCell>
        <mxCell id="72njBxylXS5DjuqRFmT2-66" value="&lt;div style=&quot;&quot;&gt;&lt;span style=&quot;background-color: initial;&quot;&gt;InventoryController&lt;/span&gt;&lt;/div&gt;" style="html=1;overflow=block;blockSpacing=1;swimlane;childLayout=stackLayout;horizontal=1;horizontalStack=0;resizeParent=1;resizeParentMax=0;resizeLast=0;collapsible=0;fontStyle=0;marginBottom=0;swimlaneFillColor=#ffffff;startSize=30;whiteSpace=wrap;fontSize=16.7;fontColor=#3a414a;align=center;spacing=0;strokeColor=#3a414a;strokeOpacity=100;rounded=1;absoluteArcSize=1;arcSize=9;strokeWidth=0.8;" parent="WIyWlLk6GJQsqaUBKTNV-1" vertex="1">
          <mxGeometry x="-4485" y="-2710" width="350" height="290" as="geometry" />
        </mxCell>
        <mxCell id="72njBxylXS5DjuqRFmT2-67" value="&lt;div&gt;- &lt;u&gt;INVENTORY_CONTROLLER : InventoryController&amp;nbsp;&lt;/u&gt;&lt;/div&gt;&lt;div&gt;- &lt;u&gt;inventoryManagerInstance : InventoryManager&lt;/u&gt;&lt;/div&gt;" style="part=1;html=1;resizeHeight=0;strokeColor=none;fillColor=none;align=left;verticalAlign=middle;spacingLeft=4;spacingRight=4;overflow=hidden;rotatable=0;points=[[0,0.5],[1,0.5]];portConstraint=eastwest;swimlaneFillColor=#ffffff;strokeOpacity=100;whiteSpace=wrap;fontSize=13.3;fontColor=#3a414a;" parent="72njBxylXS5DjuqRFmT2-66" vertex="1">
          <mxGeometry y="30" width="350" height="115" as="geometry" />
        </mxCell>
        <mxCell id="72njBxylXS5DjuqRFmT2-68" value="" style="line;strokeWidth=1;fillColor=none;align=left;verticalAlign=middle;spacingTop=-1;spacingLeft=3;spacingRight=3;rotatable=0;labelPosition=right;points=[];portConstraint=eastwest;" parent="72njBxylXS5DjuqRFmT2-66" vertex="1">
          <mxGeometry y="145" width="350" height="8" as="geometry" />
        </mxCell>
        <mxCell id="72njBxylXS5DjuqRFmT2-69" value="&lt;div&gt;&lt;span style=&quot;background-color: initial;&quot;&gt;+ &lt;/span&gt;&lt;u style=&quot;background-color: initial;&quot;&gt;getInstance() : InventoryController&lt;/u&gt;&lt;span style=&quot;background-color: initial;&quot;&gt;&amp;nbsp;&lt;/span&gt;&lt;br&gt;&lt;/div&gt;&lt;div&gt;+ addItemToInventory(item : Product) : void&lt;/div&gt;&lt;div&gt;+ removeItemFromInventory(item : Product) : void&lt;/div&gt;&lt;div&gt;+ getMobileItems(): Map&amp;lt;String, List&amp;lt;Product&amp;gt;&amp;gt;&lt;/div&gt;&lt;div&gt;+ getLaptopItems(): Map&amp;lt;String, List&amp;lt;Product&amp;gt;&amp;gt;&amp;nbsp;&lt;/div&gt;&lt;div&gt;+ getClothesItems(): Map&amp;lt;String, List&amp;lt;Product&amp;gt;&amp;gt;&amp;nbsp;&lt;/div&gt;" style="part=1;html=1;resizeHeight=0;strokeColor=none;fillColor=none;align=left;verticalAlign=middle;spacingLeft=4;spacingRight=4;overflow=hidden;rotatable=0;points=[[0,0.5],[1,0.5]];portConstraint=eastwest;swimlaneFillColor=#ffffff;strokeOpacity=100;whiteSpace=wrap;fontSize=13.1;fontColor=#3a414a;" parent="72njBxylXS5DjuqRFmT2-66" vertex="1">
          <mxGeometry y="153" width="350" height="137" as="geometry" />
        </mxCell>
        <mxCell id="72njBxylXS5DjuqRFmT2-70" value="&lt;div style=&quot;&quot;&gt;&lt;span style=&quot;background-color: initial;&quot;&gt;&amp;lt;&amp;lt;interface&amp;gt;&amp;gt;&lt;/span&gt;&lt;/div&gt;&lt;div style=&quot;&quot;&gt;&lt;span style=&quot;background-color: initial;&quot;&gt;InventoryService&lt;/span&gt;&lt;/div&gt;" style="html=1;overflow=block;blockSpacing=1;swimlane;childLayout=stackLayout;horizontal=1;horizontalStack=0;resizeParent=1;resizeParentMax=0;resizeLast=0;collapsible=0;fontStyle=0;marginBottom=0;swimlaneFillColor=#ffffff;startSize=50;whiteSpace=wrap;fontSize=16.7;fontColor=#3a414a;align=center;spacing=0;strokeColor=#3a414a;strokeOpacity=100;rounded=1;absoluteArcSize=1;arcSize=9;strokeWidth=0.8;" parent="WIyWlLk6GJQsqaUBKTNV-1" vertex="1">
          <mxGeometry x="-4470" y="-2285" width="350" height="195" as="geometry" />
        </mxCell>
        <mxCell id="72njBxylXS5DjuqRFmT2-72" value="" style="line;strokeWidth=1;fillColor=none;align=left;verticalAlign=middle;spacingTop=-1;spacingLeft=3;spacingRight=3;rotatable=0;labelPosition=right;points=[];portConstraint=eastwest;" parent="72njBxylXS5DjuqRFmT2-70" vertex="1">
          <mxGeometry y="50" width="350" height="8" as="geometry" />
        </mxCell>
        <mxCell id="72njBxylXS5DjuqRFmT2-73" value="&lt;div&gt;&lt;span style=&quot;background-color: initial;&quot;&gt;+ addItemToInventory(item : Product) : void&lt;/span&gt;&lt;br&gt;&lt;/div&gt;&lt;div&gt;+ removeItemFromInventory(item : Product) : void&lt;/div&gt;&lt;div&gt;+ getMobileItems(): Map&amp;lt;String, List&amp;lt;Product&amp;gt;&amp;gt;&lt;/div&gt;&lt;div&gt;+ getLaptopItems(): Map&amp;lt;String, List&amp;lt;Product&amp;gt;&amp;gt;&amp;nbsp;&lt;/div&gt;&lt;div&gt;+ getClothesItems(): Map&amp;lt;String, List&amp;lt;Product&amp;gt;&amp;gt;&amp;nbsp;&lt;/div&gt;" style="part=1;html=1;resizeHeight=0;strokeColor=none;fillColor=none;align=left;verticalAlign=middle;spacingLeft=4;spacingRight=4;overflow=hidden;rotatable=0;points=[[0,0.5],[1,0.5]];portConstraint=eastwest;swimlaneFillColor=#ffffff;strokeOpacity=100;whiteSpace=wrap;fontSize=13.1;fontColor=#3a414a;" parent="72njBxylXS5DjuqRFmT2-70" vertex="1">
          <mxGeometry y="58" width="350" height="137" as="geometry" />
        </mxCell>
        <mxCell id="72njBxylXS5DjuqRFmT2-74" value="&lt;div style=&quot;&quot;&gt;&lt;span style=&quot;background-color: initial;&quot;&gt;InventoryServiceImpl&lt;/span&gt;&lt;/div&gt;" style="html=1;overflow=block;blockSpacing=1;swimlane;childLayout=stackLayout;horizontal=1;horizontalStack=0;resizeParent=1;resizeParentMax=0;resizeLast=0;collapsible=0;fontStyle=0;marginBottom=0;swimlaneFillColor=#ffffff;startSize=30;whiteSpace=wrap;fontSize=16.7;fontColor=#3a414a;align=center;spacing=0;strokeColor=#3a414a;strokeOpacity=100;rounded=1;absoluteArcSize=1;arcSize=9;strokeWidth=0.8;" parent="WIyWlLk6GJQsqaUBKTNV-1" vertex="1">
          <mxGeometry x="-4470" y="-2020" width="350" height="290" as="geometry" />
        </mxCell>
        <mxCell id="72njBxylXS5DjuqRFmT2-75" value="&lt;div&gt;- &lt;u&gt;MOBILE_INVENTORY : Map&amp;lt;String, List&amp;lt;Product&amp;gt;&amp;gt;&lt;/u&gt;&lt;/div&gt;&lt;div&gt;- &lt;u&gt;LAPTOP_INVENTORY : Map&amp;lt;String, List&amp;lt;Product&amp;gt;&amp;gt;&amp;nbsp;&lt;/u&gt;&lt;/div&gt;&lt;div&gt;-&lt;u&gt; CLOTHES_INVENTORY : Map&amp;lt;String, List&amp;lt;Product&amp;gt;&amp;gt;&amp;nbsp;&lt;/u&gt;&lt;/div&gt;&lt;div&gt;- &lt;u&gt;inventoryInstance : InventoryServiceImpl&amp;nbsp;&lt;/u&gt;&lt;/div&gt;" style="part=1;html=1;resizeHeight=0;strokeColor=none;fillColor=none;align=left;verticalAlign=middle;spacingLeft=4;spacingRight=4;overflow=hidden;rotatable=0;points=[[0,0.5],[1,0.5]];portConstraint=eastwest;swimlaneFillColor=#ffffff;strokeOpacity=100;whiteSpace=wrap;fontSize=13.3;fontColor=#3a414a;" parent="72njBxylXS5DjuqRFmT2-74" vertex="1">
          <mxGeometry y="30" width="350" height="115" as="geometry" />
        </mxCell>
        <mxCell id="72njBxylXS5DjuqRFmT2-76" value="" style="line;strokeWidth=1;fillColor=none;align=left;verticalAlign=middle;spacingTop=-1;spacingLeft=3;spacingRight=3;rotatable=0;labelPosition=right;points=[];portConstraint=eastwest;" parent="72njBxylXS5DjuqRFmT2-74" vertex="1">
          <mxGeometry y="145" width="350" height="8" as="geometry" />
        </mxCell>
        <mxCell id="72njBxylXS5DjuqRFmT2-77" value="&lt;div&gt;&lt;span style=&quot;background-color: initial;&quot;&gt;+ &lt;/span&gt;&lt;u style=&quot;background-color: initial;&quot;&gt;getInstance() : InventoryServiceImpl&lt;/u&gt;&lt;span style=&quot;background-color: initial;&quot;&gt;&amp;nbsp;&lt;/span&gt;&lt;br&gt;&lt;/div&gt;&lt;div&gt;+ addItemToInventory(item : Product) : void&lt;/div&gt;&lt;div&gt;+ removeItemFromInventory(item : Product) : void&lt;/div&gt;&lt;div&gt;+ getMobileItems(): Map&amp;lt;String, List&amp;lt;Product&amp;gt;&amp;gt;&lt;/div&gt;&lt;div&gt;+ getLaptopItems(): Map&amp;lt;String, List&amp;lt;Product&amp;gt;&amp;gt;&amp;nbsp;&lt;/div&gt;&lt;div&gt;+ getClothesItems(): Map&amp;lt;String, List&amp;lt;Product&amp;gt;&amp;gt;&amp;nbsp;&lt;/div&gt;" style="part=1;html=1;resizeHeight=0;strokeColor=none;fillColor=none;align=left;verticalAlign=middle;spacingLeft=4;spacingRight=4;overflow=hidden;rotatable=0;points=[[0,0.5],[1,0.5]];portConstraint=eastwest;swimlaneFillColor=#ffffff;strokeOpacity=100;whiteSpace=wrap;fontSize=13.1;fontColor=#3a414a;" parent="72njBxylXS5DjuqRFmT2-74" vertex="1">
          <mxGeometry y="153" width="350" height="137" as="geometry" />
        </mxCell>
        <mxCell id="72njBxylXS5DjuqRFmT2-80" value="" style="endArrow=diamondThin;endFill=0;endSize=24;html=1;rounded=0;exitX=0.5;exitY=0;exitDx=0;exitDy=0;entryX=0.457;entryY=1.093;entryDx=0;entryDy=0;entryPerimeter=0;edgeStyle=orthogonalEdgeStyle;" parent="WIyWlLk6GJQsqaUBKTNV-1" source="72njBxylXS5DjuqRFmT2-66" target="72njBxylXS5DjuqRFmT2-65" edge="1">
          <mxGeometry width="160" relative="1" as="geometry">
            <mxPoint x="-4222" y="-2320" as="sourcePoint" />
            <mxPoint x="-4185" y="-2400" as="targetPoint" />
            <Array as="points">
              <mxPoint x="-4310" y="-2820" />
              <mxPoint x="-3820" y="-2820" />
            </Array>
          </mxGeometry>
        </mxCell>
        <mxCell id="72njBxylXS5DjuqRFmT2-81" value="&lt;div style=&quot;&quot;&gt;ApplicationLauncher&lt;/div&gt;" style="html=1;overflow=block;blockSpacing=1;swimlane;childLayout=stackLayout;horizontal=1;horizontalStack=0;resizeParent=1;resizeParentMax=0;resizeLast=0;collapsible=0;fontStyle=0;marginBottom=0;swimlaneFillColor=#ffffff;startSize=50;whiteSpace=wrap;fontSize=16.7;fontColor=#3a414a;align=center;spacing=0;strokeColor=#3a414a;strokeOpacity=100;rounded=1;absoluteArcSize=1;arcSize=9;strokeWidth=0.8;" parent="WIyWlLk6GJQsqaUBKTNV-1" vertex="1">
          <mxGeometry x="-3580" y="-4562" width="320" height="122" as="geometry" />
        </mxCell>
        <mxCell id="72njBxylXS5DjuqRFmT2-83" value="+ main(args : String[]) : void" style="part=1;html=1;resizeHeight=0;strokeColor=none;fillColor=none;align=left;verticalAlign=middle;spacingLeft=4;spacingRight=4;overflow=hidden;rotatable=0;points=[[0,0.5],[1,0.5]];portConstraint=eastwest;swimlaneFillColor=#ffffff;strokeOpacity=100;whiteSpace=wrap;fontSize=13.1;fontColor=#3a414a;" parent="72njBxylXS5DjuqRFmT2-81" vertex="1">
          <mxGeometry y="50" width="320" height="72" as="geometry" />
        </mxCell>
        <mxCell id="72njBxylXS5DjuqRFmT2-84" value="" style="endArrow=diamondThin;endFill=0;endSize=24;html=1;rounded=0;entryX=0.462;entryY=1.034;entryDx=0;entryDy=0;entryPerimeter=0;exitX=0.462;exitY=-0.001;exitDx=0;exitDy=0;exitPerimeter=0;" parent="WIyWlLk6GJQsqaUBKTNV-1" source="7sSd0tKmP4TyFzPP-oEi-24" target="72njBxylXS5DjuqRFmT2-83" edge="1">
          <mxGeometry width="160" relative="1" as="geometry">
            <mxPoint x="-3432" y="-4350" as="sourcePoint" />
            <mxPoint x="-3666.96" y="-4199.998" as="targetPoint" />
          </mxGeometry>
        </mxCell>
        <mxCell id="72njBxylXS5DjuqRFmT2-85" value="" style="endArrow=diamondThin;endFill=0;endSize=24;html=1;rounded=0;entryX=0.993;entryY=0.423;entryDx=0;entryDy=0;entryPerimeter=0;exitX=0.005;exitY=0.832;exitDx=0;exitDy=0;exitPerimeter=0;edgeStyle=orthogonalEdgeStyle;" parent="WIyWlLk6GJQsqaUBKTNV-1" source="7sSd0tKmP4TyFzPP-oEi-47" target="7sSd0tKmP4TyFzPP-oEi-33" edge="1">
          <mxGeometry width="160" relative="1" as="geometry">
            <mxPoint x="-3517.5" y="-3820" as="sourcePoint" />
            <mxPoint x="-3357.5" y="-3820" as="targetPoint" />
          </mxGeometry>
        </mxCell>
        <mxCell id="72njBxylXS5DjuqRFmT2-89" value="Use" style="endArrow=open;endSize=12;dashed=1;html=1;rounded=0;entryX=1.006;entryY=0.98;entryDx=0;entryDy=0;entryPerimeter=0;exitX=-0.008;exitY=0.271;exitDx=0;exitDy=0;exitPerimeter=0;" parent="WIyWlLk6GJQsqaUBKTNV-1" source="7sSd0tKmP4TyFzPP-oEi-73" target="7sSd0tKmP4TyFzPP-oEi-47" edge="1">
          <mxGeometry width="160" relative="1" as="geometry">
            <mxPoint x="-2309.46" y="-3882.4120000000003" as="sourcePoint" />
            <mxPoint x="-2190" y="-4030" as="targetPoint" />
          </mxGeometry>
        </mxCell>
        <mxCell id="72njBxylXS5DjuqRFmT2-91" value="Use" style="endArrow=open;endSize=12;dashed=1;html=1;rounded=0;entryX=0.998;entryY=-0.031;entryDx=0;entryDy=0;entryPerimeter=0;exitX=-0.001;exitY=0.411;exitDx=0;exitDy=0;exitPerimeter=0;" parent="WIyWlLk6GJQsqaUBKTNV-1" source="7sSd0tKmP4TyFzPP-oEi-81" target="7sSd0tKmP4TyFzPP-oEi-57" edge="1">
          <mxGeometry width="160" relative="1" as="geometry">
            <mxPoint x="-2351.7200000000003" y="-3425.522" as="sourcePoint" />
            <mxPoint x="-2447.28" y="-3287.17" as="targetPoint" />
          </mxGeometry>
        </mxCell>
        <mxCell id="72njBxylXS5DjuqRFmT2-94" value="" style="endArrow=block;dashed=1;endFill=0;endSize=12;html=1;rounded=0;exitX=1.015;exitY=0.625;exitDx=0;exitDy=0;exitPerimeter=0;entryX=-0.014;entryY=0.237;entryDx=0;entryDy=0;entryPerimeter=0;edgeStyle=orthogonalEdgeStyle;" parent="WIyWlLk6GJQsqaUBKTNV-1" source="DSNB09O_sfzWhzwUKTrS-80" target="DSNB09O_sfzWhzwUKTrS-81" edge="1">
          <mxGeometry width="160" relative="1" as="geometry">
            <mxPoint x="-1932" y="-3215.056" as="sourcePoint" />
            <mxPoint x="-1820" y="-3103.6165" as="targetPoint" />
          </mxGeometry>
        </mxCell>
        <mxCell id="72njBxylXS5DjuqRFmT2-97" value="" style="endArrow=open;endFill=1;endSize=12;html=1;rounded=0;exitX=1.007;exitY=0.834;exitDx=0;exitDy=0;exitPerimeter=0;entryX=-0.004;entryY=0.076;entryDx=0;entryDy=0;entryPerimeter=0;edgeStyle=orthogonalEdgeStyle;" parent="WIyWlLk6GJQsqaUBKTNV-1" source="7sSd0tKmP4TyFzPP-oEi-111" target="7sSd0tKmP4TyFzPP-oEi-33" edge="1">
          <mxGeometry width="160" relative="1" as="geometry">
            <mxPoint x="-3980" y="-3760" as="sourcePoint" />
            <mxPoint x="-3820" y="-3760" as="targetPoint" />
          </mxGeometry>
        </mxCell>
        <mxCell id="uFOn80kzknuWrSmANAgQ-10" value="" style="endArrow=diamondThin;endFill=0;endSize=24;html=1;rounded=0;exitX=0.48;exitY=-0.004;exitDx=0;exitDy=0;exitPerimeter=0;" parent="WIyWlLk6GJQsqaUBKTNV-1" source="7sSd0tKmP4TyFzPP-oEi-118" target="7sSd0tKmP4TyFzPP-oEi-35" edge="1">
          <mxGeometry width="160" relative="1" as="geometry">
            <mxPoint x="-3457.5" y="-3540" as="sourcePoint" />
            <mxPoint x="-3297.5" y="-3540" as="targetPoint" />
          </mxGeometry>
        </mxCell>
        <mxCell id="uFOn80kzknuWrSmANAgQ-17" value="" style="endArrow=diamondThin;endFill=0;endSize=24;html=1;rounded=0;entryX=0.45;entryY=1.087;entryDx=0;entryDy=0;entryPerimeter=0;exitX=0.467;exitY=-0.012;exitDx=0;exitDy=0;exitPerimeter=0;edgeStyle=orthogonalEdgeStyle;" parent="WIyWlLk6GJQsqaUBKTNV-1" target="7sSd0tKmP4TyFzPP-oEi-121" edge="1" source="7sSd0tKmP4TyFzPP-oEi-114">
          <mxGeometry width="160" relative="1" as="geometry">
            <mxPoint x="-3378.3" y="-2977.75" as="sourcePoint" />
            <mxPoint x="-3260.0000000000005" y="-2977.1150000000002" as="targetPoint" />
            <Array as="points">
              <mxPoint x="-3261" y="-3000" />
              <mxPoint x="-3440" y="-3000" />
            </Array>
          </mxGeometry>
        </mxCell>
        <mxCell id="uFOn80kzknuWrSmANAgQ-19" value="Use" style="endArrow=open;endSize=12;dashed=1;html=1;rounded=0;entryX=0.003;entryY=0.799;entryDx=0;entryDy=0;entryPerimeter=0;exitX=1.01;exitY=0.416;exitDx=0;exitDy=0;exitPerimeter=0;" parent="WIyWlLk6GJQsqaUBKTNV-1" source="7sSd0tKmP4TyFzPP-oEi-117" target="72njBxylXS5DjuqRFmT2-23" edge="1">
          <mxGeometry width="160" relative="1" as="geometry">
            <mxPoint x="-3032" y="-2674" as="sourcePoint" />
            <mxPoint x="-2650" y="-2710" as="targetPoint" />
          </mxGeometry>
        </mxCell>
        <mxCell id="uFOn80kzknuWrSmANAgQ-22" value="Use" style="endArrow=open;endSize=12;dashed=1;html=1;rounded=0;entryX=0.463;entryY=0.005;entryDx=0;entryDy=0;entryPerimeter=0;exitX=0.508;exitY=1.005;exitDx=0;exitDy=0;exitPerimeter=0;" parent="WIyWlLk6GJQsqaUBKTNV-1" source="72njBxylXS5DjuqRFmT2-69" target="72njBxylXS5DjuqRFmT2-70" edge="1">
          <mxGeometry width="160" relative="1" as="geometry">
            <mxPoint x="-4640" y="-2250" as="sourcePoint" />
            <mxPoint x="-4480" y="-2250" as="targetPoint" />
          </mxGeometry>
        </mxCell>
        <mxCell id="fET3OLGJuTfwf84HqTq4-222" value="" style="endArrow=block;dashed=1;endFill=0;endSize=12;html=1;rounded=0;entryX=-0.007;entryY=0.597;entryDx=0;entryDy=0;entryPerimeter=0;edgeStyle=orthogonalEdgeStyle;exitX=1.015;exitY=0.293;exitDx=0;exitDy=0;exitPerimeter=0;" parent="WIyWlLk6GJQsqaUBKTNV-1" source="7sSd0tKmP4TyFzPP-oEi-73" target="7sSd0tKmP4TyFzPP-oEi-91" edge="1">
          <mxGeometry width="160" relative="1" as="geometry">
            <mxPoint x="-2775" y="-3840" as="sourcePoint" />
            <mxPoint x="-2655" y="-3840" as="targetPoint" />
          </mxGeometry>
        </mxCell>
        <mxCell id="DSNB09O_sfzWhzwUKTrS-0" value="UserDAO" style="html=1;overflow=block;blockSpacing=1;swimlane;childLayout=stackLayout;horizontal=1;horizontalStack=0;resizeParent=1;resizeParentMax=0;resizeLast=0;collapsible=0;fontStyle=0;marginBottom=0;swimlaneFillColor=#ffffff;startSize=25;whiteSpace=wrap;fontSize=16.7;align=center;spacing=0;strokeColor=#3a414a;strokeOpacity=100;rounded=1;absoluteArcSize=1;arcSize=9;strokeWidth=0.8;" parent="WIyWlLk6GJQsqaUBKTNV-1" vertex="1">
          <mxGeometry x="-1750" y="-4304" width="330" height="270" as="geometry" />
        </mxCell>
        <mxCell id="DSNB09O_sfzWhzwUKTrS-1" value="&lt;div style=&quot;display: flex; justify-content: center; align-items: baseline; font-size: 0px; line-height: 1.25; margin-top: -2px;&quot;&gt;&lt;span&gt;&lt;span style=&quot;font-size:16.7px;&quot;&gt;- &lt;/span&gt;&lt;span style=&quot;font-size:13.1px;font-style: italic;text-decoration: underline;&quot;&gt;userServiceInstance :&lt;/span&gt;&lt;span style=&quot;font-size:13.1px;text-decoration: underline;&quot;&gt; UserServiceImpl &lt;br&gt;&lt;/span&gt;&lt;span style=&quot;font-size:13.1px;&quot;&gt;- &lt;/span&gt;&lt;span style=&quot;font-size:13.1px;text-decoration: underline;&quot;&gt;USERS : &lt;/span&gt;&lt;span style=&quot;font-size:13.1px;text-decoration: underline;&quot;&gt;Map&amp;lt;String, User&amp;gt;&lt;/span&gt;&lt;/span&gt;&lt;/div&gt;" style="part=1;html=1;resizeHeight=0;strokeColor=none;fillColor=none;align=left;verticalAlign=middle;spacingLeft=4;spacingRight=4;overflow=hidden;rotatable=0;points=[[0,0.5],[1,0.5]];portConstraint=eastwest;swimlaneFillColor=#ffffff;strokeOpacity=100;whiteSpace=wrap;fontSize=16.7;fontStyle=6;" parent="DSNB09O_sfzWhzwUKTrS-0" vertex="1">
          <mxGeometry y="25" width="330" height="75" as="geometry" />
        </mxCell>
        <mxCell id="DSNB09O_sfzWhzwUKTrS-2" value="" style="line;strokeWidth=1;fillColor=none;align=left;verticalAlign=middle;spacingTop=-1;spacingLeft=3;spacingRight=3;rotatable=0;labelPosition=right;points=[];portConstraint=eastwest;" parent="DSNB09O_sfzWhzwUKTrS-0" vertex="1">
          <mxGeometry y="100" width="330" height="8" as="geometry" />
        </mxCell>
        <mxCell id="DSNB09O_sfzWhzwUKTrS-59" value="&lt;div&gt;+ createNewUser(user : User) : boolean&lt;/div&gt;&lt;div&gt;+ getExistingUser(mobileNumber : String, password : String) :&amp;nbsp; User&lt;/div&gt;&lt;div&gt;&amp;nbsp;+ addAddress(user : User, address : String) :&amp;nbsp; void&lt;/div&gt;&lt;div&gt;+ getAddresses(user : User) : List&amp;lt;String&amp;gt;&amp;nbsp;&lt;/div&gt;&lt;div&gt;&lt;span style=&quot;background-color: initial;&quot;&gt;+ updateUser(user : User ) : void&amp;nbsp;&amp;nbsp;&lt;/span&gt;&lt;br&gt;&lt;/div&gt;" style="part=1;html=1;resizeHeight=0;strokeColor=none;fillColor=none;align=left;verticalAlign=middle;spacingLeft=4;spacingRight=4;overflow=hidden;rotatable=0;points=[[0,0.5],[1,0.5]];portConstraint=eastwest;swimlaneFillColor=#ffffff;strokeOpacity=100;whiteSpace=wrap;fontSize=16.7;" parent="DSNB09O_sfzWhzwUKTrS-0" vertex="1">
          <mxGeometry y="108" width="330" height="162" as="geometry" />
        </mxCell>
        <mxCell id="DSNB09O_sfzWhzwUKTrS-4" value="OrderDAO" style="html=1;overflow=block;blockSpacing=1;swimlane;childLayout=stackLayout;horizontal=1;horizontalStack=0;resizeParent=1;resizeParentMax=0;resizeLast=0;collapsible=0;fontStyle=0;marginBottom=0;swimlaneFillColor=#ffffff;startSize=25;whiteSpace=wrap;fontSize=16.7;align=center;spacing=0;strokeColor=#3a414a;strokeOpacity=100;rounded=1;absoluteArcSize=1;arcSize=9;strokeWidth=0.8;" parent="WIyWlLk6GJQsqaUBKTNV-1" vertex="1">
          <mxGeometry x="-1433.33" y="-3376.5" width="330" height="243" as="geometry" />
        </mxCell>
        <mxCell id="DSNB09O_sfzWhzwUKTrS-5" value="&lt;div style=&quot;display: flex; justify-content: center; align-items: baseline; line-height: 1.25; margin-top: -2px;&quot;&gt;&lt;span style=&quot;font-size: 16.7px;&quot;&gt;-orderDAOInstance : OrderDAOImpl&lt;/span&gt;&lt;/div&gt;" style="part=1;html=1;resizeHeight=0;strokeColor=none;fillColor=none;align=left;verticalAlign=middle;spacingLeft=4;spacingRight=4;overflow=hidden;rotatable=0;points=[[0,0.5],[1,0.5]];portConstraint=eastwest;swimlaneFillColor=#ffffff;strokeOpacity=100;whiteSpace=wrap;fontSize=16.7;fontStyle=6;" parent="DSNB09O_sfzWhzwUKTrS-4" vertex="1">
          <mxGeometry y="25" width="330" height="75" as="geometry" />
        </mxCell>
        <mxCell id="DSNB09O_sfzWhzwUKTrS-6" value="" style="line;strokeWidth=1;fillColor=none;align=left;verticalAlign=middle;spacingTop=-1;spacingLeft=3;spacingRight=3;rotatable=0;labelPosition=right;points=[];portConstraint=eastwest;" parent="DSNB09O_sfzWhzwUKTrS-4" vertex="1">
          <mxGeometry y="100" width="330" height="8" as="geometry" />
        </mxCell>
        <mxCell id="DSNB09O_sfzWhzwUKTrS-82" value="&lt;div style=&quot;border-color: var(--border-color);&quot;&gt;&lt;font style=&quot;border-color: var(--border-color); font-size: 14px;&quot;&gt;+ getInstance : OrderDAO&lt;/font&gt;&lt;/div&gt;&lt;div style=&quot;border-color: var(--border-color);&quot;&gt;+ cancelOrder(order: Order) : void&amp;nbsp;&lt;/div&gt;&lt;div style=&quot;border-color: var(--border-color);&quot;&gt;&lt;span style=&quot;border-color: var(--border-color); font-size: 14px;&quot;&gt;+ addOrder(userId : int, order: Order) : void&lt;/span&gt;&lt;/div&gt;&lt;div style=&quot;border-color: var(--border-color);&quot;&gt;&lt;span style=&quot;border-color: var(--border-color); font-size: 14px;&quot;&gt;+ getOrders(userId : int) : List&amp;lt;Order&amp;gt;&amp;nbsp;&lt;/span&gt;&lt;/div&gt;" style="part=1;html=1;resizeHeight=0;strokeColor=none;fillColor=none;align=left;verticalAlign=middle;spacingLeft=4;spacingRight=4;overflow=hidden;rotatable=0;points=[[0,0.5],[1,0.5]];portConstraint=eastwest;swimlaneFillColor=#ffffff;strokeOpacity=100;whiteSpace=wrap;fontSize=16.7;fontColor=#3a414a;" parent="DSNB09O_sfzWhzwUKTrS-4" vertex="1">
          <mxGeometry y="108" width="330" height="135" as="geometry" />
        </mxCell>
        <mxCell id="DSNB09O_sfzWhzwUKTrS-8" value="WishlistDAO" style="html=1;overflow=block;blockSpacing=1;swimlane;childLayout=stackLayout;horizontal=1;horizontalStack=0;resizeParent=1;resizeParentMax=0;resizeLast=0;collapsible=0;fontStyle=0;marginBottom=0;swimlaneFillColor=#ffffff;startSize=25;whiteSpace=wrap;fontSize=16.7;align=center;spacing=0;strokeColor=#3a414a;strokeOpacity=100;rounded=1;absoluteArcSize=1;arcSize=9;strokeWidth=0.8;" parent="WIyWlLk6GJQsqaUBKTNV-1" vertex="1">
          <mxGeometry x="-1433.33" y="-3630.35" width="330" height="213" as="geometry" />
        </mxCell>
        <mxCell id="DSNB09O_sfzWhzwUKTrS-9" value="&lt;div style=&quot;display: flex; justify-content: center; align-items: baseline; line-height: 1.25; margin-top: -2px;&quot;&gt;&lt;font style=&quot;font-size: 14px;&quot;&gt;- wishlistDAOInstance : WishlistDAOImpl&amp;nbsp;&lt;/font&gt;&lt;br&gt;&lt;/div&gt;" style="part=1;html=1;resizeHeight=0;strokeColor=none;fillColor=none;align=left;verticalAlign=middle;spacingLeft=4;spacingRight=4;overflow=hidden;rotatable=0;points=[[0,0.5],[1,0.5]];portConstraint=eastwest;swimlaneFillColor=#ffffff;strokeOpacity=100;whiteSpace=wrap;fontSize=16.7;fontStyle=6;" parent="DSNB09O_sfzWhzwUKTrS-8" vertex="1">
          <mxGeometry y="25" width="330" height="75" as="geometry" />
        </mxCell>
        <mxCell id="DSNB09O_sfzWhzwUKTrS-10" value="" style="line;strokeWidth=1;fillColor=none;align=left;verticalAlign=middle;spacingTop=-1;spacingLeft=3;spacingRight=3;rotatable=0;labelPosition=right;points=[];portConstraint=eastwest;" parent="DSNB09O_sfzWhzwUKTrS-8" vertex="1">
          <mxGeometry y="100" width="330" height="8" as="geometry" />
        </mxCell>
        <mxCell id="DSNB09O_sfzWhzwUKTrS-11" value="&lt;div style=&quot;display: flex; justify-content: center; align-items: baseline; line-height: 1.25; margin-top: -2px;&quot;&gt;&lt;div style=&quot;border-color: var(--border-color);&quot;&gt;&lt;div style=&quot;border-color: var(--border-color);&quot;&gt;&lt;font style=&quot;font-size: 14px;&quot;&gt;+ getInstance() : WishlistDAOImpl&lt;/font&gt;&lt;/div&gt;&lt;div style=&quot;border-color: var(--border-color);&quot;&gt;&lt;font style=&quot;font-size: 14px;&quot;&gt;+&lt;font style=&quot;&quot;&gt; addToWishlist(item : Product) : void&lt;/font&gt;&lt;/font&gt;&lt;/div&gt;&lt;div style=&quot;border-color: var(--border-color);&quot;&gt;&lt;font style=&quot;font-size: 14px;&quot;&gt;+ removeItemFromWishlist(item : Product) : void&lt;/font&gt;&lt;/div&gt;&lt;div style=&quot;border-color: var(--border-color);&quot;&gt;&lt;font style=&quot;font-size: 14px;&quot;&gt;+ getUserWishlist() : List&amp;lt;Product&amp;gt;&amp;nbsp;&lt;/font&gt;&lt;/div&gt;&lt;/div&gt;&lt;/div&gt;" style="part=1;resizeHeight=0;strokeColor=none;fillColor=none;align=left;verticalAlign=middle;spacingLeft=4;spacingRight=4;rotatable=0;points=[[0,0.5],[1,0.5]];portConstraint=eastwest;swimlaneFillColor=#ffffff;strokeOpacity=100;whiteSpace=wrap;overflow=block;blockSpacing=1;html=1;fontSize=13;" parent="DSNB09O_sfzWhzwUKTrS-8" vertex="1">
          <mxGeometry y="108" width="330" height="105" as="geometry" />
        </mxCell>
        <mxCell id="DSNB09O_sfzWhzwUKTrS-12" value="CartDAO" style="html=1;overflow=block;blockSpacing=1;swimlane;childLayout=stackLayout;horizontal=1;horizontalStack=0;resizeParent=1;resizeParentMax=0;resizeLast=0;collapsible=0;fontStyle=0;marginBottom=0;swimlaneFillColor=#ffffff;startSize=25;whiteSpace=wrap;fontSize=16.7;align=center;spacing=0;strokeColor=#3a414a;strokeOpacity=100;rounded=1;absoluteArcSize=1;arcSize=9;strokeWidth=0.8;" parent="WIyWlLk6GJQsqaUBKTNV-1" vertex="1">
          <mxGeometry x="-1640" y="-3981.37" width="370" height="260" as="geometry" />
        </mxCell>
        <mxCell id="DSNB09O_sfzWhzwUKTrS-13" value="&lt;div style=&quot;display: flex; justify-content: center; align-items: baseline; line-height: 1.25; margin-top: -2px;&quot;&gt;- cartDAOImplInstance : CartDAOImpl&amp;nbsp;&lt;br&gt;&lt;/div&gt;" style="part=1;html=1;resizeHeight=0;strokeColor=none;fillColor=none;align=left;verticalAlign=middle;spacingLeft=4;spacingRight=4;overflow=hidden;rotatable=0;points=[[0,0.5],[1,0.5]];portConstraint=eastwest;swimlaneFillColor=#ffffff;strokeOpacity=100;whiteSpace=wrap;fontSize=16.7;fontStyle=6;" parent="DSNB09O_sfzWhzwUKTrS-12" vertex="1">
          <mxGeometry y="25" width="370" height="75" as="geometry" />
        </mxCell>
        <mxCell id="DSNB09O_sfzWhzwUKTrS-14" value="" style="line;strokeWidth=1;fillColor=none;align=left;verticalAlign=middle;spacingTop=-1;spacingLeft=3;spacingRight=3;rotatable=0;labelPosition=right;points=[];portConstraint=eastwest;" parent="DSNB09O_sfzWhzwUKTrS-12" vertex="1">
          <mxGeometry y="100" width="370" height="8" as="geometry" />
        </mxCell>
        <mxCell id="DSNB09O_sfzWhzwUKTrS-66" value="&lt;div style=&quot;border-color: var(--border-color); color: rgb(0, 0, 0); font-family: Helvetica; font-size: 17px; font-style: normal; font-variant-ligatures: normal; font-variant-caps: normal; font-weight: 400; letter-spacing: normal; orphans: 2; text-align: left; text-indent: 0px; text-transform: none; widows: 2; word-spacing: 0px; -webkit-text-stroke-width: 0px; background-color: rgb(251, 251, 251); text-decoration-thickness: initial; text-decoration-style: initial; text-decoration-color: initial;&quot;&gt;&lt;br class=&quot;Apple-interchange-newline&quot;&gt;+ getUserCart(user : User) : Cart&lt;/div&gt;&lt;div style=&quot;border-color: var(--border-color); color: rgb(0, 0, 0); font-family: Helvetica; font-size: 17px; font-style: normal; font-variant-ligatures: normal; font-variant-caps: normal; font-weight: 400; letter-spacing: normal; orphans: 2; text-align: left; text-indent: 0px; text-transform: none; widows: 2; word-spacing: 0px; -webkit-text-stroke-width: 0px; background-color: rgb(251, 251, 251); text-decoration-thickness: initial; text-decoration-style: initial; text-decoration-color: initial;&quot;&gt;+ removeItemFromCart(product : Product , user : User ) : void&amp;nbsp;&lt;/div&gt;&lt;div style=&quot;border-color: var(--border-color); color: rgb(0, 0, 0); font-family: Helvetica; font-size: 17px; font-style: normal; font-variant-ligatures: normal; font-variant-caps: normal; font-weight: 400; letter-spacing: normal; orphans: 2; text-align: left; text-indent: 0px; text-transform: none; widows: 2; word-spacing: 0px; -webkit-text-stroke-width: 0px; background-color: rgb(251, 251, 251); text-decoration-thickness: initial; text-decoration-style: initial; text-decoration-color: initial;&quot;&gt;+ addToCart(product : Product , user : User ) : boolean&amp;nbsp;&lt;/div&gt;" style="text;whiteSpace=wrap;html=1;" parent="DSNB09O_sfzWhzwUKTrS-12" vertex="1">
          <mxGeometry y="108" width="370" height="152" as="geometry" />
        </mxCell>
        <mxCell id="DSNB09O_sfzWhzwUKTrS-19" value="" style="endArrow=diamondThin;endFill=0;endSize=24;html=1;rounded=0;entryX=1.014;entryY=0.086;entryDx=0;entryDy=0;entryPerimeter=0;exitX=0.006;exitY=0.138;exitDx=0;exitDy=0;edgeStyle=orthogonalEdgeStyle;exitPerimeter=0;" parent="WIyWlLk6GJQsqaUBKTNV-1" source="DSNB09O_sfzWhzwUKTrS-66" target="DSNB09O_sfzWhzwUKTrS-65" edge="1">
          <mxGeometry width="160" relative="1" as="geometry">
            <mxPoint x="-1588.0600000000004" y="-4020.95" as="sourcePoint" />
            <mxPoint x="-1680" y="-3890.5649999999996" as="targetPoint" />
          </mxGeometry>
        </mxCell>
        <mxCell id="DSNB09O_sfzWhzwUKTrS-28" value="&amp;lt;&amp;lt;enumeration&amp;gt;&amp;gt;&lt;br&gt;OrderStatus" style="swimlane;fontStyle=0;childLayout=stackLayout;horizontal=1;startSize=40;fillColor=none;horizontalStack=0;resizeParent=1;resizeParentMax=0;resizeLast=0;collapsible=1;marginBottom=0;whiteSpace=wrap;html=1;" parent="WIyWlLk6GJQsqaUBKTNV-1" vertex="1">
          <mxGeometry x="-3342" y="-3170" width="140" height="110" as="geometry" />
        </mxCell>
        <mxCell id="DSNB09O_sfzWhzwUKTrS-30" value="PLACED&lt;br&gt;DELIVERED&lt;br&gt;IN_TRANSIT&lt;br&gt;CANCELLED" style="text;strokeColor=none;fillColor=none;align=left;verticalAlign=top;spacingLeft=4;spacingRight=4;overflow=hidden;rotatable=0;points=[[0,0.5],[1,0.5]];portConstraint=eastwest;whiteSpace=wrap;html=1;" parent="DSNB09O_sfzWhzwUKTrS-28" vertex="1">
          <mxGeometry y="40" width="140" height="70" as="geometry" />
        </mxCell>
        <mxCell id="DSNB09O_sfzWhzwUKTrS-34" value="&amp;lt;&amp;lt;enumeration&amp;gt;&amp;gt;&lt;br&gt;ProductCategory" style="swimlane;fontStyle=0;childLayout=stackLayout;horizontal=1;startSize=40;fillColor=none;horizontalStack=0;resizeParent=1;resizeParentMax=0;resizeLast=0;collapsible=1;marginBottom=0;whiteSpace=wrap;html=1;" parent="WIyWlLk6GJQsqaUBKTNV-1" vertex="1">
          <mxGeometry x="-3910" y="-1860" width="140" height="110" as="geometry" />
        </mxCell>
        <mxCell id="DSNB09O_sfzWhzwUKTrS-35" value="MOBILE&lt;br&gt;LAPTOP&lt;br&gt;CLOTHES" style="text;strokeColor=none;fillColor=none;align=left;verticalAlign=top;spacingLeft=4;spacingRight=4;overflow=hidden;rotatable=0;points=[[0,0.5],[1,0.5]];portConstraint=eastwest;whiteSpace=wrap;html=1;" parent="DSNB09O_sfzWhzwUKTrS-34" vertex="1">
          <mxGeometry y="40" width="140" height="70" as="geometry" />
        </mxCell>
        <mxCell id="DSNB09O_sfzWhzwUKTrS-36" value="&amp;lt;&amp;lt;enumeration&amp;gt;&amp;gt;&lt;br&gt;PaymentMode" style="swimlane;fontStyle=0;childLayout=stackLayout;horizontal=1;startSize=40;fillColor=none;horizontalStack=0;resizeParent=1;resizeParentMax=0;resizeLast=0;collapsible=1;marginBottom=0;whiteSpace=wrap;html=1;" parent="WIyWlLk6GJQsqaUBKTNV-1" vertex="1">
          <mxGeometry x="-2670" y="-3055.44" width="170" height="120" as="geometry" />
        </mxCell>
        <mxCell id="DSNB09O_sfzWhzwUKTrS-37" value="&lt;div&gt;CASH_ON_DELIVERY&lt;/div&gt;&lt;div&gt;CREDIT_OR_DEBIT_CARD&lt;/div&gt;&lt;div&gt;NET_BANKING&lt;/div&gt;&lt;div&gt;UPI&lt;/div&gt;" style="text;strokeColor=none;fillColor=none;align=left;verticalAlign=top;spacingLeft=4;spacingRight=4;overflow=hidden;rotatable=0;points=[[0,0.5],[1,0.5]];portConstraint=eastwest;whiteSpace=wrap;html=1;" parent="DSNB09O_sfzWhzwUKTrS-36" vertex="1">
          <mxGeometry y="40" width="170" height="80" as="geometry" />
        </mxCell>
        <mxCell id="DSNB09O_sfzWhzwUKTrS-38" value="OrderView" style="html=1;overflow=block;blockSpacing=1;swimlane;childLayout=stackLayout;horizontal=1;horizontalStack=0;resizeParent=1;resizeParentMax=0;resizeLast=0;collapsible=0;fontStyle=0;marginBottom=0;swimlaneFillColor=#ffffff;startSize=25;whiteSpace=wrap;fontSize=16.7;align=center;spacing=0;strokeColor=#3a414a;strokeOpacity=100;rounded=1;absoluteArcSize=1;arcSize=9;strokeWidth=0.8;" parent="WIyWlLk6GJQsqaUBKTNV-1" vertex="1">
          <mxGeometry x="-3140" y="-3340" width="350" height="340" as="geometry" />
        </mxCell>
        <mxCell id="DSNB09O_sfzWhzwUKTrS-78" value="&lt;div&gt;&lt;font style=&quot;font-size: 14px;&quot;&gt;&lt;u&gt;- ORDER_CONTROLLER : OrderController&amp;nbsp;&lt;/u&gt;&lt;/font&gt;&lt;/div&gt;&lt;div&gt;&lt;font size=&quot;3&quot;&gt;&lt;u&gt;- USER_CONTROLLER : UserController&amp;nbsp;&lt;/u&gt;&lt;/font&gt;&lt;/div&gt;&lt;div&gt;&lt;font size=&quot;3&quot;&gt;&lt;u&gt;- orderViewInstance : OrderView&amp;nbsp;&lt;/u&gt;&lt;/font&gt;&lt;/div&gt;&lt;div&gt;- scanner: Scanner&lt;font size=&quot;3&quot;&gt;&lt;br&gt;&lt;/font&gt;&lt;/div&gt;" style="part=1;html=1;resizeHeight=0;strokeColor=none;fillColor=none;align=left;verticalAlign=middle;spacingLeft=4;spacingRight=4;overflow=hidden;rotatable=0;points=[[0,0.5],[1,0.5]];portConstraint=eastwest;swimlaneFillColor=#ffffff;strokeOpacity=100;whiteSpace=wrap;fontSize=16.7;fontColor=#3a414a;" parent="DSNB09O_sfzWhzwUKTrS-38" vertex="1">
          <mxGeometry y="25" width="350" height="92" as="geometry" />
        </mxCell>
        <mxCell id="DSNB09O_sfzWhzwUKTrS-40" value="" style="line;strokeWidth=1;fillColor=none;align=left;verticalAlign=middle;spacingTop=-1;spacingLeft=3;spacingRight=3;rotatable=0;labelPosition=right;points=[];portConstraint=eastwest;" parent="DSNB09O_sfzWhzwUKTrS-38" vertex="1">
          <mxGeometry y="117" width="350" height="8" as="geometry" />
        </mxCell>
        <mxCell id="DSNB09O_sfzWhzwUKTrS-79" value="&lt;div&gt;&lt;font style=&quot;font-size: 14px;&quot;&gt;&lt;u&gt;+ getInstance : OrderView&amp;nbsp;&lt;/u&gt;&lt;/font&gt;&lt;/div&gt;&lt;div&gt;&lt;font style=&quot;font-size: 14px;&quot;&gt;+ placeOrder(product: Product , user : User): OrderView&amp;nbsp;&lt;/font&gt;&lt;/div&gt;&lt;div&gt;&lt;font style=&quot;font-size: 14px;&quot;&gt;+ viewOrCancelOrder(user : User): void&lt;/font&gt;&lt;/div&gt;&lt;div&gt;&lt;font style=&quot;font-size: 14px;&quot;&gt;- getAddress(addresses : List&amp;lt;String&amp;gt; , user : User) : String&amp;nbsp;&lt;/font&gt;&lt;/div&gt;&lt;div&gt;&lt;font style=&quot;font-size: 14px;&quot;&gt;- getPaymentMode() : PaymentMode&amp;nbsp;&lt;/font&gt;&lt;/div&gt;&lt;div&gt;&lt;font style=&quot;font-size: 14px;&quot;&gt;- getQuantity(product: Product , user : User) : Integer&amp;nbsp;&lt;/font&gt;&lt;/div&gt;&lt;div&gt;&lt;font style=&quot;font-size: 14px;&quot;&gt;- getIndex(final List&amp;lt;Order&amp;gt; orders): int&amp;nbsp;&lt;/font&gt;&lt;/div&gt;" style="part=1;html=1;resizeHeight=0;strokeColor=none;fillColor=none;align=left;verticalAlign=middle;spacingLeft=4;spacingRight=4;overflow=hidden;rotatable=0;points=[[0,0.5],[1,0.5]];portConstraint=eastwest;swimlaneFillColor=#ffffff;strokeOpacity=100;whiteSpace=wrap;fontSize=16.7;fontColor=#3a414a;" parent="DSNB09O_sfzWhzwUKTrS-38" vertex="1">
          <mxGeometry y="125" width="350" height="215" as="geometry" />
        </mxCell>
        <mxCell id="DSNB09O_sfzWhzwUKTrS-45" value="View" style="html=1;overflow=block;blockSpacing=1;swimlane;childLayout=stackLayout;horizontal=1;horizontalStack=0;resizeParent=1;resizeParentMax=0;resizeLast=0;collapsible=0;fontStyle=0;marginBottom=0;swimlaneFillColor=#ffffff;startSize=25;whiteSpace=wrap;fontSize=16.7;align=center;spacing=0;strokeColor=#3a414a;strokeOpacity=100;rounded=1;absoluteArcSize=1;arcSize=9;strokeWidth=0.8;" parent="WIyWlLk6GJQsqaUBKTNV-1" vertex="1">
          <mxGeometry x="-3140" y="-4573" width="330" height="213" as="geometry" />
        </mxCell>
        <mxCell id="DSNB09O_sfzWhzwUKTrS-46" value="&lt;div style=&quot;display: flex; justify-content: center; align-items: baseline; font-size: 0px; line-height: 1.25; margin-top: -2px;&quot;&gt;&lt;span&gt;&lt;span style=&quot;font-size:16.7px;&quot;&gt;- &lt;/span&gt;&lt;span style=&quot;font-size:13.1px;font-style: italic;text-decoration: underline;&quot;&gt;userServiceInstance :&lt;/span&gt;&lt;span style=&quot;font-size:13.1px;text-decoration: underline;&quot;&gt; UserServiceImpl &lt;br&gt;&lt;/span&gt;&lt;span style=&quot;font-size:13.1px;&quot;&gt;- &lt;/span&gt;&lt;span style=&quot;font-size:13.1px;text-decoration: underline;&quot;&gt;USERS : &lt;/span&gt;&lt;span style=&quot;font-size:13.1px;text-decoration: underline;&quot;&gt;Map&amp;lt;String, User&amp;gt;&lt;/span&gt;&lt;/span&gt;&lt;/div&gt;" style="part=1;html=1;resizeHeight=0;strokeColor=none;fillColor=none;align=left;verticalAlign=middle;spacingLeft=4;spacingRight=4;overflow=hidden;rotatable=0;points=[[0,0.5],[1,0.5]];portConstraint=eastwest;swimlaneFillColor=#ffffff;strokeOpacity=100;whiteSpace=wrap;fontSize=16.7;fontStyle=6;" parent="DSNB09O_sfzWhzwUKTrS-45" vertex="1">
          <mxGeometry y="25" width="330" height="75" as="geometry" />
        </mxCell>
        <mxCell id="DSNB09O_sfzWhzwUKTrS-47" value="" style="line;strokeWidth=1;fillColor=none;align=left;verticalAlign=middle;spacingTop=-1;spacingLeft=3;spacingRight=3;rotatable=0;labelPosition=right;points=[];portConstraint=eastwest;" parent="DSNB09O_sfzWhzwUKTrS-45" vertex="1">
          <mxGeometry y="100" width="330" height="8" as="geometry" />
        </mxCell>
        <mxCell id="DSNB09O_sfzWhzwUKTrS-48" value="&lt;div style=&quot;display: flex; justify-content: center; align-items: baseline; font-size: 0px; line-height: 1.25; margin-top: -2px;&quot;&gt;&lt;span&gt;&lt;span style=&quot;font-size:13.3px;&quot;&gt;&lt;span style=&quot;font-size:13.3px;&quot;&gt;+ &lt;/span&gt;&lt;span style=&quot;font-size:13.3px;text-decoration: underline;&quot;&gt;getInstance() : userServiceInstance&lt;br&gt;&lt;/span&gt;&lt;span style=&quot;font-size:13.1px;&quot;&gt;+ createNewUser(user : User ) : boolean&lt;br&gt;+ getExistingUser(mobileNumber : String , password : String ) : User &lt;/span&gt;&lt;/span&gt;&lt;/span&gt;&lt;/div&gt;" style="part=1;resizeHeight=0;strokeColor=none;fillColor=none;align=left;verticalAlign=middle;spacingLeft=4;spacingRight=4;rotatable=0;points=[[0,0.5],[1,0.5]];portConstraint=eastwest;swimlaneFillColor=#ffffff;strokeOpacity=100;whiteSpace=wrap;overflow=block;blockSpacing=1;html=1;fontSize=13;" parent="DSNB09O_sfzWhzwUKTrS-45" vertex="1">
          <mxGeometry y="108" width="330" height="105" as="geometry" />
        </mxCell>
        <mxCell id="DSNB09O_sfzWhzwUKTrS-60" value="" style="endArrow=diamondThin;endFill=0;endSize=24;html=1;rounded=0;entryX=1;entryY=0.081;entryDx=0;entryDy=0;entryPerimeter=0;exitX=0;exitY=0.185;exitDx=0;exitDy=0;exitPerimeter=0;" parent="WIyWlLk6GJQsqaUBKTNV-1" source="DSNB09O_sfzWhzwUKTrS-59" target="DSNB09O_sfzWhzwUKTrS-58" edge="1">
          <mxGeometry width="160" relative="1" as="geometry">
            <mxPoint x="-2060" y="-4350" as="sourcePoint" />
            <mxPoint x="-1900" y="-4350" as="targetPoint" />
          </mxGeometry>
        </mxCell>
        <mxCell id="DSNB09O_sfzWhzwUKTrS-61" value="" style="endArrow=diamondThin;endFill=0;endSize=24;html=1;rounded=0;entryX=0.824;entryY=0.007;entryDx=0;entryDy=0;entryPerimeter=0;exitX=-0.006;exitY=0.927;exitDx=0;exitDy=0;exitPerimeter=0;edgeStyle=orthogonalEdgeStyle;" parent="WIyWlLk6GJQsqaUBKTNV-1" source="7sSd0tKmP4TyFzPP-oEi-37" target="7sSd0tKmP4TyFzPP-oEi-118" edge="1">
          <mxGeometry width="160" relative="1" as="geometry">
            <mxPoint x="-3410" y="-3621.18" as="sourcePoint" />
            <mxPoint x="-3250" y="-3621.18" as="targetPoint" />
            <Array as="points">
              <mxPoint x="-3200" y="-3886" />
              <mxPoint x="-3200" y="-3680" />
              <mxPoint x="-3291" y="-3680" />
            </Array>
          </mxGeometry>
        </mxCell>
        <mxCell id="DSNB09O_sfzWhzwUKTrS-68" value="" style="endArrow=block;dashed=1;endFill=0;endSize=12;html=1;rounded=0;exitX=1.002;exitY=0.123;exitDx=0;exitDy=0;exitPerimeter=0;entryX=-0.007;entryY=0.572;entryDx=0;entryDy=0;entryPerimeter=0;" parent="WIyWlLk6GJQsqaUBKTNV-1" source="7sSd0tKmP4TyFzPP-oEi-77" target="7sSd0tKmP4TyFzPP-oEi-95" edge="1">
          <mxGeometry width="160" relative="1" as="geometry">
            <mxPoint x="-2060.0012500000003" y="-3946.34" as="sourcePoint" />
            <mxPoint x="-1868.47" y="-4034" as="targetPoint" />
          </mxGeometry>
        </mxCell>
        <mxCell id="DSNB09O_sfzWhzwUKTrS-69" value="Use" style="endArrow=open;endSize=12;dashed=1;html=1;rounded=0;entryX=1.001;entryY=0.957;entryDx=0;entryDy=0;entryPerimeter=0;exitX=0;exitY=0.374;exitDx=0;exitDy=0;exitPerimeter=0;" parent="WIyWlLk6GJQsqaUBKTNV-1" source="7sSd0tKmP4TyFzPP-oEi-77" target="DSNB09O_sfzWhzwUKTrS-62" edge="1">
          <mxGeometry width="160" relative="1" as="geometry">
            <mxPoint x="-2682" y="-4180" as="sourcePoint" />
            <mxPoint x="-2791" y="-4181" as="targetPoint" />
          </mxGeometry>
        </mxCell>
        <mxCell id="DSNB09O_sfzWhzwUKTrS-70" value="" style="endArrow=diamondThin;endFill=0;endSize=24;html=1;rounded=0;exitX=0.002;exitY=0.618;exitDx=0;exitDy=0;exitPerimeter=0;entryX=1;entryY=0.762;entryDx=0;entryDy=0;entryPerimeter=0;" parent="WIyWlLk6GJQsqaUBKTNV-1" source="DSNB09O_sfzWhzwUKTrS-62" target="7sSd0tKmP4TyFzPP-oEi-37" edge="1">
          <mxGeometry width="160" relative="1" as="geometry">
            <mxPoint x="-2870" y="-4040" as="sourcePoint" />
            <mxPoint x="-2870" y="-3900" as="targetPoint" />
          </mxGeometry>
        </mxCell>
        <mxCell id="DSNB09O_sfzWhzwUKTrS-71" value="" style="endArrow=block;dashed=1;endFill=0;endSize=12;html=1;rounded=0;exitX=1.008;exitY=0.173;exitDx=0;exitDy=0;exitPerimeter=0;entryX=0.001;entryY=1.073;entryDx=0;entryDy=0;entryPerimeter=0;" parent="WIyWlLk6GJQsqaUBKTNV-1" source="7sSd0tKmP4TyFzPP-oEi-81" target="7sSd0tKmP4TyFzPP-oEi-99" edge="1">
          <mxGeometry width="160" relative="1" as="geometry">
            <mxPoint x="-1950" y="-3670" as="sourcePoint" />
            <mxPoint x="-1790" y="-3670" as="targetPoint" />
          </mxGeometry>
        </mxCell>
        <mxCell id="DSNB09O_sfzWhzwUKTrS-75" value="" style="endArrow=diamondThin;endFill=0;endSize=24;html=1;rounded=0;entryX=1.007;entryY=0.881;entryDx=0;entryDy=0;entryPerimeter=0;exitX=0;exitY=0.5;exitDx=0;exitDy=0;" parent="WIyWlLk6GJQsqaUBKTNV-1" source="DSNB09O_sfzWhzwUKTrS-9" target="7sSd0tKmP4TyFzPP-oEi-99" edge="1">
          <mxGeometry width="160" relative="1" as="geometry">
            <mxPoint x="-1460" y="-3690" as="sourcePoint" />
            <mxPoint x="-1300" y="-3690" as="targetPoint" />
          </mxGeometry>
        </mxCell>
        <mxCell id="DSNB09O_sfzWhzwUKTrS-76" value="Use" style="endArrow=open;endSize=12;dashed=1;html=1;rounded=0;entryX=0.999;entryY=0.669;entryDx=0;entryDy=0;entryPerimeter=0;exitX=-0.007;exitY=0.366;exitDx=0;exitDy=0;exitPerimeter=0;" parent="WIyWlLk6GJQsqaUBKTNV-1" source="DSNB09O_sfzWhzwUKTrS-80" target="7sSd0tKmP4TyFzPP-oEi-59" edge="1">
          <mxGeometry x="0.0102" width="160" relative="1" as="geometry">
            <mxPoint x="-2202" y="-3238.608" as="sourcePoint" />
            <mxPoint x="-2360" y="-3261.5" as="targetPoint" />
            <mxPoint as="offset" />
          </mxGeometry>
        </mxCell>
        <mxCell id="DSNB09O_sfzWhzwUKTrS-83" value="" style="endArrow=diamondThin;endFill=0;endSize=24;html=1;rounded=0;entryX=1.017;entryY=0.902;entryDx=0;entryDy=0;entryPerimeter=0;exitX=-0.002;exitY=0.94;exitDx=0;exitDy=0;exitPerimeter=0;" parent="WIyWlLk6GJQsqaUBKTNV-1" source="DSNB09O_sfzWhzwUKTrS-5" target="7sSd0tKmP4TyFzPP-oEi-103" edge="1">
          <mxGeometry width="160" relative="1" as="geometry">
            <mxPoint x="-1510" y="-3410" as="sourcePoint" />
            <mxPoint x="-1350" y="-3410" as="targetPoint" />
          </mxGeometry>
        </mxCell>
        <mxCell id="DSNB09O_sfzWhzwUKTrS-85" value="" style="endArrow=none;html=1;rounded=0;entryX=-0.059;entryY=0.318;entryDx=0;entryDy=0;entryPerimeter=0;exitX=1.014;exitY=0.757;exitDx=0;exitDy=0;exitPerimeter=0;edgeStyle=orthogonalEdgeStyle;" parent="WIyWlLk6GJQsqaUBKTNV-1" source="DSNB09O_sfzWhzwUKTrS-79" target="DSNB09O_sfzWhzwUKTrS-37" edge="1">
          <mxGeometry width="50" height="50" relative="1" as="geometry">
            <mxPoint x="-2770" y="-2810" as="sourcePoint" />
            <mxPoint x="-2720" y="-2860" as="targetPoint" />
          </mxGeometry>
        </mxCell>
        <mxCell id="XpNkeaBBE38Nemx9Hf7X-0" value="" style="endArrow=diamondThin;endFill=0;endSize=24;html=1;rounded=0;entryX=1.003;entryY=0.255;entryDx=0;entryDy=0;entryPerimeter=0;exitX=-0.002;exitY=0.204;exitDx=0;exitDy=0;exitPerimeter=0;" edge="1" parent="WIyWlLk6GJQsqaUBKTNV-1" source="DSNB09O_sfzWhzwUKTrS-78" target="7sSd0tKmP4TyFzPP-oEi-121">
          <mxGeometry width="160" relative="1" as="geometry">
            <mxPoint x="-3140" y="-3297" as="sourcePoint" />
            <mxPoint x="-3150" y="-3150" as="targetPoint" />
          </mxGeometry>
        </mxCell>
        <mxCell id="XpNkeaBBE38Nemx9Hf7X-1" value="" style="endArrow=diamondThin;endFill=0;endSize=24;html=1;rounded=0;entryX=1.001;entryY=0.141;entryDx=0;entryDy=0;entryPerimeter=0;exitX=-0.002;exitY=0.791;exitDx=0;exitDy=0;exitPerimeter=0;" edge="1" parent="WIyWlLk6GJQsqaUBKTNV-1" source="7sSd0tKmP4TyFzPP-oEi-29" target="7sSd0tKmP4TyFzPP-oEi-119">
          <mxGeometry width="160" relative="1" as="geometry">
            <mxPoint x="-3200" y="-3520" as="sourcePoint" />
            <mxPoint x="-3040" y="-3520" as="targetPoint" />
          </mxGeometry>
        </mxCell>
        <mxCell id="XpNkeaBBE38Nemx9Hf7X-2" value="" style="endArrow=diamondThin;endFill=0;endSize=24;html=1;rounded=0;entryX=0;entryY=0.5;entryDx=0;entryDy=0;exitX=0.529;exitY=-0.021;exitDx=0;exitDy=0;exitPerimeter=0;edgeStyle=orthogonalEdgeStyle;" edge="1" parent="WIyWlLk6GJQsqaUBKTNV-1" source="72njBxylXS5DjuqRFmT2-62" target="7sSd0tKmP4TyFzPP-oEi-121">
          <mxGeometry width="160" relative="1" as="geometry">
            <mxPoint x="-3700" y="-3100" as="sourcePoint" />
            <mxPoint x="-3540" y="-3100" as="targetPoint" />
            <Array as="points">
              <mxPoint x="-3805" y="-3277" />
            </Array>
          </mxGeometry>
        </mxCell>
        <mxCell id="XpNkeaBBE38Nemx9Hf7X-3" value="Extends" style="endArrow=block;endSize=16;endFill=0;html=1;rounded=0;entryX=0.996;entryY=0.751;entryDx=0;entryDy=0;entryPerimeter=0;exitX=0.305;exitY=-0.008;exitDx=0;exitDy=0;exitPerimeter=0;edgeStyle=orthogonalEdgeStyle;" edge="1" parent="WIyWlLk6GJQsqaUBKTNV-1" source="7sSd0tKmP4TyFzPP-oEi-134" target="7sSd0tKmP4TyFzPP-oEi-125">
          <mxGeometry width="160" relative="1" as="geometry">
            <mxPoint x="-3420" y="-2170" as="sourcePoint" />
            <mxPoint x="-3260" y="-2170" as="targetPoint" />
          </mxGeometry>
        </mxCell>
        <mxCell id="XpNkeaBBE38Nemx9Hf7X-4" value="" style="endArrow=diamondThin;endFill=1;endSize=24;html=1;rounded=0;entryX=0.674;entryY=1.008;entryDx=0;entryDy=0;entryPerimeter=0;exitX=0.494;exitY=-0.021;exitDx=0;exitDy=0;exitPerimeter=0;edgeStyle=orthogonalEdgeStyle;" edge="1" parent="WIyWlLk6GJQsqaUBKTNV-1" source="7sSd0tKmP4TyFzPP-oEi-122" target="72njBxylXS5DjuqRFmT2-65">
          <mxGeometry width="160" relative="1" as="geometry">
            <mxPoint x="-3850" y="-2440" as="sourcePoint" />
            <mxPoint x="-3690" y="-2440" as="targetPoint" />
          </mxGeometry>
        </mxCell>
        <mxCell id="XpNkeaBBE38Nemx9Hf7X-5" value="" style="endArrow=block;dashed=1;endFill=0;endSize=12;html=1;rounded=0;entryX=0.539;entryY=-0.004;entryDx=0;entryDy=0;entryPerimeter=0;exitX=0.537;exitY=1.025;exitDx=0;exitDy=0;exitPerimeter=0;" edge="1" parent="WIyWlLk6GJQsqaUBKTNV-1" source="72njBxylXS5DjuqRFmT2-73" target="72njBxylXS5DjuqRFmT2-74">
          <mxGeometry width="160" relative="1" as="geometry">
            <mxPoint x="-4720" y="-2090" as="sourcePoint" />
            <mxPoint x="-4560" y="-2090" as="targetPoint" />
          </mxGeometry>
        </mxCell>
        <mxCell id="XpNkeaBBE38Nemx9Hf7X-6" value="&lt;div style=&quot;&quot;&gt;&lt;span style=&quot;background-color: initial;&quot;&gt;InventoryDAOImpl&lt;/span&gt;&lt;/div&gt;" style="html=1;overflow=block;blockSpacing=1;swimlane;childLayout=stackLayout;horizontal=1;horizontalStack=0;resizeParent=1;resizeParentMax=0;resizeLast=0;collapsible=0;fontStyle=0;marginBottom=0;swimlaneFillColor=#ffffff;startSize=30;whiteSpace=wrap;fontSize=16.7;fontColor=#3a414a;align=center;spacing=0;strokeColor=#3a414a;strokeOpacity=100;rounded=1;absoluteArcSize=1;arcSize=9;strokeWidth=0.8;" vertex="1" parent="WIyWlLk6GJQsqaUBKTNV-1">
          <mxGeometry x="-4470" y="-1660" width="350" height="255" as="geometry" />
        </mxCell>
        <mxCell id="XpNkeaBBE38Nemx9Hf7X-7" value="&lt;div&gt;&lt;span style=&quot;background-color: initial;&quot;&gt;- &lt;/span&gt;&lt;u style=&quot;background-color: initial;&quot;&gt;inventoryDAOInstance : InventoryDAOImpl&amp;nbsp;&lt;/u&gt;&lt;br&gt;&lt;/div&gt;" style="part=1;html=1;resizeHeight=0;strokeColor=none;fillColor=none;align=left;verticalAlign=middle;spacingLeft=4;spacingRight=4;overflow=hidden;rotatable=0;points=[[0,0.5],[1,0.5]];portConstraint=eastwest;swimlaneFillColor=#ffffff;strokeOpacity=100;whiteSpace=wrap;fontSize=13.3;fontColor=#3a414a;" vertex="1" parent="XpNkeaBBE38Nemx9Hf7X-6">
          <mxGeometry y="30" width="350" height="80" as="geometry" />
        </mxCell>
        <mxCell id="XpNkeaBBE38Nemx9Hf7X-8" value="" style="line;strokeWidth=1;fillColor=none;align=left;verticalAlign=middle;spacingTop=-1;spacingLeft=3;spacingRight=3;rotatable=0;labelPosition=right;points=[];portConstraint=eastwest;" vertex="1" parent="XpNkeaBBE38Nemx9Hf7X-6">
          <mxGeometry y="110" width="350" height="8" as="geometry" />
        </mxCell>
        <mxCell id="XpNkeaBBE38Nemx9Hf7X-9" value="&lt;div&gt;&lt;span style=&quot;background-color: initial;&quot;&gt;+ &lt;/span&gt;&lt;u style=&quot;background-color: initial;&quot;&gt;getInstance() : InventoryServiceImpl&lt;/u&gt;&lt;span style=&quot;background-color: initial;&quot;&gt;&amp;nbsp;&lt;/span&gt;&lt;br&gt;&lt;/div&gt;&lt;div&gt;+ addItemToInventory(item : Product) : void&lt;/div&gt;&lt;div&gt;+ removeItemFromInventory(item : Product) : void&lt;/div&gt;&lt;div&gt;+ getMobileItems(): Map&amp;lt;String, List&amp;lt;Product&amp;gt;&amp;gt;&lt;/div&gt;&lt;div&gt;+ getLaptopItems(): Map&amp;lt;String, List&amp;lt;Product&amp;gt;&amp;gt;&amp;nbsp;&lt;/div&gt;&lt;div&gt;+ getClothesItems(): Map&amp;lt;String, List&amp;lt;Product&amp;gt;&amp;gt;&amp;nbsp;&lt;/div&gt;" style="part=1;html=1;resizeHeight=0;strokeColor=none;fillColor=none;align=left;verticalAlign=middle;spacingLeft=4;spacingRight=4;overflow=hidden;rotatable=0;points=[[0,0.5],[1,0.5]];portConstraint=eastwest;swimlaneFillColor=#ffffff;strokeOpacity=100;whiteSpace=wrap;fontSize=13.1;fontColor=#3a414a;" vertex="1" parent="XpNkeaBBE38Nemx9Hf7X-6">
          <mxGeometry y="118" width="350" height="137" as="geometry" />
        </mxCell>
        <mxCell id="XpNkeaBBE38Nemx9Hf7X-10" value="" style="endArrow=diamondThin;endFill=0;endSize=24;html=1;rounded=0;entryX=0.428;entryY=1.013;entryDx=0;entryDy=0;entryPerimeter=0;exitX=0.425;exitY=-0.007;exitDx=0;exitDy=0;exitPerimeter=0;" edge="1" parent="WIyWlLk6GJQsqaUBKTNV-1" source="XpNkeaBBE38Nemx9Hf7X-6" target="72njBxylXS5DjuqRFmT2-77">
          <mxGeometry width="160" relative="1" as="geometry">
            <mxPoint x="-4140" y="-1690" as="sourcePoint" />
            <mxPoint x="-3980" y="-1690" as="targetPoint" />
          </mxGeometry>
        </mxCell>
        <mxCell id="XpNkeaBBE38Nemx9Hf7X-11" value="" style="endArrow=diamondThin;endFill=1;endSize=24;html=1;rounded=0;edgeStyle=orthogonalEdgeStyle;" edge="1" parent="WIyWlLk6GJQsqaUBKTNV-1" target="7sSd0tKmP4TyFzPP-oEi-35">
          <mxGeometry width="160" relative="1" as="geometry">
            <mxPoint x="-4049" y="-3860" as="sourcePoint" />
            <mxPoint x="-3890" y="-4070" as="targetPoint" />
            <Array as="points">
              <mxPoint x="-4049" y="-3860" />
            </Array>
          </mxGeometry>
        </mxCell>
        <mxCell id="XpNkeaBBE38Nemx9Hf7X-12" value="" style="endArrow=diamondThin;endFill=0;endSize=24;html=1;rounded=0;entryX=1.01;entryY=0.866;entryDx=0;entryDy=0;entryPerimeter=0;exitX=0.009;exitY=0.072;exitDx=0;exitDy=0;exitPerimeter=0;" edge="1" parent="WIyWlLk6GJQsqaUBKTNV-1" source="7sSd0tKmP4TyFzPP-oEi-57" target="7sSd0tKmP4TyFzPP-oEi-29">
          <mxGeometry width="160" relative="1" as="geometry">
            <mxPoint x="-2820" y="-3680" as="sourcePoint" />
            <mxPoint x="-2660" y="-3680" as="targetPoint" />
          </mxGeometry>
        </mxCell>
        <mxCell id="XpNkeaBBE38Nemx9Hf7X-14" value="" style="endArrow=diamondThin;endFill=1;endSize=24;html=1;rounded=0;exitX=1.011;exitY=0.719;exitDx=0;exitDy=0;exitPerimeter=0;entryX=0.552;entryY=-0.026;entryDx=0;entryDy=0;entryPerimeter=0;edgeStyle=orthogonalEdgeStyle;" edge="1" parent="WIyWlLk6GJQsqaUBKTNV-1" source="7sSd0tKmP4TyFzPP-oEi-17" target="7sSd0tKmP4TyFzPP-oEi-28">
          <mxGeometry width="160" relative="1" as="geometry">
            <mxPoint x="-4070" y="-3300" as="sourcePoint" />
            <mxPoint x="-3910" y="-3300" as="targetPoint" />
            <Array as="points">
              <mxPoint x="-4020" y="-3117" />
              <mxPoint x="-4020" y="-3660" />
              <mxPoint x="-2980" y="-3660" />
            </Array>
          </mxGeometry>
        </mxCell>
        <mxCell id="XpNkeaBBE38Nemx9Hf7X-16" value="" style="endArrow=diamondThin;endFill=1;endSize=24;html=1;rounded=0;entryX=0.661;entryY=0.998;entryDx=0;entryDy=0;entryPerimeter=0;exitX=0.296;exitY=0;exitDx=0;exitDy=0;exitPerimeter=0;" edge="1" parent="WIyWlLk6GJQsqaUBKTNV-1" source="7sSd0tKmP4TyFzPP-oEi-20" target="DSNB09O_sfzWhzwUKTrS-79">
          <mxGeometry width="160" relative="1" as="geometry">
            <mxPoint x="-3190" y="-2950" as="sourcePoint" />
            <mxPoint x="-3030" y="-2950" as="targetPoint" />
          </mxGeometry>
        </mxCell>
        <mxCell id="XpNkeaBBE38Nemx9Hf7X-17" value="Extends" style="endArrow=block;endSize=16;endFill=0;html=1;rounded=0;entryX=-0.001;entryY=0.8;entryDx=0;entryDy=0;entryPerimeter=0;exitX=0.954;exitY=-0.001;exitDx=0;exitDy=0;exitPerimeter=0;edgeStyle=orthogonalEdgeStyle;" edge="1" parent="WIyWlLk6GJQsqaUBKTNV-1" source="7sSd0tKmP4TyFzPP-oEi-32" target="DSNB09O_sfzWhzwUKTrS-46">
          <mxGeometry width="160" relative="1" as="geometry">
            <mxPoint x="-3340" y="-4410" as="sourcePoint" />
            <mxPoint x="-3180" y="-4410" as="targetPoint" />
            <Array as="points">
              <mxPoint x="-3240" y="-4105" />
              <mxPoint x="-3240" y="-4488" />
            </Array>
          </mxGeometry>
        </mxCell>
        <mxCell id="XpNkeaBBE38Nemx9Hf7X-18" value="Extends" style="endArrow=block;endSize=16;endFill=0;html=1;rounded=0;exitX=0.006;exitY=0.387;exitDx=0;exitDy=0;exitPerimeter=0;entryX=0;entryY=0.238;entryDx=0;entryDy=0;entryPerimeter=0;edgeStyle=orthogonalEdgeStyle;" edge="1" parent="WIyWlLk6GJQsqaUBKTNV-1" source="7sSd0tKmP4TyFzPP-oEi-37" target="DSNB09O_sfzWhzwUKTrS-48">
          <mxGeometry width="160" relative="1" as="geometry">
            <mxPoint x="-3170" y="-4020" as="sourcePoint" />
            <mxPoint x="-3010" y="-4020" as="targetPoint" />
            <Array as="points">
              <mxPoint x="-3170" y="-3932" />
              <mxPoint x="-3170" y="-4440" />
            </Array>
          </mxGeometry>
        </mxCell>
        <mxCell id="XpNkeaBBE38Nemx9Hf7X-19" value="Extends" style="endArrow=block;endSize=16;endFill=0;html=1;rounded=0;entryX=0.997;entryY=1.013;entryDx=0;entryDy=0;entryPerimeter=0;exitX=0.94;exitY=0;exitDx=0;exitDy=0;exitPerimeter=0;edgeStyle=orthogonalEdgeStyle;" edge="1" parent="WIyWlLk6GJQsqaUBKTNV-1" source="DSNB09O_sfzWhzwUKTrS-38" target="DSNB09O_sfzWhzwUKTrS-46">
          <mxGeometry width="160" relative="1" as="geometry">
            <mxPoint x="-2740" y="-4460" as="sourcePoint" />
            <mxPoint x="-2580" y="-4460" as="targetPoint" />
            <Array as="points">
              <mxPoint x="-2811" y="-3906" />
              <mxPoint x="-2790" y="-3906" />
              <mxPoint x="-2790" y="-4472" />
            </Array>
          </mxGeometry>
        </mxCell>
        <mxCell id="XpNkeaBBE38Nemx9Hf7X-20" value="" style="endArrow=none;html=1;rounded=0;entryX=-0.009;entryY=0.2;entryDx=0;entryDy=0;entryPerimeter=0;exitX=1;exitY=0.5;exitDx=0;exitDy=0;edgeStyle=orthogonalEdgeStyle;" edge="1" parent="WIyWlLk6GJQsqaUBKTNV-1" source="DSNB09O_sfzWhzwUKTrS-30" target="DSNB09O_sfzWhzwUKTrS-79">
          <mxGeometry width="50" height="50" relative="1" as="geometry">
            <mxPoint x="-3260" y="-3020" as="sourcePoint" />
            <mxPoint x="-3155" y="-2958" as="targetPoint" />
          </mxGeometry>
        </mxCell>
        <mxCell id="XpNkeaBBE38Nemx9Hf7X-21" value="" style="endArrow=none;html=1;rounded=0;entryX=0.625;entryY=1.052;entryDx=0;entryDy=0;entryPerimeter=0;exitX=1;exitY=0.25;exitDx=0;exitDy=0;edgeStyle=orthogonalEdgeStyle;" edge="1" parent="WIyWlLk6GJQsqaUBKTNV-1" source="DSNB09O_sfzWhzwUKTrS-34" target="7sSd0tKmP4TyFzPP-oEi-133">
          <mxGeometry width="50" height="50" relative="1" as="geometry">
            <mxPoint x="-3603.23" y="-1836" as="sourcePoint" />
            <mxPoint x="-3498.23" y="-1774" as="targetPoint" />
            <Array as="points">
              <mxPoint x="-3732" y="-1833" />
              <mxPoint x="-3732" y="-1880" />
              <mxPoint x="-3515" y="-1880" />
            </Array>
          </mxGeometry>
        </mxCell>
        <mxCell id="XpNkeaBBE38Nemx9Hf7X-22" value="" style="endArrow=none;html=1;rounded=0;entryX=0.465;entryY=1.011;entryDx=0;entryDy=0;entryPerimeter=0;exitX=1;exitY=0.5;exitDx=0;exitDy=0;edgeStyle=orthogonalEdgeStyle;" edge="1" parent="WIyWlLk6GJQsqaUBKTNV-1" source="DSNB09O_sfzWhzwUKTrS-35" target="7sSd0tKmP4TyFzPP-oEi-137">
          <mxGeometry width="50" height="50" relative="1" as="geometry">
            <mxPoint x="-3760" y="-1822" as="sourcePoint" />
            <mxPoint x="-3505" y="-1937" as="targetPoint" />
            <Array as="points">
              <mxPoint x="-3770" y="-1790" />
              <mxPoint x="-3230" y="-1790" />
              <mxPoint x="-3230" y="-1909" />
            </Array>
          </mxGeometry>
        </mxCell>
        <mxCell id="XpNkeaBBE38Nemx9Hf7X-23" value="" style="endArrow=none;html=1;rounded=0;entryX=0.664;entryY=1.042;entryDx=0;entryDy=0;entryPerimeter=0;exitX=0.469;exitY=-0.015;exitDx=0;exitDy=0;edgeStyle=orthogonalEdgeStyle;exitPerimeter=0;" edge="1" parent="WIyWlLk6GJQsqaUBKTNV-1" source="DSNB09O_sfzWhzwUKTrS-34" target="7sSd0tKmP4TyFzPP-oEi-129">
          <mxGeometry width="50" height="50" relative="1" as="geometry">
            <mxPoint x="-3760" y="-1822" as="sourcePoint" />
            <mxPoint x="-3505" y="-1937" as="targetPoint" />
            <Array as="points">
              <mxPoint x="-3844" y="-1900" />
              <mxPoint x="-3837" y="-1900" />
              <mxPoint x="-3837" y="-1950" />
              <mxPoint x="-3837" y="-1950" />
            </Array>
          </mxGeometry>
        </mxCell>
      </root>
    </mxGraphModel>
  </diagram>
</mxfile>
